<?xml version="1.0" encoding="UTF-8" standalone="no"?>
<?xml-stylesheet href="unifont.css" type="text/css"?>
<!DOCTYPE svg PUBLIC "-//W3C//DTD SVG 1.1//EN"
 "http://www.w3.org/Graphics/SVG/1.1/DTD/svg11.dtd">
<!-- Generated by graphviz version 3.0.0 (20220226.1711)
 -->
<!-- Pages: 1 -->
<svg width="1128pt" height="983pt"
 viewBox="0.00 0.00 1127.64 983.00" xmlns="http://www.w3.org/2000/svg" xmlns:xlink="http://www.w3.org/1999/xlink">
<g id="graph0" class="graph" transform="scale(1 1) rotate(0) translate(4 979)">
<polygon fill="white" stroke="transparent" points="-4,4 -4,-979 1123.64,-979 1123.64,4 -4,4"/>
<!-- FB 7530 AX -->
<g id="node1" class="node">
<title>FB 7530 AX</title>
<ellipse fill="none" stroke="black" cx="441.05" cy="-693" rx="54.69" ry="18"/>
<text text-anchor="middle" x="441.05" y="-689.3" font-family="Unifont" font-size="14.00">FB 7530 AX</text>
</g>
<!-- NETGEAR XS505M -->
<g id="node2" class="node">
<title>NETGEAR XS505M</title>
<ellipse fill="none" stroke="black" cx="279.05" cy="-561" rx="72.29" ry="18"/>
<text text-anchor="middle" x="279.05" y="-557.3" font-family="Unifont" font-size="14.00">NETGEAR XS505M</text>
</g>
<!-- FB 7530 AX&#45;&#45;NETGEAR XS505M -->
<g id="edge1" class="edge">
<title>FB 7530 AX&#45;&#45;NETGEAR XS505M</title>
<path fill="none" stroke="black" d="M421.18,-676.06C390.17,-651.18 330.59,-603.36 299.33,-578.28"/>
</g>
<!-- Powerline Baba -->
<g id="node6" class="node">
<title>Powerline Baba</title>
<ellipse fill="none" stroke="black" cx="441.05" cy="-561" rx="72.29" ry="18"/>
<text text-anchor="middle" x="441.05" y="-557.3" font-family="Unifont" font-size="14.00">Powerline Baba</text>
</g>
<!-- FB 7530 AX&#45;&#45;Powerline Baba -->
<g id="edge5" class="edge">
<title>FB 7530 AX&#45;&#45;Powerline Baba</title>
<path fill="none" stroke="black" d="M441.05,-674.74C441.05,-649.87 441.05,-604.24 441.05,-579.33"/>
<text text-anchor="middle" x="465.05" y="-645.8" font-family="Unifont" font-size="14.00">993,143</text>
<text text-anchor="middle" x="465.05" y="-630.8" font-family="Unifont" font-size="14.00">587,25</text>
<text text-anchor="middle" x="465.05" y="-615.8" font-family="Unifont" font-size="14.00">443,80</text>
<text text-anchor="middle" x="465.05" y="-600.8" font-family="Unifont" font-size="14.00">70</text>
</g>
<!-- rotmain -->
<g id="node3" class="node">
<title>rotmain</title>
<ellipse fill="none" stroke="black" cx="279.05" cy="-429" rx="41.69" ry="18"/>
<text text-anchor="middle" x="279.05" y="-425.3" font-family="Unifont" font-size="14.00">rotmain</text>
</g>
<!-- NETGEAR XS505M&#45;&#45;rotmain -->
<g id="edge2" class="edge">
<title>NETGEAR XS505M&#45;&#45;rotmain</title>
<path fill="none" stroke="black" d="M279.05,-542.74C279.05,-517.87 279.05,-472.24 279.05,-447.33"/>
</g>
<!-- Big Bad Internet™ -->
<g id="node4" class="node">
<title>Big Bad Internet™</title>
<ellipse fill="none" stroke="black" cx="668.05" cy="-957" rx="85.29" ry="18"/>
<text text-anchor="middle" x="668.05" y="-953.3" font-family="Unifont" font-size="14.00">Big Bad Internet™</text>
</g>
<!-- Rosenhof -->
<g id="node5" class="node">
<title>Rosenhof</title>
<ellipse fill="none" stroke="black" cx="612.05" cy="-825" rx="46.29" ry="18"/>
<text text-anchor="middle" x="612.05" y="-821.3" font-family="Unifont" font-size="14.00">Rosenhof</text>
</g>
<!-- Big Bad Internet™&#45;&#45;Rosenhof -->
<g id="edge3" class="edge">
<title>Big Bad Internet™&#45;&#45;Rosenhof</title>
<path fill="none" stroke="black" d="M660.73,-939C649.99,-914.09 630.1,-867.92 619.37,-843"/>
<text text-anchor="middle" x="676.05" y="-909.8" font-family="Unifont" font-size="14.00">993,143</text>
<text text-anchor="middle" x="676.05" y="-894.8" font-family="Unifont" font-size="14.00">587,25</text>
<text text-anchor="middle" x="676.05" y="-879.8" font-family="Unifont" font-size="14.00">443,80</text>
<text text-anchor="middle" x="676.05" y="-864.8" font-family="Unifont" font-size="14.00">70</text>
</g>
<!-- Nuremberg -->
<g id="node19" class="node">
<title>Nuremberg</title>
<ellipse fill="none" stroke="black" cx="755.05" cy="-825" rx="50.09" ry="18"/>
<text text-anchor="middle" x="755.05" y="-821.3" font-family="Unifont" font-size="14.00">Nuremberg</text>
</g>
<!-- Big Bad Internet™&#45;&#45;Nuremberg -->
<g id="edge18" class="edge">
<title>Big Bad Internet™&#45;&#45;Nuremberg</title>
<path fill="none" stroke="black" d="M687.5,-939.2C693.21,-933.72 699.22,-927.4 704.05,-921 722.98,-895.89 739.03,-862.82 747.82,-843.06"/>
<text text-anchor="middle" x="760.55" y="-894.8" font-family="Unifont" font-size="14.00">443,80</text>
<text text-anchor="middle" x="760.55" y="-879.8" font-family="Unifont" font-size="14.00">70</text>
</g>
<!-- Rosenhof&#45;&#45;FB 7530 AX -->
<g id="edge4" class="edge">
<title>Rosenhof&#45;&#45;FB 7530 AX</title>
<path fill="none" stroke="black" d="M591.76,-808.58C559.03,-783.69 494.9,-734.94 461.84,-709.81"/>
<text text-anchor="middle" x="586.05" y="-777.8" font-family="Unifont" font-size="14.00">993,143</text>
<text text-anchor="middle" x="586.05" y="-762.8" font-family="Unifont" font-size="14.00">587,25</text>
<text text-anchor="middle" x="586.05" y="-747.8" font-family="Unifont" font-size="14.00">443,80</text>
<text text-anchor="middle" x="586.05" y="-732.8" font-family="Unifont" font-size="14.00">70</text>
</g>
<!-- TP&#45;Link TL&#45;SG108 -->
<g id="node7" class="node">
<title>TP&#45;Link TL&#45;SG108</title>
<ellipse fill="none" stroke="black" cx="441.05" cy="-429" rx="81.49" ry="18"/>
<text text-anchor="middle" x="441.05" y="-425.3" font-family="Unifont" font-size="14.00">TP&#45;Link TL&#45;SG108</text>
</g>
<!-- Powerline Baba&#45;&#45;TP&#45;Link TL&#45;SG108 -->
<g id="edge6" class="edge">
<title>Powerline Baba&#45;&#45;TP&#45;Link TL&#45;SG108</title>
<path fill="none" stroke="black" d="M441.05,-542.74C441.05,-517.87 441.05,-472.24 441.05,-447.33"/>
<text text-anchor="middle" x="465.05" y="-513.8" font-family="Unifont" font-size="14.00">993,143</text>
<text text-anchor="middle" x="465.05" y="-498.8" font-family="Unifont" font-size="14.00">587,25</text>
<text text-anchor="middle" x="465.05" y="-483.8" font-family="Unifont" font-size="14.00">443,80</text>
<text text-anchor="middle" x="465.05" y="-468.8" font-family="Unifont" font-size="14.00">70</text>
</g>
<!-- optiplex3020 -->
<g id="node8" class="node">
<title>optiplex3020</title>
<ellipse fill="none" stroke="black" cx="441.05" cy="-297" rx="63.89" ry="18"/>
<text text-anchor="middle" x="441.05" y="-293.3" font-family="Unifont" font-size="14.00">optiplex3020</text>
</g>
<!-- TP&#45;Link TL&#45;SG108&#45;&#45;optiplex3020 -->
<g id="edge7" class="edge">
<title>TP&#45;Link TL&#45;SG108&#45;&#45;optiplex3020</title>
<path fill="none" stroke="black" d="M441.05,-410.74C441.05,-385.87 441.05,-340.24 441.05,-315.33"/>
<text text-anchor="middle" x="465.05" y="-381.8" font-family="Unifont" font-size="14.00">993,143</text>
<text text-anchor="middle" x="465.05" y="-366.8" font-family="Unifont" font-size="14.00">587,25</text>
<text text-anchor="middle" x="465.05" y="-351.8" font-family="Unifont" font-size="14.00">443,80</text>
<text text-anchor="middle" x="465.05" y="-336.8" font-family="Unifont" font-size="14.00">70</text>
</g>
<!-- dockerop -->
<g id="node9" class="node">
<title>dockerop</title>
<ellipse fill="none" stroke="black" cx="226.05" cy="-135" rx="37.09" ry="18"/>
<text text-anchor="middle" x="226.05" y="-131.3" font-family="Unifont" font-size="14.00">docker</text>
</g>
<!-- optiplex3020&#45;&#45;dockerop -->
<g id="edge8" class="edge">
<title>optiplex3020&#45;&#45;dockerop</title>
<path fill="none" stroke="black" d="M379.75,-291.85C331.97,-287.33 270.84,-278.29 253.05,-261 223.75,-232.53 222.62,-180.41 224.3,-153.35"/>
<text text-anchor="middle" x="300.55" y="-249.8" font-family="Unifont" font-size="14.00">9323</text>
<text text-anchor="middle" x="300.55" y="-234.8" font-family="Unifont" font-size="14.00">9053,9052,9050</text>
<text text-anchor="middle" x="300.55" y="-219.8" font-family="Unifont" font-size="14.00">993,143</text>
<text text-anchor="middle" x="300.55" y="-204.8" font-family="Unifont" font-size="14.00">587,25</text>
<text text-anchor="middle" x="300.55" y="-189.8" font-family="Unifont" font-size="14.00">443,80</text>
<text text-anchor="middle" x="300.55" y="-174.8" font-family="Unifont" font-size="14.00">70</text>
</g>
<!-- bucket -->
<g id="node15" class="node">
<title>bucket</title>
<ellipse fill="none" stroke="black" cx="331.05" cy="-135" rx="37.09" ry="18"/>
<text text-anchor="middle" x="331.05" y="-131.3" font-family="Unifont" font-size="14.00">bucket</text>
</g>
<!-- optiplex3020&#45;&#45;bucket -->
<g id="edge14" class="edge">
<title>optiplex3020&#45;&#45;bucket</title>
<path fill="none" stroke="black" d="M424.77,-279.45C419.52,-273.79 413.83,-267.3 409.05,-261 381.21,-224.32 353.96,-177.43 340.23,-152.81"/>
<text text-anchor="middle" x="423.05" y="-212.3" font-family="Unifont" font-size="14.00">8022</text>
</g>
<!-- aggregamus -->
<g id="node16" class="node">
<title>aggregamus</title>
<ellipse fill="none" stroke="black" cx="441.05" cy="-135" rx="54.69" ry="18"/>
<text text-anchor="middle" x="441.05" y="-131.3" font-family="Unifont" font-size="14.00">aggregamus</text>
</g>
<!-- optiplex3020&#45;&#45;aggregamus -->
<g id="edge15" class="edge">
<title>optiplex3020&#45;&#45;aggregamus</title>
<path fill="none" stroke="black" d="M441.05,-278.88C441.05,-248.24 441.05,-184.38 441.05,-153.48"/>
<text text-anchor="middle" x="455.05" y="-212.3" font-family="Unifont" font-size="14.00">8669</text>
</g>
<!-- inspiriererin -->
<g id="node17" class="node">
<title>inspiriererin</title>
<ellipse fill="none" stroke="black" cx="581.05" cy="-135" rx="67.69" ry="18"/>
<text text-anchor="middle" x="581.05" y="-131.3" font-family="Unifont" font-size="14.00">inspiriererin</text>
</g>
<!-- optiplex3020&#45;&#45;inspiriererin -->
<g id="edge16" class="edge">
<title>optiplex3020&#45;&#45;inspiriererin</title>
<path fill="none" stroke="black" d="M456.44,-279.35C461.74,-273.57 467.69,-267.03 473.05,-261 507.15,-222.63 546.36,-176.8 566.87,-152.71"/>
<text text-anchor="middle" x="565.05" y="-212.3" font-family="Unifont" font-size="14.00">8989</text>
</g>
<!-- murmur -->
<g id="node18" class="node">
<title>murmur</title>
<ellipse fill="none" stroke="black" cx="704.05" cy="-135" rx="37.09" ry="18"/>
<text text-anchor="middle" x="704.05" y="-131.3" font-family="Unifont" font-size="14.00">murmur</text>
</g>
<!-- optiplex3020&#45;&#45;murmur -->
<g id="edge17" class="edge">
<title>optiplex3020&#45;&#45;murmur</title>
<path fill="none" stroke="black" d="M498.74,-289.28C525.69,-284.31 557.4,-275.74 583.05,-261 632.01,-232.85 674.01,-179.13 693.09,-152.21"/>
<text text-anchor="middle" x="696.05" y="-212.3" font-family="Unifont" font-size="14.00">64738</text>
</g>
<!-- ludwigop -->
<g id="node10" class="node">
<title>ludwigop</title>
<ellipse fill="none" stroke="black" cx="37.05" cy="-18" rx="37.09" ry="18"/>
<text text-anchor="middle" x="37.05" y="-14.3" font-family="Unifont" font-size="14.00">ludwig</text>
</g>
<!-- dockerop&#45;&#45;ludwigop -->
<g id="edge11" class="edge">
<title>dockerop&#45;&#45;ludwigop</title>
<path fill="none" stroke="black" d="M196.05,-124.09C179.08,-117.93 157.78,-109.23 140.05,-99 107.3,-80.1 73.44,-51.81 53.86,-34.43"/>
<text text-anchor="middle" x="147.05" y="-72.8" font-family="Unifont" font-size="14.00">70</text>
</g>
<!-- nginxop -->
<g id="node11" class="node">
<title>nginxop</title>
<ellipse fill="none" stroke="black" cx="125.05" cy="-18" rx="32.49" ry="18"/>
<text text-anchor="middle" x="125.05" y="-14.3" font-family="Unifont" font-size="14.00">nginx</text>
</g>
<!-- dockerop&#45;&#45;nginxop -->
<g id="edge10" class="edge">
<title>dockerop&#45;&#45;nginxop</title>
<path fill="none" stroke="black" d="M212,-118.01C192.6,-95.92 157.82,-56.31 138.65,-34.49"/>
<text text-anchor="middle" x="204.55" y="-80.3" font-family="Unifont" font-size="14.00">443</text>
<text text-anchor="middle" x="204.55" y="-65.3" font-family="Unifont" font-size="14.00">80</text>
</g>
<!-- tor&#45;proxy -->
<g id="node12" class="node">
<title>tor&#45;proxy</title>
<ellipse fill="none" stroke="black" cx="226.05" cy="-18" rx="50.09" ry="18"/>
<text text-anchor="middle" x="226.05" y="-14.3" font-family="Unifont" font-size="14.00">tor&#45;proxy</text>
</g>
<!-- dockerop&#45;&#45;tor&#45;proxy -->
<g id="edge9" class="edge">
<title>dockerop&#45;&#45;tor&#45;proxy</title>
<path fill="none" stroke="black" d="M226.05,-116.53C226.05,-94.79 226.05,-57.89 226.05,-36.25"/>
<text text-anchor="middle" x="240.05" y="-87.8" font-family="Unifont" font-size="14.00">9053</text>
<text text-anchor="middle" x="240.05" y="-72.8" font-family="Unifont" font-size="14.00">9052</text>
<text text-anchor="middle" x="240.05" y="-57.8" font-family="Unifont" font-size="14.00">9050</text>
</g>
<!-- simon -->
<g id="node13" class="node">
<title>simon</title>
<ellipse fill="none" stroke="black" cx="327.05" cy="-18" rx="32.49" ry="18"/>
<text text-anchor="middle" x="327.05" y="-14.3" font-family="Unifont" font-size="14.00">simon</text>
</g>
<!-- dockerop&#45;&#45;simon -->
<g id="edge12" class="edge">
<title>dockerop&#45;&#45;simon</title>
<path fill="none" stroke="black" d="M240.48,-118.41C246.01,-112.38 252.36,-105.4 258.05,-99 277.65,-76.92 299.89,-50.97 313.69,-34.75"/>
</g>
<!-- ali -->
<g id="node14" class="node">
<title>ali</title>
<ellipse fill="none" stroke="black" cx="404.05" cy="-18" rx="27" ry="18"/>
<text text-anchor="middle" x="404.05" y="-14.3" font-family="Unifont" font-size="14.00">ali</text>
</g>
<!-- dockerop&#45;&#45;ali -->
<g id="edge13" class="edge">
<title>dockerop&#45;&#45;ali</title>
<path fill="none" stroke="black" d="M250.83,-121.56C263.13,-115.16 278.08,-107.04 291.05,-99 326.18,-77.21 365.12,-48.59 386.88,-32.15"/>
<text text-anchor="middle" x="381.05" y="-80.3" font-family="Unifont" font-size="14.00">993,143</text>
<text text-anchor="middle" x="381.05" y="-65.3" font-family="Unifont" font-size="14.00">587,25</text>
</g>
<!-- sophia -->
<g id="node20" class="node">
<title>sophia</title>
<ellipse fill="none" stroke="black" cx="784.05" cy="-693" rx="37.09" ry="18"/>
<text text-anchor="middle" x="784.05" y="-689.3" font-family="Unifont" font-size="14.00">sophia</text>
</g>
<!-- Nuremberg&#45;&#45;sophia -->
<g id="edge19" class="edge">
<title>Nuremberg&#45;&#45;sophia</title>
<path fill="none" stroke="black" d="M758.84,-807C764.4,-782.09 774.7,-735.92 780.25,-711"/>
<text text-anchor="middle" x="796.55" y="-762.8" font-family="Unifont" font-size="14.00">443,80</text>
<text text-anchor="middle" x="796.55" y="-747.8" font-family="Unifont" font-size="14.00">70</text>
</g>
<!-- redirectorkek -->
<g id="node21" class="node">
<title>redirectorkek</title>
<ellipse fill="none" stroke="black" cx="586.05" cy="-561" rx="54.69" ry="18"/>
<text text-anchor="middle" x="586.05" y="-557.3" font-family="Unifont" font-size="14.00">redirector</text>
</g>
<!-- sophia&#45;&#45;redirectorkek -->
<g id="edge24" class="edge">
<title>sophia&#45;&#45;redirectorkek</title>
<path fill="none" stroke="black" d="M753.5,-682.46C736.28,-676.42 714.73,-667.72 697.05,-657 659.53,-634.24 622.03,-598.86 601.65,-578.31"/>
<text text-anchor="middle" x="704.05" y="-623.3" font-family="Unifont" font-size="14.00">80</text>
</g>
<!-- dockersophia -->
<g id="node22" class="node">
<title>dockersophia</title>
<ellipse fill="none" stroke="black" cx="696.05" cy="-561" rx="37.09" ry="18"/>
<text text-anchor="middle" x="696.05" y="-557.3" font-family="Unifont" font-size="14.00">docker</text>
</g>
<!-- sophia&#45;&#45;dockersophia -->
<g id="edge21" class="edge">
<title>sophia&#45;&#45;dockersophia</title>
<path fill="none" stroke="black" d="M768.66,-676.57C763.13,-670.68 757.04,-663.75 752.05,-657 732.93,-631.14 714.78,-598.31 704.57,-578.79"/>
<text text-anchor="middle" x="766.05" y="-638.3" font-family="Unifont" font-size="14.00">9323</text>
<text text-anchor="middle" x="766.05" y="-623.3" font-family="Unifont" font-size="14.00">8942</text>
<text text-anchor="middle" x="766.05" y="-608.3" font-family="Unifont" font-size="14.00">70</text>
</g>
<!-- nginxsophia -->
<g id="node24" class="node">
<title>nginxsophia</title>
<ellipse fill="none" stroke="black" cx="784.05" cy="-561" rx="32.49" ry="18"/>
<text text-anchor="middle" x="784.05" y="-557.3" font-family="Unifont" font-size="14.00">nginx</text>
</g>
<!-- sophia&#45;&#45;nginxsophia -->
<g id="edge20" class="edge">
<title>sophia&#45;&#45;nginxsophia</title>
<path fill="none" stroke="black" d="M784.05,-674.74C784.05,-649.87 784.05,-604.24 784.05,-579.33"/>
<text text-anchor="middle" x="798.05" y="-630.8" font-family="Unifont" font-size="14.00">8169</text>
<text text-anchor="middle" x="798.05" y="-615.8" font-family="Unifont" font-size="14.00">443</text>
</g>
<!-- jasmin -->
<g id="node26" class="node">
<title>jasmin</title>
<ellipse fill="none" stroke="black" cx="872.05" cy="-561" rx="37.09" ry="18"/>
<text text-anchor="middle" x="872.05" y="-557.3" font-family="Unifont" font-size="14.00">jasmin</text>
</g>
<!-- sophia&#45;&#45;jasmin -->
<g id="edge25" class="edge">
<title>sophia&#45;&#45;jasmin</title>
<path fill="none" stroke="black" d="M799.43,-676.57C804.96,-670.68 811.05,-663.75 816.05,-657 835.17,-631.14 853.31,-598.31 863.52,-578.79"/>
<text text-anchor="middle" x="868.05" y="-623.3" font-family="Unifont" font-size="14.00">8099</text>
</g>
<!-- hanna -->
<g id="node27" class="node">
<title>hanna</title>
<ellipse fill="none" stroke="black" cx="960.05" cy="-561" rx="32.49" ry="18"/>
<text text-anchor="middle" x="960.05" y="-557.3" font-family="Unifont" font-size="14.00">hanna</text>
</g>
<!-- sophia&#45;&#45;hanna -->
<g id="edge26" class="edge">
<title>sophia&#45;&#45;hanna</title>
<path fill="none" stroke="black" d="M818.02,-685.54C839.04,-680.35 865.78,-671.46 886.05,-657 915.66,-635.87 939.2,-599.58 951.25,-578.49"/>
<text text-anchor="middle" x="954.05" y="-623.3" font-family="Unifont" font-size="14.00">8042</text>
</g>
<!-- deployment -->
<g id="node28" class="node">
<title>deployment</title>
<ellipse fill="none" stroke="black" cx="1065.05" cy="-561" rx="54.69" ry="18"/>
<text text-anchor="middle" x="1065.05" y="-557.3" font-family="Unifont" font-size="14.00">deployment</text>
</g>
<!-- sophia&#45;&#45;deployment -->
<g id="edge27" class="edge">
<title>sophia&#45;&#45;deployment</title>
<path fill="none" stroke="black" d="M821.19,-691.6C860.75,-689.74 924.15,-682.55 972.05,-657 1007.68,-637.99 1038.06,-600.58 1053.71,-578.8"/>
</g>
<!-- ludwigsophia -->
<g id="node23" class="node">
<title>ludwigsophia</title>
<ellipse fill="none" stroke="black" cx="643.05" cy="-429" rx="37.09" ry="18"/>
<text text-anchor="middle" x="643.05" y="-425.3" font-family="Unifont" font-size="14.00">ludwig</text>
</g>
<!-- dockersophia&#45;&#45;ludwigsophia -->
<g id="edge22" class="edge">
<title>dockersophia&#45;&#45;ludwigsophia</title>
<path fill="none" stroke="black" d="M689.23,-543.27C679.11,-518.45 660.21,-472.1 650.01,-447.08"/>
<text text-anchor="middle" x="688.05" y="-491.3" font-family="Unifont" font-size="14.00">70</text>
</g>
<!-- mediawiki -->
<g id="node25" class="node">
<title>mediawiki</title>
<ellipse fill="none" stroke="black" cx="748.05" cy="-429" rx="50.09" ry="18"/>
<text text-anchor="middle" x="748.05" y="-425.3" font-family="Unifont" font-size="14.00">mediawiki</text>
</g>
<!-- dockersophia&#45;&#45;mediawiki -->
<g id="edge23" class="edge">
<title>dockersophia&#45;&#45;mediawiki</title>
<path fill="none" stroke="black" d="M702.74,-543.27C712.67,-518.45 731.21,-472.1 741.22,-447.08"/>
<text text-anchor="middle" x="747.05" y="-491.3" font-family="Unifont" font-size="14.00">8942</text>
</g>
</g>
</svg>
