<?xml version="1.0" encoding="UTF-8" standalone="no"?>
<?xml-stylesheet href="unifont.css" type="text/css"?>
<!DOCTYPE svg PUBLIC "-//W3C//DTD SVG 1.1//EN"
 "http://www.w3.org/Graphics/SVG/1.1/DTD/svg11.dtd">
<!-- Generated by graphviz version 3.0.0 (20220226.1711)
 -->
<!-- Pages: 1 -->
<svg width="1221pt" height="908pt"
 viewBox="0.00 0.00 1221.19 908.00" xmlns="http://www.w3.org/2000/svg" xmlns:xlink="http://www.w3.org/1999/xlink">
<g id="graph0" class="graph" transform="scale(1 1) rotate(0) translate(4 904)">
<polygon fill="white" stroke="transparent" points="-4,4 -4,-904 1217.19,-904 1217.19,4 -4,4"/>
<!-- Big Bad Internet™ -->
<g id="node1" class="node">
<title>Big Bad Internet™</title>
<ellipse fill="none" stroke="black" cx="685.15" cy="-882" rx="85.29" ry="18"/>
<text text-anchor="middle" x="685.15" y="-878.3" font-family="Unifont" font-size="14.00">Big Bad Internet™</text>
</g>
<!-- Rosenhof -->
<g id="node2" class="node">
<title>Rosenhof</title>
<ellipse fill="none" stroke="black" cx="629.15" cy="-765" rx="46.29" ry="18"/>
<text text-anchor="middle" x="629.15" y="-761.3" font-family="Unifont" font-size="14.00">Rosenhof</text>
</g>
<!-- Big Bad Internet™&#45;&#45;Rosenhof -->
<g id="edge1" class="edge">
<title>Big Bad Internet™&#45;&#45;Rosenhof</title>
<path fill="none" stroke="black" d="M676.88,-864.03C666.3,-842.29 648.05,-804.81 637.44,-783.04"/>
</g>
<!-- Nuremberg -->
<g id="node26" class="node">
<title>Nuremberg</title>
<ellipse fill="none" stroke="black" cx="772.15" cy="-765" rx="50.09" ry="18"/>
<text text-anchor="middle" x="772.15" y="-761.3" font-family="Unifont" font-size="14.00">Nuremberg</text>
</g>
<!-- Big Bad Internet™&#45;&#45;Nuremberg -->
<g id="edge25" class="edge">
<title>Big Bad Internet™&#45;&#45;Nuremberg</title>
<path fill="none" stroke="black" d="M697.98,-864.03C714.53,-842.16 743.11,-804.38 759.54,-782.66"/>
<text text-anchor="middle" x="754.65" y="-834.8" font-family="Unifont" font-size="14.00">443</text>
<text text-anchor="middle" x="754.65" y="-819.8" font-family="Unifont" font-size="14.00">80</text>
<text text-anchor="middle" x="754.65" y="-804.8" font-family="Unifont" font-size="14.00">70</text>
</g>
<!-- FB 7530 AX -->
<g id="node3" class="node">
<title>FB 7530 AX</title>
<ellipse fill="none" stroke="black" cx="458.15" cy="-648" rx="54.69" ry="18"/>
<text text-anchor="middle" x="458.15" y="-644.3" font-family="Unifont" font-size="14.00">FB 7530 AX</text>
</g>
<!-- Rosenhof&#45;&#45;FB 7530 AX -->
<g id="edge2" class="edge">
<title>Rosenhof&#45;&#45;FB 7530 AX</title>
<path fill="none" stroke="black" d="M606.79,-748.97C574.2,-727.05 513.95,-686.53 481.05,-664.4"/>
</g>
<!-- NETGEAR XS505M -->
<g id="node4" class="node">
<title>NETGEAR XS505M</title>
<ellipse fill="none" stroke="black" cx="194.15" cy="-531" rx="72.29" ry="18"/>
<text text-anchor="middle" x="194.15" y="-527.3" font-family="Unifont" font-size="14.00">NETGEAR XS505M</text>
</g>
<!-- FB 7530 AX&#45;&#45;NETGEAR XS505M -->
<g id="edge3" class="edge">
<title>FB 7530 AX&#45;&#45;NETGEAR XS505M</title>
<path fill="none" stroke="black" d="M426.56,-633.24C376.61,-611.48 279.76,-569.29 228.27,-546.86"/>
</g>
<!-- Powerline Baba -->
<g id="node9" class="node">
<title>Powerline Baba</title>
<ellipse fill="none" stroke="black" cx="458.15" cy="-531" rx="72.29" ry="18"/>
<text text-anchor="middle" x="458.15" y="-527.3" font-family="Unifont" font-size="14.00">Powerline Baba</text>
</g>
<!-- FB 7530 AX&#45;&#45;Powerline Baba -->
<g id="edge8" class="edge">
<title>FB 7530 AX&#45;&#45;Powerline Baba</title>
<path fill="none" stroke="black" d="M458.15,-629.53C458.15,-607.79 458.15,-570.89 458.15,-549.25"/>
</g>
<!-- dergerät -->
<g id="node5" class="node">
<title>dergerät</title>
<ellipse fill="none" stroke="black" cx="46.15" cy="-444" rx="46.29" ry="18"/>
<text text-anchor="middle" x="46.15" y="-440.3" font-family="Unifont" font-size="14.00">dergerät</text>
</g>
<!-- NETGEAR XS505M&#45;&#45;dergerät -->
<g id="edge4" class="edge">
<title>NETGEAR XS505M&#45;&#45;dergerät</title>
<path fill="none" stroke="black" d="M166.66,-514.21C139.24,-498.46 97.49,-474.49 71.03,-459.29"/>
</g>
<!-- rotmain -->
<g id="node6" class="node">
<title>rotmain</title>
<ellipse fill="none" stroke="black" cx="152.15" cy="-444" rx="41.69" ry="18"/>
<text text-anchor="middle" x="152.15" y="-440.3" font-family="Unifont" font-size="14.00">rotmain</text>
</g>
<!-- NETGEAR XS505M&#45;&#45;rotmain -->
<g id="edge5" class="edge">
<title>NETGEAR XS505M&#45;&#45;rotmain</title>
<path fill="none" stroke="black" d="M185.65,-512.8C178.31,-497.95 167.78,-476.64 160.49,-461.89"/>
</g>
<!-- QNAP QSW&#45;1105&#45;5T -->
<g id="node7" class="node">
<title>QNAP QSW&#45;1105&#45;5T</title>
<ellipse fill="none" stroke="black" cx="293.15" cy="-444" rx="81.49" ry="18"/>
<text text-anchor="middle" x="293.15" y="-440.3" font-family="Unifont" font-size="14.00">QNAP QSW&#45;1105&#45;5T</text>
</g>
<!-- NETGEAR XS505M&#45;&#45;QNAP QSW&#45;1105&#45;5T -->
<g id="edge6" class="edge">
<title>NETGEAR XS505M&#45;&#45;QNAP QSW&#45;1105&#45;5T</title>
<path fill="none" stroke="black" d="M213.23,-513.61C230.65,-498.66 256.27,-476.66 273.78,-461.63"/>
</g>
<!-- GWiFi ServerRoom -->
<g id="node8" class="node">
<title>GWiFi ServerRoom</title>
<ellipse fill="none" stroke="black" cx="249.15" cy="-312" rx="81.49" ry="18"/>
<text text-anchor="middle" x="249.15" y="-308.3" font-family="Unifont" font-size="14.00">GWiFi ServerRoom</text>
</g>
<!-- QNAP QSW&#45;1105&#45;5T&#45;&#45;GWiFi ServerRoom -->
<g id="edge7" class="edge">
<title>QNAP QSW&#45;1105&#45;5T&#45;&#45;GWiFi ServerRoom</title>
<path fill="none" stroke="black" d="M287.39,-426C278.96,-401.09 263.33,-354.92 254.9,-330"/>
</g>
<!-- TP&#45;Link TL&#45;SG108 -->
<g id="node10" class="node">
<title>TP&#45;Link TL&#45;SG108</title>
<ellipse fill="none" stroke="black" cx="517.15" cy="-444" rx="81.49" ry="18"/>
<text text-anchor="middle" x="517.15" y="-440.3" font-family="Unifont" font-size="14.00">TP&#45;Link TL&#45;SG108</text>
</g>
<!-- Powerline Baba&#45;&#45;TP&#45;Link TL&#45;SG108 -->
<g id="edge9" class="edge">
<title>Powerline Baba&#45;&#45;TP&#45;Link TL&#45;SG108</title>
<path fill="none" stroke="black" d="M469.8,-513.21C480.08,-498.4 494.98,-476.93 505.31,-462.05"/>
</g>
<!-- GWiFi Baba -->
<g id="node11" class="node">
<title>GWiFi Baba</title>
<ellipse fill="none" stroke="black" cx="403.15" cy="-312" rx="54.69" ry="18"/>
<text text-anchor="middle" x="403.15" y="-308.3" font-family="Unifont" font-size="14.00">GWiFi Baba</text>
</g>
<!-- TP&#45;Link TL&#45;SG108&#45;&#45;GWiFi Baba -->
<g id="edge10" class="edge">
<title>TP&#45;Link TL&#45;SG108&#45;&#45;GWiFi Baba</title>
<path fill="none" stroke="black" d="M502.48,-426.27C480.59,-401.31 439.62,-354.59 417.76,-329.66"/>
</g>
<!-- Baba PC -->
<g id="node12" class="node">
<title>Baba PC</title>
<ellipse fill="none" stroke="black" cx="517.15" cy="-312" rx="41.69" ry="18"/>
<text text-anchor="middle" x="517.15" y="-308.3" font-family="Unifont" font-size="14.00">Baba PC</text>
</g>
<!-- TP&#45;Link TL&#45;SG108&#45;&#45;Baba PC -->
<g id="edge11" class="edge">
<title>TP&#45;Link TL&#45;SG108&#45;&#45;Baba PC</title>
<path fill="none" stroke="black" d="M517.15,-425.74C517.15,-400.87 517.15,-355.24 517.15,-330.33"/>
</g>
<!-- postpi -->
<g id="node13" class="node">
<title>postpi</title>
<ellipse fill="none" stroke="black" cx="614.15" cy="-312" rx="37.09" ry="18"/>
<text text-anchor="middle" x="614.15" y="-308.3" font-family="Unifont" font-size="14.00">postpi</text>
</g>
<!-- TP&#45;Link TL&#45;SG108&#45;&#45;postpi -->
<g id="edge12" class="edge">
<title>TP&#45;Link TL&#45;SG108&#45;&#45;postpi</title>
<path fill="none" stroke="black" d="M529.83,-426C548.62,-400.82 583.63,-353.89 602.07,-329.18"/>
<text text-anchor="middle" x="596.65" y="-396.8" font-family="Unifont" font-size="14.00">993</text>
<text text-anchor="middle" x="596.65" y="-381.8" font-family="Unifont" font-size="14.00">587</text>
<text text-anchor="middle" x="596.65" y="-366.8" font-family="Unifont" font-size="14.00">143</text>
<text text-anchor="middle" x="596.65" y="-351.8" font-family="Unifont" font-size="14.00">25</text>
</g>
<!-- optiplex3020 -->
<g id="node16" class="node">
<title>optiplex3020</title>
<ellipse fill="none" stroke="black" cx="858.15" cy="-312" rx="63.89" ry="18"/>
<text text-anchor="middle" x="858.15" y="-308.3" font-family="Unifont" font-size="14.00">optiplex3020</text>
</g>
<!-- TP&#45;Link TL&#45;SG108&#45;&#45;optiplex3020 -->
<g id="edge15" class="edge">
<title>TP&#45;Link TL&#45;SG108&#45;&#45;optiplex3020</title>
<path fill="none" stroke="black" d="M556.97,-428.28C573.72,-422.06 593.39,-414.72 611.15,-408 686.34,-379.54 774.15,-345.6 822.2,-326.97"/>
<text text-anchor="middle" x="774.65" y="-389.3" font-family="Unifont" font-size="14.00">443</text>
<text text-anchor="middle" x="774.65" y="-374.3" font-family="Unifont" font-size="14.00">80</text>
<text text-anchor="middle" x="774.65" y="-359.3" font-family="Unifont" font-size="14.00">70</text>
</g>
<!-- postfix -->
<g id="node14" class="node">
<title>postfix</title>
<ellipse fill="none" stroke="black" cx="513.15" cy="-135" rx="41.69" ry="18"/>
<text text-anchor="middle" x="513.15" y="-131.3" font-family="Unifont" font-size="14.00">postfix</text>
</g>
<!-- postpi&#45;&#45;postfix -->
<g id="edge13" class="edge">
<title>postpi&#45;&#45;postfix</title>
<path fill="none" stroke="black" d="M602.02,-294.9C597.79,-289.06 593.1,-282.33 589.15,-276 562.17,-232.85 534.71,-179.41 521.4,-152.75"/>
<text text-anchor="middle" x="599.65" y="-227.3" font-family="Unifont" font-size="14.00">587</text>
<text text-anchor="middle" x="599.65" y="-212.3" font-family="Unifont" font-size="14.00">25</text>
</g>
<!-- dovecot -->
<g id="node15" class="node">
<title>dovecot</title>
<ellipse fill="none" stroke="black" cx="614.15" cy="-135" rx="41.69" ry="18"/>
<text text-anchor="middle" x="614.15" y="-131.3" font-family="Unifont" font-size="14.00">dovecot</text>
</g>
<!-- postpi&#45;&#45;dovecot -->
<g id="edge14" class="edge">
<title>postpi&#45;&#45;dovecot</title>
<path fill="none" stroke="black" d="M614.15,-293.9C614.15,-260.45 614.15,-186.68 614.15,-153.17"/>
<text text-anchor="middle" x="624.65" y="-227.3" font-family="Unifont" font-size="14.00">993</text>
<text text-anchor="middle" x="624.65" y="-212.3" font-family="Unifont" font-size="14.00">143</text>
</g>
<!-- dockerop -->
<g id="node17" class="node">
<title>dockerop</title>
<ellipse fill="none" stroke="black" cx="711.15" cy="-135" rx="37.09" ry="18"/>
<text text-anchor="middle" x="711.15" y="-131.3" font-family="Unifont" font-size="14.00">docker</text>
</g>
<!-- optiplex3020&#45;&#45;dockerop -->
<g id="edge16" class="edge">
<title>optiplex3020&#45;&#45;dockerop</title>
<path fill="none" stroke="black" d="M817.75,-297.94C805.58,-292.57 792.88,-285.37 783.15,-276 746.32,-240.56 724.88,-182.19 715.99,-153.31"/>
<text text-anchor="middle" x="797.15" y="-264.8" font-family="Unifont" font-size="14.00">9323</text>
<text text-anchor="middle" x="797.15" y="-249.8" font-family="Unifont" font-size="14.00">9053</text>
<text text-anchor="middle" x="797.15" y="-234.8" font-family="Unifont" font-size="14.00">9052</text>
<text text-anchor="middle" x="797.15" y="-219.8" font-family="Unifont" font-size="14.00">9050</text>
<text text-anchor="middle" x="797.15" y="-204.8" font-family="Unifont" font-size="14.00">443</text>
<text text-anchor="middle" x="797.15" y="-189.8" font-family="Unifont" font-size="14.00">80</text>
<text text-anchor="middle" x="797.15" y="-174.8" font-family="Unifont" font-size="14.00">70</text>
</g>
<!-- bucket -->
<g id="node22" class="node">
<title>bucket</title>
<ellipse fill="none" stroke="black" cx="803.15" cy="-135" rx="37.09" ry="18"/>
<text text-anchor="middle" x="803.15" y="-131.3" font-family="Unifont" font-size="14.00">bucket</text>
</g>
<!-- optiplex3020&#45;&#45;bucket -->
<g id="edge21" class="edge">
<title>optiplex3020&#45;&#45;bucket</title>
<path fill="none" stroke="black" d="M852.77,-293.9C842.23,-260.36 818.95,-186.3 808.46,-152.91"/>
<text text-anchor="middle" x="861.15" y="-219.8" font-family="Unifont" font-size="14.00">8022</text>
</g>
<!-- aggregamus -->
<g id="node23" class="node">
<title>aggregamus</title>
<ellipse fill="none" stroke="black" cx="913.15" cy="-135" rx="54.69" ry="18"/>
<text text-anchor="middle" x="913.15" y="-131.3" font-family="Unifont" font-size="14.00">aggregamus</text>
</g>
<!-- optiplex3020&#45;&#45;aggregamus -->
<g id="edge22" class="edge">
<title>optiplex3020&#45;&#45;aggregamus</title>
<path fill="none" stroke="black" d="M869.69,-294.09C873.11,-288.52 876.62,-282.16 879.15,-276 896.52,-233.65 906.43,-180.31 910.67,-153.33"/>
<text text-anchor="middle" x="922.15" y="-219.8" font-family="Unifont" font-size="14.00">8669</text>
</g>
<!-- inspiriererin -->
<g id="node24" class="node">
<title>inspiriererin</title>
<ellipse fill="none" stroke="black" cx="1053.15" cy="-135" rx="67.69" ry="18"/>
<text text-anchor="middle" x="1053.15" y="-131.3" font-family="Unifont" font-size="14.00">inspiriererin</text>
</g>
<!-- optiplex3020&#45;&#45;inspiriererin -->
<g id="edge23" class="edge">
<title>optiplex3020&#45;&#45;inspiriererin</title>
<path fill="none" stroke="black" d="M899.05,-298.08C912.89,-292.57 927.92,-285.24 940.15,-276 986.98,-240.58 1025.97,-181.68 1043.38,-152.89"/>
<text text-anchor="middle" x="1046.15" y="-219.8" font-family="Unifont" font-size="14.00">8989</text>
</g>
<!-- murmur -->
<g id="node25" class="node">
<title>murmur</title>
<ellipse fill="none" stroke="black" cx="1176.15" cy="-135" rx="37.09" ry="18"/>
<text text-anchor="middle" x="1176.15" y="-131.3" font-family="Unifont" font-size="14.00">murmur</text>
</g>
<!-- optiplex3020&#45;&#45;murmur -->
<g id="edge24" class="edge">
<title>optiplex3020&#45;&#45;murmur</title>
<path fill="none" stroke="black" d="M917.73,-305.62C969.51,-300.09 1039.92,-290.27 1064.15,-276 1115.38,-245.83 1152.51,-182.75 1168.06,-152.66"/>
<text text-anchor="middle" x="1173.15" y="-219.8" font-family="Unifont" font-size="14.00">64738</text>
</g>
<!-- ludwigop -->
<g id="node18" class="node">
<title>ludwigop</title>
<ellipse fill="none" stroke="black" cx="572.15" cy="-18" rx="37.09" ry="18"/>
<text text-anchor="middle" x="572.15" y="-14.3" font-family="Unifont" font-size="14.00">ludwig</text>
</g>
<!-- dockerop&#45;&#45;ludwigop -->
<g id="edge19" class="edge">
<title>dockerop&#45;&#45;ludwigop</title>
<path fill="none" stroke="black" d="M689.38,-120.4C679.86,-114.19 668.71,-106.55 659.15,-99 632.73,-78.16 604.45,-51.19 587.54,-34.49"/>
<text text-anchor="middle" x="666.15" y="-72.8" font-family="Unifont" font-size="14.00">70</text>
</g>
<!-- nginxop -->
<g id="node19" class="node">
<title>nginxop</title>
<ellipse fill="none" stroke="black" cx="660.15" cy="-18" rx="32.49" ry="18"/>
<text text-anchor="middle" x="660.15" y="-14.3" font-family="Unifont" font-size="14.00">nginx</text>
</g>
<!-- dockerop&#45;&#45;nginxop -->
<g id="edge18" class="edge">
<title>dockerop&#45;&#45;nginxop</title>
<path fill="none" stroke="black" d="M703.62,-117.03C693.92,-95.16 677.17,-57.38 667.54,-35.66"/>
<text text-anchor="middle" x="705.65" y="-80.3" font-family="Unifont" font-size="14.00">443</text>
<text text-anchor="middle" x="705.65" y="-65.3" font-family="Unifont" font-size="14.00">80</text>
</g>
<!-- tor&#45;proxy -->
<g id="node20" class="node">
<title>tor&#45;proxy</title>
<ellipse fill="none" stroke="black" cx="761.15" cy="-18" rx="50.09" ry="18"/>
<text text-anchor="middle" x="761.15" y="-14.3" font-family="Unifont" font-size="14.00">tor&#45;proxy</text>
</g>
<!-- dockerop&#45;&#45;tor&#45;proxy -->
<g id="edge17" class="edge">
<title>dockerop&#45;&#45;tor&#45;proxy</title>
<path fill="none" stroke="black" d="M718.52,-117.03C727.98,-95.29 744.27,-57.81 753.74,-36.04"/>
<text text-anchor="middle" x="759.15" y="-87.8" font-family="Unifont" font-size="14.00">9053</text>
<text text-anchor="middle" x="759.15" y="-72.8" font-family="Unifont" font-size="14.00">9052</text>
<text text-anchor="middle" x="759.15" y="-57.8" font-family="Unifont" font-size="14.00">9050</text>
</g>
<!-- simon -->
<g id="node21" class="node">
<title>simon</title>
<ellipse fill="none" stroke="black" cx="862.15" cy="-18" rx="32.49" ry="18"/>
<text text-anchor="middle" x="862.15" y="-14.3" font-family="Unifont" font-size="14.00">simon</text>
</g>
<!-- dockerop&#45;&#45;simon -->
<g id="edge20" class="edge">
<title>dockerop&#45;&#45;simon</title>
<path fill="none" stroke="black" d="M737.48,-122.06C749.96,-115.9 764.81,-107.83 777.15,-99 804.5,-79.42 832.12,-51.59 848.16,-34.45"/>
</g>
<!-- sophia -->
<g id="node27" class="node">
<title>sophia</title>
<ellipse fill="none" stroke="black" cx="801.15" cy="-648" rx="37.09" ry="18"/>
<text text-anchor="middle" x="801.15" y="-644.3" font-family="Unifont" font-size="14.00">sophia</text>
</g>
<!-- Nuremberg&#45;&#45;sophia -->
<g id="edge26" class="edge">
<title>Nuremberg&#45;&#45;sophia</title>
<path fill="none" stroke="black" d="M776.42,-747.03C781.91,-725.29 791.36,-687.81 796.85,-666.04"/>
<text text-anchor="middle" x="802.65" y="-717.8" font-family="Unifont" font-size="14.00">443</text>
<text text-anchor="middle" x="802.65" y="-702.8" font-family="Unifont" font-size="14.00">80</text>
<text text-anchor="middle" x="802.65" y="-687.8" font-family="Unifont" font-size="14.00">70</text>
</g>
<!-- redirectorkek -->
<g id="node28" class="node">
<title>redirectorkek</title>
<ellipse fill="none" stroke="black" cx="603.15" cy="-531" rx="54.69" ry="18"/>
<text text-anchor="middle" x="603.15" y="-527.3" font-family="Unifont" font-size="14.00">redirector</text>
</g>
<!-- sophia&#45;&#45;redirectorkek -->
<g id="edge31" class="edge">
<title>sophia&#45;&#45;redirectorkek</title>
<path fill="none" stroke="black" d="M772.4,-636.37C756.36,-630.04 736.23,-621.41 719.15,-612 683.79,-592.52 645.82,-564.92 623.3,-547.76"/>
<text text-anchor="middle" x="726.15" y="-585.8" font-family="Unifont" font-size="14.00">80</text>
</g>
<!-- dockersophia -->
<g id="node29" class="node">
<title>dockersophia</title>
<ellipse fill="none" stroke="black" cx="713.15" cy="-531" rx="37.09" ry="18"/>
<text text-anchor="middle" x="713.15" y="-527.3" font-family="Unifont" font-size="14.00">docker</text>
</g>
<!-- sophia&#45;&#45;dockersophia -->
<g id="edge28" class="edge">
<title>sophia&#45;&#45;dockersophia</title>
<path fill="none" stroke="black" d="M786.04,-631.36C780.55,-625.44 774.4,-618.55 769.15,-612 752.18,-590.83 734.55,-564.88 723.71,-548.38"/>
<text text-anchor="middle" x="783.15" y="-600.8" font-family="Unifont" font-size="14.00">9323</text>
<text text-anchor="middle" x="783.15" y="-585.8" font-family="Unifont" font-size="14.00">8942</text>
<text text-anchor="middle" x="783.15" y="-570.8" font-family="Unifont" font-size="14.00">70</text>
</g>
<!-- nginxsophia -->
<g id="node31" class="node">
<title>nginxsophia</title>
<ellipse fill="none" stroke="black" cx="801.15" cy="-531" rx="32.49" ry="18"/>
<text text-anchor="middle" x="801.15" y="-527.3" font-family="Unifont" font-size="14.00">nginx</text>
</g>
<!-- sophia&#45;&#45;nginxsophia -->
<g id="edge27" class="edge">
<title>sophia&#45;&#45;nginxsophia</title>
<path fill="none" stroke="black" d="M801.15,-629.53C801.15,-607.79 801.15,-570.89 801.15,-549.25"/>
<text text-anchor="middle" x="815.15" y="-593.3" font-family="Unifont" font-size="14.00">8169</text>
<text text-anchor="middle" x="815.15" y="-578.3" font-family="Unifont" font-size="14.00">443</text>
</g>
<!-- jasmin -->
<g id="node33" class="node">
<title>jasmin</title>
<ellipse fill="none" stroke="black" cx="889.15" cy="-531" rx="37.09" ry="18"/>
<text text-anchor="middle" x="889.15" y="-527.3" font-family="Unifont" font-size="14.00">jasmin</text>
</g>
<!-- sophia&#45;&#45;jasmin -->
<g id="edge32" class="edge">
<title>sophia&#45;&#45;jasmin</title>
<path fill="none" stroke="black" d="M816.25,-631.36C821.75,-625.44 827.89,-618.55 833.15,-612 850.11,-590.83 867.74,-564.88 878.58,-548.38"/>
<text text-anchor="middle" x="880.15" y="-585.8" font-family="Unifont" font-size="14.00">8099</text>
</g>
<!-- hanna -->
<g id="node34" class="node">
<title>hanna</title>
<ellipse fill="none" stroke="black" cx="977.15" cy="-531" rx="32.49" ry="18"/>
<text text-anchor="middle" x="977.15" y="-527.3" font-family="Unifont" font-size="14.00">hanna</text>
</g>
<!-- sophia&#45;&#45;hanna -->
<g id="edge33" class="edge">
<title>sophia&#45;&#45;hanna</title>
<path fill="none" stroke="black" d="M833.81,-639.15C853.45,-633.5 878.39,-624.64 898.15,-612 925.61,-594.44 950.86,-565.74 965.1,-547.92"/>
<text text-anchor="middle" x="962.15" y="-585.8" font-family="Unifont" font-size="14.00">8042</text>
</g>
<!-- deployment -->
<g id="node35" class="node">
<title>deployment</title>
<ellipse fill="none" stroke="black" cx="1082.15" cy="-531" rx="54.69" ry="18"/>
<text text-anchor="middle" x="1082.15" y="-527.3" font-family="Unifont" font-size="14.00">deployment</text>
</g>
<!-- sophia&#45;&#45;deployment -->
<g id="edge34" class="edge">
<title>sophia&#45;&#45;deployment</title>
<path fill="none" stroke="black" d="M837.65,-644.88C874.94,-641.59 933.79,-633.21 980.15,-612 1014.53,-596.27 1047.71,-566.73 1066.46,-548.28"/>
</g>
<!-- ludwigsophia -->
<g id="node30" class="node">
<title>ludwigsophia</title>
<ellipse fill="none" stroke="black" cx="660.15" cy="-444" rx="37.09" ry="18"/>
<text text-anchor="middle" x="660.15" y="-440.3" font-family="Unifont" font-size="14.00">ludwig</text>
</g>
<!-- dockersophia&#45;&#45;ludwigsophia -->
<g id="edge29" class="edge">
<title>dockersophia&#45;&#45;ludwigsophia</title>
<path fill="none" stroke="black" d="M702.93,-513.61C693.54,-498.56 679.71,-476.37 670.33,-461.34"/>
<text text-anchor="middle" x="697.15" y="-483.8" font-family="Unifont" font-size="14.00">70</text>
</g>
<!-- mediawiki -->
<g id="node32" class="node">
<title>mediawiki</title>
<ellipse fill="none" stroke="black" cx="765.15" cy="-444" rx="50.09" ry="18"/>
<text text-anchor="middle" x="765.15" y="-440.3" font-family="Unifont" font-size="14.00">mediawiki</text>
</g>
<!-- dockersophia&#45;&#45;mediawiki -->
<g id="edge30" class="edge">
<title>dockersophia&#45;&#45;mediawiki</title>
<path fill="none" stroke="black" d="M723.17,-513.61C732.32,-498.66 745.78,-476.66 754.97,-461.63"/>
<text text-anchor="middle" x="757.15" y="-483.8" font-family="Unifont" font-size="14.00">8942</text>
</g>
</g>
</svg>
