<?xml version="1.0" encoding="UTF-8" standalone="no"?>
<!DOCTYPE svg PUBLIC "-//W3C//DTD SVG 1.1//EN"
 "http://www.w3.org/Graphics/SVG/1.1/DTD/svg11.dtd">
<!-- Generated by graphviz version 3.0.0 (20220226.1711)
 -->
<!-- Pages: 1 -->
<svg width="1499pt" height="476pt"
 viewBox="0.00 0.00 1499.44 476.00" xmlns="http://www.w3.org/2000/svg" xmlns:xlink="http://www.w3.org/1999/xlink">
<g id="graph0" class="graph" transform="scale(1 1) rotate(0) translate(4 472)">
<polygon fill="white" stroke="transparent" points="-4,4 -4,-472 1495.44,-472 1495.44,4 -4,4"/>
<!-- Big Bad Internet™ -->
<g id="node1" class="node">
<title>Big Bad Internet™</title>
<ellipse fill="none" stroke="black" cx="1074.6" cy="-450" rx="78.79" ry="18"/>
<text text-anchor="middle" x="1074.6" y="-446.3" font-family="Times,serif" font-size="14.00">Big Bad Internet™</text>
</g>
<!-- Rosenhof -->
<g id="node2" class="node">
<title>Rosenhof</title>
<ellipse fill="none" stroke="black" cx="1017.6" cy="-378" rx="44.39" ry="18"/>
<text text-anchor="middle" x="1017.6" y="-374.3" font-family="Times,serif" font-size="14.00">Rosenhof</text>
</g>
<!-- Big Bad Internet™&#45;&#45;Rosenhof -->
<g id="edge1" class="edge">
<title>Big Bad Internet™&#45;&#45;Rosenhof</title>
<path fill="none" stroke="black" d="M1060.8,-432.05C1051.71,-420.89 1039.86,-406.34 1030.88,-395.31"/>
</g>
<!-- Nuremberg -->
<g id="node27" class="node">
<title>Nuremberg</title>
<ellipse fill="none" stroke="black" cx="1207.6" cy="-378" rx="51.19" ry="18"/>
<text text-anchor="middle" x="1207.6" y="-374.3" font-family="Times,serif" font-size="14.00">Nuremberg</text>
</g>
<!-- Big Bad Internet™&#45;&#45;Nuremberg -->
<g id="edge26" class="edge">
<title>Big Bad Internet™&#45;&#45;Nuremberg</title>
<path fill="none" stroke="black" d="M1104.45,-433.29C1127.12,-421.36 1158.05,-405.08 1180.12,-393.46"/>
</g>
<!-- FB 7530 AX -->
<g id="node3" class="node">
<title>FB 7530 AX</title>
<ellipse fill="none" stroke="black" cx="932.6" cy="-306" rx="55.79" ry="18"/>
<text text-anchor="middle" x="932.6" y="-302.3" font-family="Times,serif" font-size="14.00">FB 7530 AX</text>
</g>
<!-- Rosenhof&#45;&#45;FB 7530 AX -->
<g id="edge2" class="edge">
<title>Rosenhof&#45;&#45;FB 7530 AX</title>
<path fill="none" stroke="black" d="M998.73,-361.46C984.84,-350.03 966.01,-334.52 952,-322.98"/>
</g>
<!-- Powerline Baba -->
<g id="node4" class="node">
<title>Powerline Baba</title>
<ellipse fill="none" stroke="black" cx="752.6" cy="-234" rx="66.89" ry="18"/>
<text text-anchor="middle" x="752.6" y="-230.3" font-family="Times,serif" font-size="14.00">Powerline Baba</text>
</g>
<!-- FB 7530 AX&#45;&#45;Powerline Baba -->
<g id="edge3" class="edge">
<title>FB 7530 AX&#45;&#45;Powerline Baba</title>
<path fill="none" stroke="black" d="M898.32,-291.67C867,-279.49 820.85,-261.54 788.91,-249.12"/>
</g>
<!-- QNAP QSW&#45;1105&#45;5T -->
<g id="node5" class="node">
<title>QNAP QSW&#45;1105&#45;5T</title>
<ellipse fill="none" stroke="black" cx="932.6" cy="-234" rx="89.88" ry="18"/>
<text text-anchor="middle" x="932.6" y="-230.3" font-family="Times,serif" font-size="14.00">QNAP QSW&#45;1105&#45;5T</text>
</g>
<!-- FB 7530 AX&#45;&#45;QNAP QSW&#45;1105&#45;5T -->
<g id="edge4" class="edge">
<title>FB 7530 AX&#45;&#45;QNAP QSW&#45;1105&#45;5T</title>
<path fill="none" stroke="black" d="M932.6,-287.7C932.6,-276.85 932.6,-262.92 932.6,-252.1"/>
</g>
<!-- TP&#45;Link TL&#45;SG108 -->
<g id="node11" class="node">
<title>TP&#45;Link TL&#45;SG108</title>
<ellipse fill="none" stroke="black" cx="688.6" cy="-162" rx="80.69" ry="18"/>
<text text-anchor="middle" x="688.6" y="-158.3" font-family="Times,serif" font-size="14.00">TP&#45;Link TL&#45;SG108</text>
</g>
<!-- Powerline Baba&#45;&#45;TP&#45;Link TL&#45;SG108 -->
<g id="edge10" class="edge">
<title>Powerline Baba&#45;&#45;TP&#45;Link TL&#45;SG108</title>
<path fill="none" stroke="black" d="M737.43,-216.41C727.38,-205.41 714.22,-191.03 704.1,-179.96"/>
</g>
<!-- NETGEAR XS505M -->
<g id="node6" class="node">
<title>NETGEAR XS505M</title>
<ellipse fill="none" stroke="black" cx="932.6" cy="-162" rx="87.18" ry="18"/>
<text text-anchor="middle" x="932.6" y="-158.3" font-family="Times,serif" font-size="14.00">NETGEAR XS505M</text>
</g>
<!-- QNAP QSW&#45;1105&#45;5T&#45;&#45;NETGEAR XS505M -->
<g id="edge5" class="edge">
<title>QNAP QSW&#45;1105&#45;5T&#45;&#45;NETGEAR XS505M</title>
<path fill="none" stroke="black" d="M932.6,-215.7C932.6,-204.85 932.6,-190.92 932.6,-180.1"/>
</g>
<!-- Powerline Pixel -->
<g id="node8" class="node">
<title>Powerline Pixel</title>
<ellipse fill="none" stroke="black" cx="1122.6" cy="-162" rx="66.89" ry="18"/>
<text text-anchor="middle" x="1122.6" y="-158.3" font-family="Times,serif" font-size="14.00">Powerline Pixel</text>
</g>
<!-- QNAP QSW&#45;1105&#45;5T&#45;&#45;Powerline Pixel -->
<g id="edge7" class="edge">
<title>QNAP QSW&#45;1105&#45;5T&#45;&#45;Powerline Pixel</title>
<path fill="none" stroke="black" d="M973.82,-217.81C1006.79,-205.67 1052.62,-188.78 1084.68,-176.97"/>
</g>
<!-- dergerät -->
<g id="node7" class="node">
<title>dergerät</title>
<ellipse fill="none" stroke="black" cx="901.6" cy="-90" rx="39.79" ry="18"/>
<text text-anchor="middle" x="901.6" y="-86.3" font-family="Times,serif" font-size="14.00">dergerät</text>
</g>
<!-- NETGEAR XS505M&#45;&#45;dergerät -->
<g id="edge6" class="edge">
<title>NETGEAR XS505M&#45;&#45;dergerät</title>
<path fill="none" stroke="black" d="M925.09,-144.05C920.22,-133.05 913.89,-118.76 909.03,-107.79"/>
</g>
<!-- rotmain -->
<g id="node12" class="node">
<title>rotmain</title>
<ellipse fill="none" stroke="black" cx="997.6" cy="-90" rx="38.19" ry="18"/>
<text text-anchor="middle" x="997.6" y="-86.3" font-family="Times,serif" font-size="14.00">rotmain</text>
</g>
<!-- NETGEAR XS505M&#45;&#45;rotmain -->
<g id="edge11" class="edge">
<title>NETGEAR XS505M&#45;&#45;rotmain</title>
<path fill="none" stroke="black" d="M948.33,-144.05C958.85,-132.73 972.6,-117.92 982.9,-106.83"/>
</g>
<!-- GWiFi Pixel -->
<g id="node9" class="node">
<title>GWiFi Pixel</title>
<ellipse fill="none" stroke="black" cx="1153.6" cy="-90" rx="55.79" ry="18"/>
<text text-anchor="middle" x="1153.6" y="-86.3" font-family="Times,serif" font-size="14.00">GWiFi Pixel</text>
</g>
<!-- Powerline Pixel&#45;&#45;GWiFi Pixel -->
<g id="edge8" class="edge">
<title>Powerline Pixel&#45;&#45;GWiFi Pixel</title>
<path fill="none" stroke="black" d="M1130.1,-144.05C1134.9,-133.21 1141.12,-119.18 1145.95,-108.28"/>
</g>
<!-- TB Dock Pixel -->
<g id="node10" class="node">
<title>TB Dock Pixel</title>
<ellipse fill="none" stroke="black" cx="1176.6" cy="-18" rx="63.89" ry="18"/>
<text text-anchor="middle" x="1176.6" y="-14.3" font-family="Times,serif" font-size="14.00">TB Dock Pixel</text>
</g>
<!-- GWiFi Pixel&#45;&#45;TB Dock Pixel -->
<g id="edge9" class="edge">
<title>GWiFi Pixel&#45;&#45;TB Dock Pixel</title>
<path fill="none" stroke="black" d="M1159.17,-72.05C1162.73,-61.21 1167.34,-47.18 1170.92,-36.28"/>
</g>
<!-- httpis -->
<g id="node13" class="node">
<title>httpis</title>
<ellipse fill="none" stroke="black" cx="230.6" cy="-90" rx="30.59" ry="18"/>
<text text-anchor="middle" x="230.6" y="-86.3" font-family="Times,serif" font-size="14.00">httpis</text>
</g>
<!-- TP&#45;Link TL&#45;SG108&#45;&#45;httpis -->
<g id="edge12" class="edge">
<title>TP&#45;Link TL&#45;SG108&#45;&#45;httpis</title>
<path fill="none" stroke="black" d="M623.95,-151.12C523.22,-135.72 332.83,-106.63 259.97,-95.49"/>
</g>
<!-- postpi -->
<g id="node18" class="node">
<title>postpi</title>
<ellipse fill="none" stroke="black" cx="512.6" cy="-90" rx="32.49" ry="18"/>
<text text-anchor="middle" x="512.6" y="-86.3" font-family="Times,serif" font-size="14.00">postpi</text>
</g>
<!-- TP&#45;Link TL&#45;SG108&#45;&#45;postpi -->
<g id="edge17" class="edge">
<title>TP&#45;Link TL&#45;SG108&#45;&#45;postpi</title>
<path fill="none" stroke="black" d="M650.84,-145.98C616.9,-132.49 567.97,-113.02 538.34,-101.24"/>
</g>
<!-- optiplex3020 -->
<g id="node21" class="node">
<title>optiplex3020</title>
<ellipse fill="none" stroke="black" cx="722.6" cy="-90" rx="57.39" ry="18"/>
<text text-anchor="middle" x="722.6" y="-86.3" font-family="Times,serif" font-size="14.00">optiplex3020</text>
</g>
<!-- TP&#45;Link TL&#45;SG108&#45;&#45;optiplex3020 -->
<g id="edge20" class="edge">
<title>TP&#45;Link TL&#45;SG108&#45;&#45;optiplex3020</title>
<path fill="none" stroke="black" d="M696.83,-144.05C702.09,-133.21 708.91,-119.18 714.21,-108.28"/>
</g>
<!-- httpd -->
<g id="node14" class="node">
<title>httpd</title>
<ellipse fill="none" stroke="black" cx="28.6" cy="-18" rx="28.7" ry="18"/>
<text text-anchor="middle" x="28.6" y="-14.3" font-family="Times,serif" font-size="14.00">httpd</text>
</g>
<!-- httpis&#45;&#45;httpd -->
<g id="edge13" class="edge">
<title>httpis&#45;&#45;httpd</title>
<path fill="none" stroke="black" d="M203.68,-81.43C170.73,-71.92 113.41,-54.59 65.6,-36 60.72,-34.1 55.57,-31.88 50.72,-29.69"/>
</g>
<!-- redirector -->
<g id="node15" class="node">
<title>redirector</title>
<ellipse fill="none" stroke="black" cx="119.6" cy="-18" rx="44.69" ry="18"/>
<text text-anchor="middle" x="119.6" y="-14.3" font-family="Times,serif" font-size="14.00">redirector</text>
</g>
<!-- httpis&#45;&#45;redirector -->
<g id="edge14" class="edge">
<title>httpis&#45;&#45;redirector</title>
<path fill="none" stroke="black" d="M210.5,-76.32C191.38,-64.27 162.64,-46.15 142.62,-33.52"/>
</g>
<!-- pygopherd -->
<g id="node16" class="node">
<title>pygopherd</title>
<ellipse fill="none" stroke="black" cx="230.6" cy="-18" rx="48.19" ry="18"/>
<text text-anchor="middle" x="230.6" y="-14.3" font-family="Times,serif" font-size="14.00">pygopherd</text>
</g>
<!-- httpis&#45;&#45;pygopherd -->
<g id="edge15" class="edge">
<title>httpis&#45;&#45;pygopherd</title>
<path fill="none" stroke="black" d="M230.6,-71.7C230.6,-60.85 230.6,-46.92 230.6,-36.1"/>
</g>
<!-- dyndns -->
<g id="node17" class="node">
<title>dyndns</title>
<ellipse fill="none" stroke="black" cx="332.6" cy="-18" rx="36.29" ry="18"/>
<text text-anchor="middle" x="332.6" y="-14.3" font-family="Times,serif" font-size="14.00">dyndns</text>
</g>
<!-- httpis&#45;&#45;dyndns -->
<g id="edge16" class="edge">
<title>httpis&#45;&#45;dyndns</title>
<path fill="none" stroke="black" d="M249.78,-75.83C267.56,-63.64 293.92,-45.55 312.1,-33.07"/>
</g>
<!-- postfix -->
<g id="node19" class="node">
<title>postfix</title>
<ellipse fill="none" stroke="black" cx="421.6" cy="-18" rx="35.19" ry="18"/>
<text text-anchor="middle" x="421.6" y="-14.3" font-family="Times,serif" font-size="14.00">postfix</text>
</g>
<!-- postpi&#45;&#45;postfix -->
<g id="edge18" class="edge">
<title>postpi&#45;&#45;postfix</title>
<path fill="none" stroke="black" d="M494.18,-74.83C478.5,-62.77 456.06,-45.51 440.3,-33.38"/>
</g>
<!-- dovecot -->
<g id="node20" class="node">
<title>dovecot</title>
<ellipse fill="none" stroke="black" cx="512.6" cy="-18" rx="38.19" ry="18"/>
<text text-anchor="middle" x="512.6" y="-14.3" font-family="Times,serif" font-size="14.00">dovecot</text>
</g>
<!-- postpi&#45;&#45;dovecot -->
<g id="edge19" class="edge">
<title>postpi&#45;&#45;dovecot</title>
<path fill="none" stroke="black" d="M512.6,-71.7C512.6,-60.85 512.6,-46.92 512.6,-36.1"/>
</g>
<!-- bucket -->
<g id="node22" class="node">
<title>bucket</title>
<ellipse fill="none" stroke="black" cx="603.6" cy="-18" rx="34.39" ry="18"/>
<text text-anchor="middle" x="603.6" y="-14.3" font-family="Times,serif" font-size="14.00">bucket</text>
</g>
<!-- optiplex3020&#45;&#45;bucket -->
<g id="edge21" class="edge">
<title>optiplex3020&#45;&#45;bucket</title>
<path fill="none" stroke="black" d="M696.78,-73.81C675.59,-61.35 645.9,-43.88 625.77,-32.04"/>
</g>
<!-- tor&#45;proxy -->
<g id="node23" class="node">
<title>tor&#45;proxy</title>
<ellipse fill="none" stroke="black" cx="700.6" cy="-18" rx="44.39" ry="18"/>
<text text-anchor="middle" x="700.6" y="-14.3" font-family="Times,serif" font-size="14.00">tor&#45;proxy</text>
</g>
<!-- optiplex3020&#45;&#45;tor&#45;proxy -->
<g id="edge22" class="edge">
<title>optiplex3020&#45;&#45;tor&#45;proxy</title>
<path fill="none" stroke="black" d="M717.27,-72.05C713.86,-61.21 709.45,-47.18 706.03,-36.28"/>
</g>
<!-- aggregamus -->
<g id="node24" class="node">
<title>aggregamus</title>
<ellipse fill="none" stroke="black" cx="816.6" cy="-18" rx="53.89" ry="18"/>
<text text-anchor="middle" x="816.6" y="-14.3" font-family="Times,serif" font-size="14.00">aggregamus</text>
</g>
<!-- optiplex3020&#45;&#45;aggregamus -->
<g id="edge23" class="edge">
<title>optiplex3020&#45;&#45;aggregamus</title>
<path fill="none" stroke="black" d="M743.93,-73.12C759.31,-61.66 779.99,-46.26 795.35,-34.82"/>
</g>
<!-- inspiriererin -->
<g id="node25" class="node">
<title>inspiriererin</title>
<ellipse fill="none" stroke="black" cx="942.6" cy="-18" rx="53.89" ry="18"/>
<text text-anchor="middle" x="942.6" y="-14.3" font-family="Times,serif" font-size="14.00">inspiriererin</text>
</g>
<!-- optiplex3020&#45;&#45;inspiriererin -->
<g id="edge24" class="edge">
<title>optiplex3020&#45;&#45;inspiriererin</title>
<path fill="none" stroke="black" d="M761.42,-76.65C801.88,-63.77 864.86,-43.74 904.9,-31"/>
</g>
<!-- murmur -->
<g id="node26" class="node">
<title>murmur</title>
<ellipse fill="none" stroke="black" cx="1054.6" cy="-18" rx="40.09" ry="18"/>
<text text-anchor="middle" x="1054.6" y="-14.3" font-family="Times,serif" font-size="14.00">murmur</text>
</g>
<!-- optiplex3020&#45;&#45;murmur -->
<g id="edge25" class="edge">
<title>optiplex3020&#45;&#45;murmur</title>
<path fill="none" stroke="black" d="M773.72,-81.77C830.79,-73.16 925.64,-57.23 1005.6,-36 1011.86,-34.34 1018.48,-32.26 1024.76,-30.14"/>
</g>
<!-- sophia -->
<g id="node28" class="node">
<title>sophia</title>
<ellipse fill="none" stroke="black" cx="1245.6" cy="-306" rx="33.6" ry="18"/>
<text text-anchor="middle" x="1245.6" y="-302.3" font-family="Times,serif" font-size="14.00">sophia</text>
</g>
<!-- Nuremberg&#45;&#45;sophia -->
<g id="edge27" class="edge">
<title>Nuremberg&#45;&#45;sophia</title>
<path fill="none" stroke="black" d="M1216.8,-360.05C1222.77,-349.05 1230.53,-334.76 1236.48,-323.79"/>
</g>
<!-- pygopherdkek -->
<g id="node29" class="node">
<title>pygopherdkek</title>
<ellipse fill="none" stroke="black" cx="1088.6" cy="-234" rx="48.19" ry="18"/>
<text text-anchor="middle" x="1088.6" y="-230.3" font-family="Times,serif" font-size="14.00">pygopherd</text>
</g>
<!-- sophia&#45;&#45;pygopherdkek -->
<g id="edge29" class="edge">
<title>sophia&#45;&#45;pygopherdkek</title>
<path fill="none" stroke="black" d="M1220.37,-293.75C1192.55,-281.35 1147.82,-261.4 1118.31,-248.25"/>
</g>
<!-- redirectorkek -->
<g id="node30" class="node">
<title>redirectorkek</title>
<ellipse fill="none" stroke="black" cx="1199.6" cy="-234" rx="44.69" ry="18"/>
<text text-anchor="middle" x="1199.6" y="-230.3" font-family="Times,serif" font-size="14.00">redirector</text>
</g>
<!-- sophia&#45;&#45;redirectorkek -->
<g id="edge30" class="edge">
<title>sophia&#45;&#45;redirectorkek</title>
<path fill="none" stroke="black" d="M1234.93,-288.76C1227.6,-277.62 1217.91,-262.87 1210.53,-251.63"/>
</g>
<!-- nginx -->
<g id="node31" class="node">
<title>nginx</title>
<ellipse fill="none" stroke="black" cx="1292.6" cy="-234" rx="30.59" ry="18"/>
<text text-anchor="middle" x="1292.6" y="-230.3" font-family="Times,serif" font-size="14.00">nginx</text>
</g>
<!-- sophia&#45;&#45;nginx -->
<g id="edge28" class="edge">
<title>sophia&#45;&#45;nginx</title>
<path fill="none" stroke="black" d="M1256.5,-288.76C1264.09,-277.46 1274.18,-262.44 1281.76,-251.15"/>
</g>
<!-- jasmin -->
<g id="node32" class="node">
<title>jasmin</title>
<ellipse fill="none" stroke="black" cx="1375.6" cy="-234" rx="34.39" ry="18"/>
<text text-anchor="middle" x="1375.6" y="-230.3" font-family="Times,serif" font-size="14.00">jasmin</text>
</g>
<!-- sophia&#45;&#45;jasmin -->
<g id="edge31" class="edge">
<title>sophia&#45;&#45;jasmin</title>
<path fill="none" stroke="black" d="M1268.54,-292.65C1292.16,-279.93 1328.75,-260.22 1352.45,-247.47"/>
</g>
<!-- hanna -->
<g id="node33" class="node">
<title>hanna</title>
<ellipse fill="none" stroke="black" cx="1459.6" cy="-234" rx="31.7" ry="18"/>
<text text-anchor="middle" x="1459.6" y="-230.3" font-family="Times,serif" font-size="14.00">hanna</text>
</g>
<!-- sophia&#45;&#45;hanna -->
<g id="edge32" class="edge">
<title>sophia&#45;&#45;hanna</title>
<path fill="none" stroke="black" d="M1274.96,-296.93C1309.6,-287.2 1368.79,-269.91 1418.6,-252 1423.96,-250.07 1429.65,-247.84 1435.03,-245.63"/>
</g>
</g>
</svg>
