<?xml version="1.0" encoding="UTF-8" standalone="no"?>
<?xml-stylesheet href="unifont.css" type="text/css"?>
<!DOCTYPE svg PUBLIC "-//W3C//DTD SVG 1.1//EN"
 "http://www.w3.org/Graphics/SVG/1.1/DTD/svg11.dtd">
<!-- Generated by graphviz version 7.1.0 (20230121.1956)
 -->
<!-- Pages: 1 -->
<svg width="1567pt" height="734pt"
 viewBox="0.00 0.00 1566.64 734.00" xmlns="http://www.w3.org/2000/svg" xmlns:xlink="http://www.w3.org/1999/xlink">
<g id="graph0" class="graph" transform="scale(1 1) rotate(0) translate(4 730)">
<polygon fill="white" stroke="none" points="-4,4 -4,-730 1562.64,-730 1562.64,4 -4,4"/>
<!-- FB 7530 AX -->
<g id="node1" class="node">
<title>FB 7530 AX</title>
<ellipse fill="none" stroke="black" cx="695.05" cy="-444" rx="54.69" ry="18"/>
<text text-anchor="middle" x="695.05" y="-440.3" font-family="Unifont" font-size="14.00">FB 7530 AX</text>
</g>
<!-- rotmain -->
<g id="node2" class="node">
<title>rotmain</title>
<ellipse fill="none" stroke="black" cx="572.05" cy="-297" rx="41.69" ry="18"/>
<text text-anchor="middle" x="572.05" y="-293.3" font-family="Unifont" font-size="14.00">rotmain</text>
</g>
<!-- FB 7530 AX&#45;&#45;rotmain -->
<g id="edge1" class="edge">
<title>FB 7530 AX&#45;&#45;rotmain</title>
<path fill="none" stroke="black" d="M679.58,-426.42C674.27,-420.64 668.34,-414.09 663.05,-408 634.58,-375.27 602.51,-335.89 585.06,-314.24"/>
<text text-anchor="middle" x="677.05" y="-396.8" font-family="Unifont" font-size="14.00">21</text>
<text text-anchor="middle" x="677.05" y="-381.8" font-family="Unifont" font-size="14.00">548</text>
<text text-anchor="middle" x="677.05" y="-366.8" font-family="Unifont" font-size="14.00">873</text>
<text text-anchor="middle" x="677.05" y="-351.8" font-family="Unifont" font-size="14.00">2049</text>
<text text-anchor="middle" x="677.05" y="-336.8" font-family="Unifont" font-size="14.00">…</text>
</g>
<!-- optiplex3020 -->
<g id="node5" class="node">
<title>optiplex3020</title>
<ellipse fill="none" stroke="black" cx="695.05" cy="-297" rx="63.89" ry="18"/>
<text text-anchor="middle" x="695.05" y="-293.3" font-family="Unifont" font-size="14.00">optiplex3020</text>
</g>
<!-- FB 7530 AX&#45;&#45;optiplex3020 -->
<g id="edge4" class="edge">
<title>FB 7530 AX&#45;&#45;optiplex3020</title>
<path fill="none" stroke="black" d="M695.05,-425.51C695.05,-397.49 695.05,-342.87 695.05,-315.1"/>
<text text-anchor="middle" x="719.05" y="-389.3" font-family="Unifont" font-size="14.00">993,143</text>
<text text-anchor="middle" x="719.05" y="-374.3" font-family="Unifont" font-size="14.00">587,25</text>
<text text-anchor="middle" x="719.05" y="-359.3" font-family="Unifont" font-size="14.00">443,80</text>
<text text-anchor="middle" x="719.05" y="-344.3" font-family="Unifont" font-size="14.00">70</text>
</g>
<!-- Big Bad Internet™ -->
<g id="node3" class="node">
<title>Big Bad Internet™</title>
<ellipse fill="none" stroke="black" cx="1061.05" cy="-708" rx="85.29" ry="18"/>
<text text-anchor="middle" x="1061.05" y="-704.3" font-family="Unifont" font-size="14.00">Big Bad Internet™</text>
</g>
<!-- Rosenhof -->
<g id="node4" class="node">
<title>Rosenhof</title>
<ellipse fill="none" stroke="black" cx="1005.05" cy="-576" rx="46.29" ry="18"/>
<text text-anchor="middle" x="1005.05" y="-572.3" font-family="Unifont" font-size="14.00">Rosenhof</text>
</g>
<!-- Big Bad Internet™&#45;&#45;Rosenhof -->
<g id="edge2" class="edge">
<title>Big Bad Internet™&#45;&#45;Rosenhof</title>
<path fill="none" stroke="black" d="M1053.61,-689.74C1042.84,-664.73 1023.02,-618.73 1012.34,-593.92"/>
<text text-anchor="middle" x="1069.05" y="-660.8" font-family="Unifont" font-size="14.00">993,143</text>
<text text-anchor="middle" x="1069.05" y="-645.8" font-family="Unifont" font-size="14.00">587,25</text>
<text text-anchor="middle" x="1069.05" y="-630.8" font-family="Unifont" font-size="14.00">443,80</text>
<text text-anchor="middle" x="1069.05" y="-615.8" font-family="Unifont" font-size="14.00">70</text>
</g>
<!-- Nuremberg -->
<g id="node19" class="node">
<title>Nuremberg</title>
<ellipse fill="none" stroke="black" cx="1171.05" cy="-576" rx="50.09" ry="18"/>
<text text-anchor="middle" x="1171.05" y="-572.3" font-family="Unifont" font-size="14.00">Nuremberg</text>
</g>
<!-- Big Bad Internet™&#45;&#45;Nuremberg -->
<g id="edge18" class="edge">
<title>Big Bad Internet™&#45;&#45;Nuremberg</title>
<path fill="none" stroke="black" d="M1079.48,-690.02C1085.27,-684.44 1091.58,-678.1 1097.05,-672 1120.49,-645.84 1145.03,-613.1 1159.13,-593.69"/>
<text text-anchor="middle" x="1164.55" y="-653.3" font-family="Unifont" font-size="14.00">8080</text>
<text text-anchor="middle" x="1164.55" y="-638.3" font-family="Unifont" font-size="14.00">443,80</text>
<text text-anchor="middle" x="1164.55" y="-623.3" font-family="Unifont" font-size="14.00">70</text>
</g>
<!-- Rosenhof&#45;&#45;FB 7530 AX -->
<g id="edge3" class="edge">
<title>Rosenhof&#45;&#45;FB 7530 AX</title>
<path fill="none" stroke="black" d="M974.47,-562.18C915.82,-537.58 787.97,-483.97 727.71,-458.7"/>
<text text-anchor="middle" x="938.05" y="-528.8" font-family="Unifont" font-size="14.00">993,143</text>
<text text-anchor="middle" x="938.05" y="-513.8" font-family="Unifont" font-size="14.00">587,25</text>
<text text-anchor="middle" x="938.05" y="-498.8" font-family="Unifont" font-size="14.00">443,80</text>
<text text-anchor="middle" x="938.05" y="-483.8" font-family="Unifont" font-size="14.00">70</text>
</g>
<!-- dockerop -->
<g id="node6" class="node">
<title>dockerop</title>
<ellipse fill="none" stroke="black" cx="226.05" cy="-135" rx="37.09" ry="18"/>
<text text-anchor="middle" x="226.05" y="-131.3" font-family="Unifont" font-size="14.00">docker</text>
</g>
<!-- optiplex3020&#45;&#45;dockerop -->
<g id="edge5" class="edge">
<title>optiplex3020&#45;&#45;dockerop</title>
<path fill="none" stroke="black" d="M649.58,-283.94C640.83,-281.99 631.69,-280.22 623.05,-279 582.29,-273.25 284.44,-287.62 253.05,-261 221.72,-234.44 221.57,-180.99 223.9,-153.38"/>
<text text-anchor="middle" x="300.55" y="-249.8" font-family="Unifont" font-size="14.00">9323</text>
<text text-anchor="middle" x="300.55" y="-234.8" font-family="Unifont" font-size="14.00">9053,9052,9050</text>
<text text-anchor="middle" x="300.55" y="-219.8" font-family="Unifont" font-size="14.00">993,143</text>
<text text-anchor="middle" x="300.55" y="-204.8" font-family="Unifont" font-size="14.00">587,25</text>
<text text-anchor="middle" x="300.55" y="-189.8" font-family="Unifont" font-size="14.00">443,80</text>
<text text-anchor="middle" x="300.55" y="-174.8" font-family="Unifont" font-size="14.00">70</text>
</g>
<!-- bucket -->
<g id="node12" class="node">
<title>bucket</title>
<ellipse fill="none" stroke="black" cx="331.05" cy="-135" rx="37.09" ry="18"/>
<text text-anchor="middle" x="331.05" y="-131.3" font-family="Unifont" font-size="14.00">bucket</text>
</g>
<!-- optiplex3020&#45;&#45;bucket -->
<g id="edge11" class="edge">
<title>optiplex3020&#45;&#45;bucket</title>
<path fill="none" stroke="black" d="M649.14,-284.19C640.51,-282.24 631.54,-280.41 623.05,-279 582.3,-272.24 474.69,-280.07 438.05,-261 390.66,-236.34 355.41,-181.01 339.85,-152.97"/>
<text text-anchor="middle" x="452.05" y="-212.3" font-family="Unifont" font-size="14.00">8022</text>
</g>
<!-- aggregamus -->
<g id="node13" class="node">
<title>aggregamus</title>
<ellipse fill="none" stroke="black" cx="441.05" cy="-135" rx="54.69" ry="18"/>
<text text-anchor="middle" x="441.05" y="-131.3" font-family="Unifont" font-size="14.00">aggregamus</text>
</g>
<!-- optiplex3020&#45;&#45;aggregamus -->
<g id="edge12" class="edge">
<title>optiplex3020&#45;&#45;aggregamus</title>
<path fill="none" stroke="black" d="M646.99,-284.84C618.3,-277.7 585.01,-268.41 572.05,-261 521.57,-232.12 475.63,-179.7 454.04,-152.85"/>
<text text-anchor="middle" x="586.05" y="-212.3" font-family="Unifont" font-size="14.00">8669</text>
</g>
<!-- inspiriererin -->
<g id="node14" class="node">
<title>inspiriererin</title>
<ellipse fill="none" stroke="black" cx="581.05" cy="-135" rx="67.69" ry="18"/>
<text text-anchor="middle" x="581.05" y="-131.3" font-family="Unifont" font-size="14.00">inspiriererin</text>
</g>
<!-- optiplex3020&#45;&#45;inspiriererin -->
<g id="edge13" class="edge">
<title>optiplex3020&#45;&#45;inspiriererin</title>
<path fill="none" stroke="black" d="M678.86,-279.39C673.61,-273.72 667.9,-267.24 663.05,-261 634.54,-224.32 605.81,-177.82 591.1,-153.17"/>
<text text-anchor="middle" x="677.05" y="-212.3" font-family="Unifont" font-size="14.00">8989</text>
</g>
<!-- jana -->
<g id="node15" class="node">
<title>jana</title>
<ellipse fill="none" stroke="black" cx="695.05" cy="-135" rx="28.7" ry="18"/>
<text text-anchor="middle" x="695.05" y="-131.3" font-family="Unifont" font-size="14.00">jana</text>
</g>
<!-- optiplex3020&#45;&#45;jana -->
<g id="edge14" class="edge">
<title>optiplex3020&#45;&#45;jana</title>
<path fill="none" stroke="black" d="M695.05,-278.57C695.05,-247.8 695.05,-184.17 695.05,-153.41"/>
</g>
<!-- murmur -->
<g id="node16" class="node">
<title>murmur</title>
<ellipse fill="none" stroke="black" cx="779.05" cy="-135" rx="37.09" ry="18"/>
<text text-anchor="middle" x="779.05" y="-131.3" font-family="Unifont" font-size="14.00">murmur</text>
</g>
<!-- optiplex3020&#45;&#45;murmur -->
<g id="edge15" class="edge">
<title>optiplex3020&#45;&#45;murmur</title>
<path fill="none" stroke="black" d="M704.04,-278.88C720.29,-247.92 754.36,-183.03 770.37,-152.52"/>
<text text-anchor="middle" x="776.05" y="-212.3" font-family="Unifont" font-size="14.00">64738</text>
</g>
<!-- inventree -->
<g id="node17" class="node">
<title>inventree</title>
<ellipse fill="none" stroke="black" cx="884.05" cy="-135" rx="50.09" ry="18"/>
<text text-anchor="middle" x="884.05" y="-131.3" font-family="Unifont" font-size="14.00">inventree</text>
</g>
<!-- optiplex3020&#45;&#45;inventree -->
<g id="edge16" class="edge">
<title>optiplex3020&#45;&#45;inventree</title>
<path fill="none" stroke="black" d="M745.35,-285.57C762.9,-280.24 781.96,-272.39 797.05,-261 835.87,-231.69 863.83,-179.94 876.49,-153.15"/>
</g>
<!-- backup.timer -->
<g id="node18" class="node">
<title>backup.timer</title>
<ellipse fill="none" stroke="black" cx="1016.05" cy="-135" rx="63.89" ry="18"/>
<text text-anchor="middle" x="1016.05" y="-131.3" font-family="Unifont" font-size="14.00">backup.timer</text>
</g>
<!-- optiplex3020&#45;&#45;backup.timer -->
<g id="edge17" class="edge">
<title>optiplex3020&#45;&#45;backup.timer</title>
<path fill="none" stroke="black" d="M752.08,-288.57C781.41,-283.35 817.16,-274.76 847.05,-261 908.7,-232.61 969.98,-179.49 998.88,-152.56"/>
</g>
<!-- ludwigop -->
<g id="node7" class="node">
<title>ludwigop</title>
<ellipse fill="none" stroke="black" cx="37.05" cy="-18" rx="37.09" ry="18"/>
<text text-anchor="middle" x="37.05" y="-14.3" font-family="Unifont" font-size="14.00">ludwig</text>
</g>
<!-- dockerop&#45;&#45;ludwigop -->
<g id="edge8" class="edge">
<title>dockerop&#45;&#45;ludwigop</title>
<path fill="none" stroke="black" d="M196.05,-124.09C179.08,-117.93 157.78,-109.23 140.05,-99 107.3,-80.1 73.44,-51.81 53.86,-34.43"/>
<text text-anchor="middle" x="147.05" y="-72.8" font-family="Unifont" font-size="14.00">70</text>
</g>
<!-- nginxop -->
<g id="node8" class="node">
<title>nginxop</title>
<ellipse fill="none" stroke="black" cx="125.05" cy="-18" rx="32.49" ry="18"/>
<text text-anchor="middle" x="125.05" y="-14.3" font-family="Unifont" font-size="14.00">nginx</text>
</g>
<!-- dockerop&#45;&#45;nginxop -->
<g id="edge7" class="edge">
<title>dockerop&#45;&#45;nginxop</title>
<path fill="none" stroke="black" d="M212,-118.01C192.6,-95.92 157.82,-56.31 138.65,-34.49"/>
<text text-anchor="middle" x="204.55" y="-80.3" font-family="Unifont" font-size="14.00">443</text>
<text text-anchor="middle" x="204.55" y="-65.3" font-family="Unifont" font-size="14.00">80</text>
</g>
<!-- tor&#45;proxy -->
<g id="node9" class="node">
<title>tor&#45;proxy</title>
<ellipse fill="none" stroke="black" cx="226.05" cy="-18" rx="50.09" ry="18"/>
<text text-anchor="middle" x="226.05" y="-14.3" font-family="Unifont" font-size="14.00">tor&#45;proxy</text>
</g>
<!-- dockerop&#45;&#45;tor&#45;proxy -->
<g id="edge6" class="edge">
<title>dockerop&#45;&#45;tor&#45;proxy</title>
<path fill="none" stroke="black" d="M226.05,-116.53C226.05,-94.79 226.05,-57.89 226.05,-36.25"/>
<text text-anchor="middle" x="240.05" y="-87.8" font-family="Unifont" font-size="14.00">9053</text>
<text text-anchor="middle" x="240.05" y="-72.8" font-family="Unifont" font-size="14.00">9052</text>
<text text-anchor="middle" x="240.05" y="-57.8" font-family="Unifont" font-size="14.00">9050</text>
</g>
<!-- simon -->
<g id="node10" class="node">
<title>simon</title>
<ellipse fill="none" stroke="black" cx="327.05" cy="-18" rx="32.49" ry="18"/>
<text text-anchor="middle" x="327.05" y="-14.3" font-family="Unifont" font-size="14.00">simon</text>
</g>
<!-- dockerop&#45;&#45;simon -->
<g id="edge9" class="edge">
<title>dockerop&#45;&#45;simon</title>
<path fill="none" stroke="black" d="M240.8,-118.06C246.26,-112.11 252.47,-105.28 258.05,-99 277.65,-76.92 299.89,-50.97 313.69,-34.75"/>
</g>
<!-- ali -->
<g id="node11" class="node">
<title>ali</title>
<ellipse fill="none" stroke="black" cx="404.05" cy="-18" rx="27" ry="18"/>
<text text-anchor="middle" x="404.05" y="-14.3" font-family="Unifont" font-size="14.00">ali</text>
</g>
<!-- dockerop&#45;&#45;ali -->
<g id="edge10" class="edge">
<title>dockerop&#45;&#45;ali</title>
<path fill="none" stroke="black" d="M251.14,-121.4C263.38,-115.03 278.19,-106.97 291.05,-99 326.18,-77.21 365.12,-48.59 386.88,-32.15"/>
<text text-anchor="middle" x="381.05" y="-80.3" font-family="Unifont" font-size="14.00">993,143</text>
<text text-anchor="middle" x="381.05" y="-65.3" font-family="Unifont" font-size="14.00">587,25</text>
</g>
<!-- sophia -->
<g id="node20" class="node">
<title>sophia</title>
<ellipse fill="none" stroke="black" cx="1223.05" cy="-444" rx="37.09" ry="18"/>
<text text-anchor="middle" x="1223.05" y="-440.3" font-family="Unifont" font-size="14.00">sophia</text>
</g>
<!-- Nuremberg&#45;&#45;sophia -->
<g id="edge19" class="edge">
<title>Nuremberg&#45;&#45;sophia</title>
<path fill="none" stroke="black" d="M1177.95,-557.74C1187.95,-532.73 1206.35,-486.73 1216.28,-461.92"/>
<text text-anchor="middle" x="1228.55" y="-521.3" font-family="Unifont" font-size="14.00">8080</text>
<text text-anchor="middle" x="1228.55" y="-506.3" font-family="Unifont" font-size="14.00">443,80</text>
<text text-anchor="middle" x="1228.55" y="-491.3" font-family="Unifont" font-size="14.00">70</text>
</g>
<!-- redirectorkek -->
<g id="node21" class="node">
<title>redirectorkek</title>
<ellipse fill="none" stroke="black" cx="1025.05" cy="-297" rx="54.69" ry="18"/>
<text text-anchor="middle" x="1025.05" y="-293.3" font-family="Unifont" font-size="14.00">redirector</text>
</g>
<!-- sophia&#45;&#45;redirectorkek -->
<g id="edge24" class="edge">
<title>sophia&#45;&#45;redirectorkek</title>
<path fill="none" stroke="black" d="M1191.48,-434.36C1173.46,-428.56 1150.96,-419.81 1133.05,-408 1093.05,-381.64 1056.18,-338.36 1037.62,-314.71"/>
<text text-anchor="middle" x="1140.05" y="-366.8" font-family="Unifont" font-size="14.00">80</text>
</g>
<!-- dockersophia -->
<g id="node22" class="node">
<title>dockersophia</title>
<ellipse fill="none" stroke="black" cx="1135.05" cy="-297" rx="37.09" ry="18"/>
<text text-anchor="middle" x="1135.05" y="-293.3" font-family="Unifont" font-size="14.00">docker</text>
</g>
<!-- sophia&#45;&#45;dockersophia -->
<g id="edge21" class="edge">
<title>sophia&#45;&#45;dockersophia</title>
<path fill="none" stroke="black" d="M1207.1,-427.39C1201.64,-421.59 1195.73,-414.77 1191.05,-408 1169.69,-377.17 1151.37,-337.09 1141.9,-314.81"/>
<text text-anchor="middle" x="1205.05" y="-381.8" font-family="Unifont" font-size="14.00">9323</text>
<text text-anchor="middle" x="1205.05" y="-366.8" font-family="Unifont" font-size="14.00">8942</text>
<text text-anchor="middle" x="1205.05" y="-351.8" font-family="Unifont" font-size="14.00">70</text>
</g>
<!-- nginxsophia -->
<g id="node24" class="node">
<title>nginxsophia</title>
<ellipse fill="none" stroke="black" cx="1223.05" cy="-297" rx="32.49" ry="18"/>
<text text-anchor="middle" x="1223.05" y="-293.3" font-family="Unifont" font-size="14.00">nginx</text>
</g>
<!-- sophia&#45;&#45;nginxsophia -->
<g id="edge20" class="edge">
<title>sophia&#45;&#45;nginxsophia</title>
<path fill="none" stroke="black" d="M1223.05,-425.51C1223.05,-397.49 1223.05,-342.87 1223.05,-315.1"/>
<text text-anchor="middle" x="1237.05" y="-374.3" font-family="Unifont" font-size="14.00">8169</text>
<text text-anchor="middle" x="1237.05" y="-359.3" font-family="Unifont" font-size="14.00">443</text>
</g>
<!-- jasmin -->
<g id="node26" class="node">
<title>jasmin</title>
<ellipse fill="none" stroke="black" cx="1311.05" cy="-297" rx="37.09" ry="18"/>
<text text-anchor="middle" x="1311.05" y="-293.3" font-family="Unifont" font-size="14.00">jasmin</text>
</g>
<!-- sophia&#45;&#45;jasmin -->
<g id="edge25" class="edge">
<title>sophia&#45;&#45;jasmin</title>
<path fill="none" stroke="black" d="M1238.99,-427.39C1244.45,-421.59 1250.36,-414.77 1255.05,-408 1276.4,-377.17 1294.73,-337.09 1304.19,-314.81"/>
<text text-anchor="middle" x="1310.05" y="-366.8" font-family="Unifont" font-size="14.00">8099</text>
</g>
<!-- erwin -->
<g id="node27" class="node">
<title>erwin</title>
<ellipse fill="none" stroke="black" cx="1399.05" cy="-297" rx="32.49" ry="18"/>
<text text-anchor="middle" x="1399.05" y="-293.3" font-family="Unifont" font-size="14.00">erwin</text>
</g>
<!-- sophia&#45;&#45;erwin -->
<g id="edge26" class="edge">
<title>sophia&#45;&#45;erwin</title>
<path fill="none" stroke="black" d="M1258,-437.48C1279.89,-432.63 1307.7,-423.78 1328.05,-408 1360.2,-383.06 1382.1,-339.22 1392.37,-315.1"/>
<text text-anchor="middle" x="1398.05" y="-366.8" font-family="Unifont" font-size="14.00">8080</text>
</g>
<!-- deployment -->
<g id="node28" class="node">
<title>deployment</title>
<ellipse fill="none" stroke="black" cx="1504.05" cy="-297" rx="54.69" ry="18"/>
<text text-anchor="middle" x="1504.05" y="-293.3" font-family="Unifont" font-size="14.00">deployment</text>
</g>
<!-- sophia&#45;&#45;deployment -->
<g id="edge27" class="edge">
<title>sophia&#45;&#45;deployment</title>
<path fill="none" stroke="black" d="M1260.58,-443.79C1301.56,-443 1367.79,-436.78 1416.05,-408 1454.07,-385.33 1482.31,-339.73 1495.6,-314.95"/>
</g>
<!-- ludwigsophia -->
<g id="node23" class="node">
<title>ludwigsophia</title>
<ellipse fill="none" stroke="black" cx="1135.05" cy="-135" rx="37.09" ry="18"/>
<text text-anchor="middle" x="1135.05" y="-131.3" font-family="Unifont" font-size="14.00">ludwig</text>
</g>
<!-- dockersophia&#45;&#45;ludwigsophia -->
<g id="edge22" class="edge">
<title>dockersophia&#45;&#45;ludwigsophia</title>
<path fill="none" stroke="black" d="M1135.05,-278.57C1135.05,-247.8 1135.05,-184.17 1135.05,-153.41"/>
<text text-anchor="middle" x="1142.05" y="-212.3" font-family="Unifont" font-size="14.00">70</text>
</g>
<!-- viktor2 -->
<g id="node25" class="node">
<title>viktor2</title>
<ellipse fill="none" stroke="black" cx="1232.05" cy="-135" rx="41.69" ry="18"/>
<text text-anchor="middle" x="1232.05" y="-131.3" font-family="Unifont" font-size="14.00">viktor2</text>
</g>
<!-- dockersophia&#45;&#45;viktor2 -->
<g id="edge23" class="edge">
<title>dockersophia&#45;&#45;viktor2</title>
<path fill="none" stroke="black" d="M1145.06,-279.48C1163.65,-248.82 1203.28,-183.44 1221.94,-152.67"/>
<text text-anchor="middle" x="1223.05" y="-212.3" font-family="Unifont" font-size="14.00">8942</text>
</g>
</g>
</svg>
