<?xml version="1.0" encoding="UTF-8" standalone="no"?>
<?xml-stylesheet href="unifont.css" type="text/css"?>
<!DOCTYPE svg PUBLIC "-//W3C//DTD SVG 1.1//EN"
 "http://www.w3.org/Graphics/SVG/1.1/DTD/svg11.dtd">
<!-- Generated by graphviz version 5.0.0 (20220707.1540)
 -->
<!-- Pages: 1 -->
<svg width="1374pt" height="734pt"
 viewBox="0.00 0.00 1373.64 734.00" xmlns="http://www.w3.org/2000/svg" xmlns:xlink="http://www.w3.org/1999/xlink">
<g id="graph0" class="graph" transform="scale(1 1) rotate(0) translate(4 730)">
<polygon fill="white" stroke="transparent" points="-4,4 -4,-730 1369.64,-730 1369.64,4 -4,4"/>
<!-- FB 7530 AX -->
<g id="node1" class="node">
<title>FB 7530 AX</title>
<ellipse fill="none" stroke="black" cx="581.05" cy="-444" rx="54.69" ry="18"/>
<text text-anchor="middle" x="581.05" y="-440.3" font-family="Unifont" font-size="14.00">FB 7530 AX</text>
</g>
<!-- rotmain -->
<g id="node2" class="node">
<title>rotmain</title>
<ellipse fill="none" stroke="black" cx="458.05" cy="-297" rx="41.69" ry="18"/>
<text text-anchor="middle" x="458.05" y="-293.3" font-family="Unifont" font-size="14.00">rotmain</text>
</g>
<!-- FB 7530 AX&#45;&#45;rotmain -->
<g id="edge1" class="edge">
<title>FB 7530 AX&#45;&#45;rotmain</title>
<path fill="none" stroke="black" d="M565.58,-426.42C560.27,-420.64 554.34,-414.09 549.05,-408 520.58,-375.27 488.51,-335.89 471.06,-314.24"/>
<text text-anchor="middle" x="563.05" y="-396.8" font-family="Unifont" font-size="14.00">21</text>
<text text-anchor="middle" x="563.05" y="-381.8" font-family="Unifont" font-size="14.00">548</text>
<text text-anchor="middle" x="563.05" y="-366.8" font-family="Unifont" font-size="14.00">873</text>
<text text-anchor="middle" x="563.05" y="-351.8" font-family="Unifont" font-size="14.00">2049</text>
<text text-anchor="middle" x="563.05" y="-336.8" font-family="Unifont" font-size="14.00">…</text>
</g>
<!-- optiplex3020 -->
<g id="node5" class="node">
<title>optiplex3020</title>
<ellipse fill="none" stroke="black" cx="581.05" cy="-297" rx="63.89" ry="18"/>
<text text-anchor="middle" x="581.05" y="-293.3" font-family="Unifont" font-size="14.00">optiplex3020</text>
</g>
<!-- FB 7530 AX&#45;&#45;optiplex3020 -->
<g id="edge4" class="edge">
<title>FB 7530 AX&#45;&#45;optiplex3020</title>
<path fill="none" stroke="black" d="M581.05,-425.8C581.05,-397.89 581.05,-343.07 581.05,-315.18"/>
<text text-anchor="middle" x="605.05" y="-389.3" font-family="Unifont" font-size="14.00">993,143</text>
<text text-anchor="middle" x="605.05" y="-374.3" font-family="Unifont" font-size="14.00">587,25</text>
<text text-anchor="middle" x="605.05" y="-359.3" font-family="Unifont" font-size="14.00">443,80</text>
<text text-anchor="middle" x="605.05" y="-344.3" font-family="Unifont" font-size="14.00">70</text>
</g>
<!-- Big Bad Internet™ -->
<g id="node3" class="node">
<title>Big Bad Internet™</title>
<ellipse fill="none" stroke="black" cx="888.05" cy="-708" rx="85.29" ry="18"/>
<text text-anchor="middle" x="888.05" y="-704.3" font-family="Unifont" font-size="14.00">Big Bad Internet™</text>
</g>
<!-- Rosenhof -->
<g id="node4" class="node">
<title>Rosenhof</title>
<ellipse fill="none" stroke="black" cx="832.05" cy="-576" rx="46.29" ry="18"/>
<text text-anchor="middle" x="832.05" y="-572.3" font-family="Unifont" font-size="14.00">Rosenhof</text>
</g>
<!-- Big Bad Internet™&#45;&#45;Rosenhof -->
<g id="edge2" class="edge">
<title>Big Bad Internet™&#45;&#45;Rosenhof</title>
<path fill="none" stroke="black" d="M880.73,-690C869.99,-665.09 850.1,-618.92 839.37,-594"/>
<text text-anchor="middle" x="896.05" y="-660.8" font-family="Unifont" font-size="14.00">993,143</text>
<text text-anchor="middle" x="896.05" y="-645.8" font-family="Unifont" font-size="14.00">587,25</text>
<text text-anchor="middle" x="896.05" y="-630.8" font-family="Unifont" font-size="14.00">443,80</text>
<text text-anchor="middle" x="896.05" y="-615.8" font-family="Unifont" font-size="14.00">70</text>
</g>
<!-- Nuremberg -->
<g id="node17" class="node">
<title>Nuremberg</title>
<ellipse fill="none" stroke="black" cx="988.05" cy="-576" rx="50.09" ry="18"/>
<text text-anchor="middle" x="988.05" y="-572.3" font-family="Unifont" font-size="14.00">Nuremberg</text>
</g>
<!-- Big Bad Internet™&#45;&#45;Nuremberg -->
<g id="edge16" class="edge">
<title>Big Bad Internet™&#45;&#45;Nuremberg</title>
<path fill="none" stroke="black" d="M906.74,-690.24C912.54,-684.68 918.79,-678.29 924.05,-672 945.47,-646.36 966.34,-613.46 978.15,-593.87"/>
<text text-anchor="middle" x="987.55" y="-653.3" font-family="Unifont" font-size="14.00">8080</text>
<text text-anchor="middle" x="987.55" y="-638.3" font-family="Unifont" font-size="14.00">443,80</text>
<text text-anchor="middle" x="987.55" y="-623.3" font-family="Unifont" font-size="14.00">70</text>
</g>
<!-- Rosenhof&#45;&#45;FB 7530 AX -->
<g id="edge3" class="edge">
<title>Rosenhof&#45;&#45;FB 7530 AX</title>
<path fill="none" stroke="black" d="M805.19,-561.09C757.38,-536.33 657.99,-484.85 609.25,-459.6"/>
<text text-anchor="middle" x="782.05" y="-528.8" font-family="Unifont" font-size="14.00">993,143</text>
<text text-anchor="middle" x="782.05" y="-513.8" font-family="Unifont" font-size="14.00">587,25</text>
<text text-anchor="middle" x="782.05" y="-498.8" font-family="Unifont" font-size="14.00">443,80</text>
<text text-anchor="middle" x="782.05" y="-483.8" font-family="Unifont" font-size="14.00">70</text>
</g>
<!-- dockerop -->
<g id="node6" class="node">
<title>dockerop</title>
<ellipse fill="none" stroke="black" cx="226.05" cy="-135" rx="37.09" ry="18"/>
<text text-anchor="middle" x="226.05" y="-131.3" font-family="Unifont" font-size="14.00">docker</text>
</g>
<!-- optiplex3020&#45;&#45;dockerop -->
<g id="edge5" class="edge">
<title>optiplex3020&#45;&#45;dockerop</title>
<path fill="none" stroke="black" d="M535.94,-284.18C527.08,-282.19 517.81,-280.34 509.05,-279 481.08,-274.74 276.56,-279.37 255.05,-261 223.71,-234.24 222.52,-180.88 224.27,-153.34"/>
<text text-anchor="middle" x="302.55" y="-249.8" font-family="Unifont" font-size="14.00">9323</text>
<text text-anchor="middle" x="302.55" y="-234.8" font-family="Unifont" font-size="14.00">9053,9052,9050</text>
<text text-anchor="middle" x="302.55" y="-219.8" font-family="Unifont" font-size="14.00">993,143</text>
<text text-anchor="middle" x="302.55" y="-204.8" font-family="Unifont" font-size="14.00">587,25</text>
<text text-anchor="middle" x="302.55" y="-189.8" font-family="Unifont" font-size="14.00">443,80</text>
<text text-anchor="middle" x="302.55" y="-174.8" font-family="Unifont" font-size="14.00">70</text>
</g>
<!-- bucket -->
<g id="node12" class="node">
<title>bucket</title>
<ellipse fill="none" stroke="black" cx="331.05" cy="-135" rx="37.09" ry="18"/>
<text text-anchor="middle" x="331.05" y="-131.3" font-family="Unifont" font-size="14.00">bucket</text>
</g>
<!-- optiplex3020&#45;&#45;bucket -->
<g id="edge11" class="edge">
<title>optiplex3020&#45;&#45;bucket</title>
<path fill="none" stroke="black" d="M534.27,-284.74C494.04,-275 442.15,-262.28 440.05,-261 394.35,-233.08 357.51,-179.74 340.79,-152.66"/>
<text text-anchor="middle" x="454.05" y="-212.3" font-family="Unifont" font-size="14.00">8022</text>
</g>
<!-- aggregamus -->
<g id="node13" class="node">
<title>aggregamus</title>
<ellipse fill="none" stroke="black" cx="441.05" cy="-135" rx="54.69" ry="18"/>
<text text-anchor="middle" x="441.05" y="-131.3" font-family="Unifont" font-size="14.00">aggregamus</text>
</g>
<!-- optiplex3020&#45;&#45;aggregamus -->
<g id="edge12" class="edge">
<title>optiplex3020&#45;&#45;aggregamus</title>
<path fill="none" stroke="black" d="M565.65,-279.35C560.35,-273.57 554.41,-267.03 549.05,-261 514.94,-222.63 475.73,-176.8 455.22,-152.71"/>
<text text-anchor="middle" x="563.05" y="-212.3" font-family="Unifont" font-size="14.00">8669</text>
</g>
<!-- inspiriererin -->
<g id="node14" class="node">
<title>inspiriererin</title>
<ellipse fill="none" stroke="black" cx="581.05" cy="-135" rx="67.69" ry="18"/>
<text text-anchor="middle" x="581.05" y="-131.3" font-family="Unifont" font-size="14.00">inspiriererin</text>
</g>
<!-- optiplex3020&#45;&#45;inspiriererin -->
<g id="edge13" class="edge">
<title>optiplex3020&#45;&#45;inspiriererin</title>
<path fill="none" stroke="black" d="M581.05,-278.88C581.05,-248.24 581.05,-184.38 581.05,-153.48"/>
<text text-anchor="middle" x="595.05" y="-212.3" font-family="Unifont" font-size="14.00">8989</text>
</g>
<!-- murmur -->
<g id="node15" class="node">
<title>murmur</title>
<ellipse fill="none" stroke="black" cx="704.05" cy="-135" rx="37.09" ry="18"/>
<text text-anchor="middle" x="704.05" y="-131.3" font-family="Unifont" font-size="14.00">murmur</text>
</g>
<!-- optiplex3020&#45;&#45;murmur -->
<g id="edge14" class="edge">
<title>optiplex3020&#45;&#45;murmur</title>
<path fill="none" stroke="black" d="M597.06,-279.25C602.3,-273.57 608.05,-267.12 613.05,-261 643.78,-223.37 676.55,-176.47 693.11,-152.21"/>
<text text-anchor="middle" x="696.05" y="-212.3" font-family="Unifont" font-size="14.00">64738</text>
</g>
<!-- backup.timer -->
<g id="node16" class="node">
<title>backup.timer</title>
<ellipse fill="none" stroke="black" cx="823.05" cy="-135" rx="63.89" ry="18"/>
<text text-anchor="middle" x="823.05" y="-131.3" font-family="Unifont" font-size="14.00">backup.timer</text>
</g>
<!-- optiplex3020&#45;&#45;backup.timer -->
<g id="edge15" class="edge">
<title>optiplex3020&#45;&#45;backup.timer</title>
<path fill="none" stroke="black" d="M638.75,-289.2C664.21,-284.24 693.6,-275.69 717.05,-261 761.65,-233.05 797.15,-180.22 813.4,-153.06"/>
</g>
<!-- ludwigop -->
<g id="node7" class="node">
<title>ludwigop</title>
<ellipse fill="none" stroke="black" cx="37.05" cy="-18" rx="37.09" ry="18"/>
<text text-anchor="middle" x="37.05" y="-14.3" font-family="Unifont" font-size="14.00">ludwig</text>
</g>
<!-- dockerop&#45;&#45;ludwigop -->
<g id="edge8" class="edge">
<title>dockerop&#45;&#45;ludwigop</title>
<path fill="none" stroke="black" d="M196.05,-124.09C179.08,-117.93 157.78,-109.23 140.05,-99 107.3,-80.1 73.44,-51.81 53.86,-34.43"/>
<text text-anchor="middle" x="147.05" y="-72.8" font-family="Unifont" font-size="14.00">70</text>
</g>
<!-- nginxop -->
<g id="node8" class="node">
<title>nginxop</title>
<ellipse fill="none" stroke="black" cx="125.05" cy="-18" rx="32.49" ry="18"/>
<text text-anchor="middle" x="125.05" y="-14.3" font-family="Unifont" font-size="14.00">nginx</text>
</g>
<!-- dockerop&#45;&#45;nginxop -->
<g id="edge7" class="edge">
<title>dockerop&#45;&#45;nginxop</title>
<path fill="none" stroke="black" d="M212,-118.01C192.6,-95.92 157.82,-56.31 138.65,-34.49"/>
<text text-anchor="middle" x="204.55" y="-80.3" font-family="Unifont" font-size="14.00">443</text>
<text text-anchor="middle" x="204.55" y="-65.3" font-family="Unifont" font-size="14.00">80</text>
</g>
<!-- tor&#45;proxy -->
<g id="node9" class="node">
<title>tor&#45;proxy</title>
<ellipse fill="none" stroke="black" cx="226.05" cy="-18" rx="50.09" ry="18"/>
<text text-anchor="middle" x="226.05" y="-14.3" font-family="Unifont" font-size="14.00">tor&#45;proxy</text>
</g>
<!-- dockerop&#45;&#45;tor&#45;proxy -->
<g id="edge6" class="edge">
<title>dockerop&#45;&#45;tor&#45;proxy</title>
<path fill="none" stroke="black" d="M226.05,-116.53C226.05,-94.79 226.05,-57.89 226.05,-36.25"/>
<text text-anchor="middle" x="240.05" y="-87.8" font-family="Unifont" font-size="14.00">9053</text>
<text text-anchor="middle" x="240.05" y="-72.8" font-family="Unifont" font-size="14.00">9052</text>
<text text-anchor="middle" x="240.05" y="-57.8" font-family="Unifont" font-size="14.00">9050</text>
</g>
<!-- simon -->
<g id="node10" class="node">
<title>simon</title>
<ellipse fill="none" stroke="black" cx="327.05" cy="-18" rx="32.49" ry="18"/>
<text text-anchor="middle" x="327.05" y="-14.3" font-family="Unifont" font-size="14.00">simon</text>
</g>
<!-- dockerop&#45;&#45;simon -->
<g id="edge9" class="edge">
<title>dockerop&#45;&#45;simon</title>
<path fill="none" stroke="black" d="M240.48,-118.41C246.01,-112.38 252.36,-105.4 258.05,-99 277.65,-76.92 299.89,-50.97 313.69,-34.75"/>
</g>
<!-- ali -->
<g id="node11" class="node">
<title>ali</title>
<ellipse fill="none" stroke="black" cx="404.05" cy="-18" rx="27" ry="18"/>
<text text-anchor="middle" x="404.05" y="-14.3" font-family="Unifont" font-size="14.00">ali</text>
</g>
<!-- dockerop&#45;&#45;ali -->
<g id="edge10" class="edge">
<title>dockerop&#45;&#45;ali</title>
<path fill="none" stroke="black" d="M250.83,-121.56C263.13,-115.16 278.08,-107.04 291.05,-99 326.18,-77.21 365.12,-48.59 386.88,-32.15"/>
<text text-anchor="middle" x="381.05" y="-80.3" font-family="Unifont" font-size="14.00">993,143</text>
<text text-anchor="middle" x="381.05" y="-65.3" font-family="Unifont" font-size="14.00">587,25</text>
</g>
<!-- sophia -->
<g id="node18" class="node">
<title>sophia</title>
<ellipse fill="none" stroke="black" cx="1030.05" cy="-444" rx="37.09" ry="18"/>
<text text-anchor="middle" x="1030.05" y="-440.3" font-family="Unifont" font-size="14.00">sophia</text>
</g>
<!-- Nuremberg&#45;&#45;sophia -->
<g id="edge17" class="edge">
<title>Nuremberg&#45;&#45;sophia</title>
<path fill="none" stroke="black" d="M993.54,-558C1001.59,-533.09 1016.5,-486.92 1024.55,-462"/>
<text text-anchor="middle" x="1038.55" y="-521.3" font-family="Unifont" font-size="14.00">8080</text>
<text text-anchor="middle" x="1038.55" y="-506.3" font-family="Unifont" font-size="14.00">443,80</text>
<text text-anchor="middle" x="1038.55" y="-491.3" font-family="Unifont" font-size="14.00">70</text>
</g>
<!-- redirectorkek -->
<g id="node19" class="node">
<title>redirectorkek</title>
<ellipse fill="none" stroke="black" cx="832.05" cy="-297" rx="54.69" ry="18"/>
<text text-anchor="middle" x="832.05" y="-293.3" font-family="Unifont" font-size="14.00">redirector</text>
</g>
<!-- sophia&#45;&#45;redirectorkek -->
<g id="edge22" class="edge">
<title>sophia&#45;&#45;redirectorkek</title>
<path fill="none" stroke="black" d="M998.48,-434.36C980.46,-428.56 957.96,-419.81 940.05,-408 900.05,-381.64 863.18,-338.36 844.62,-314.71"/>
<text text-anchor="middle" x="947.05" y="-366.8" font-family="Unifont" font-size="14.00">80</text>
</g>
<!-- dockersophia -->
<g id="node20" class="node">
<title>dockersophia</title>
<ellipse fill="none" stroke="black" cx="942.05" cy="-297" rx="37.09" ry="18"/>
<text text-anchor="middle" x="942.05" y="-293.3" font-family="Unifont" font-size="14.00">docker</text>
</g>
<!-- sophia&#45;&#45;dockersophia -->
<g id="edge19" class="edge">
<title>sophia&#45;&#45;dockersophia</title>
<path fill="none" stroke="black" d="M1014.1,-427.39C1008.64,-421.59 1002.73,-414.77 998.05,-408 976.69,-377.17 958.37,-337.09 948.9,-314.81"/>
<text text-anchor="middle" x="1012.05" y="-381.8" font-family="Unifont" font-size="14.00">9323</text>
<text text-anchor="middle" x="1012.05" y="-366.8" font-family="Unifont" font-size="14.00">8942</text>
<text text-anchor="middle" x="1012.05" y="-351.8" font-family="Unifont" font-size="14.00">70</text>
</g>
<!-- nginxsophia -->
<g id="node22" class="node">
<title>nginxsophia</title>
<ellipse fill="none" stroke="black" cx="1030.05" cy="-297" rx="32.49" ry="18"/>
<text text-anchor="middle" x="1030.05" y="-293.3" font-family="Unifont" font-size="14.00">nginx</text>
</g>
<!-- sophia&#45;&#45;nginxsophia -->
<g id="edge18" class="edge">
<title>sophia&#45;&#45;nginxsophia</title>
<path fill="none" stroke="black" d="M1030.05,-425.8C1030.05,-397.89 1030.05,-343.07 1030.05,-315.18"/>
<text text-anchor="middle" x="1044.05" y="-374.3" font-family="Unifont" font-size="14.00">8169</text>
<text text-anchor="middle" x="1044.05" y="-359.3" font-family="Unifont" font-size="14.00">443</text>
</g>
<!-- jasmin -->
<g id="node24" class="node">
<title>jasmin</title>
<ellipse fill="none" stroke="black" cx="1118.05" cy="-297" rx="37.09" ry="18"/>
<text text-anchor="middle" x="1118.05" y="-293.3" font-family="Unifont" font-size="14.00">jasmin</text>
</g>
<!-- sophia&#45;&#45;jasmin -->
<g id="edge23" class="edge">
<title>sophia&#45;&#45;jasmin</title>
<path fill="none" stroke="black" d="M1045.99,-427.39C1051.45,-421.59 1057.36,-414.77 1062.05,-408 1083.4,-377.17 1101.73,-337.09 1111.19,-314.81"/>
<text text-anchor="middle" x="1117.05" y="-366.8" font-family="Unifont" font-size="14.00">8099</text>
</g>
<!-- erwin -->
<g id="node25" class="node">
<title>erwin</title>
<ellipse fill="none" stroke="black" cx="1206.05" cy="-297" rx="32.49" ry="18"/>
<text text-anchor="middle" x="1206.05" y="-293.3" font-family="Unifont" font-size="14.00">erwin</text>
</g>
<!-- sophia&#45;&#45;erwin -->
<g id="edge24" class="edge">
<title>sophia&#45;&#45;erwin</title>
<path fill="none" stroke="black" d="M1065,-437.48C1086.89,-432.63 1114.7,-423.78 1135.05,-408 1167.38,-382.93 1189.34,-338.73 1199.54,-314.7"/>
<text text-anchor="middle" x="1205.05" y="-366.8" font-family="Unifont" font-size="14.00">8080</text>
</g>
<!-- deployment -->
<g id="node26" class="node">
<title>deployment</title>
<ellipse fill="none" stroke="black" cx="1311.05" cy="-297" rx="54.69" ry="18"/>
<text text-anchor="middle" x="1311.05" y="-293.3" font-family="Unifont" font-size="14.00">deployment</text>
</g>
<!-- sophia&#45;&#45;deployment -->
<g id="edge25" class="edge">
<title>sophia&#45;&#45;deployment</title>
<path fill="none" stroke="black" d="M1067.2,-443.79C1108.16,-443.04 1174.64,-436.87 1223.05,-408 1261.07,-385.33 1289.31,-339.73 1302.6,-314.95"/>
</g>
<!-- ludwigsophia -->
<g id="node21" class="node">
<title>ludwigsophia</title>
<ellipse fill="none" stroke="black" cx="942.05" cy="-135" rx="37.09" ry="18"/>
<text text-anchor="middle" x="942.05" y="-131.3" font-family="Unifont" font-size="14.00">ludwig</text>
</g>
<!-- dockersophia&#45;&#45;ludwigsophia -->
<g id="edge20" class="edge">
<title>dockersophia&#45;&#45;ludwigsophia</title>
<path fill="none" stroke="black" d="M942.05,-278.88C942.05,-248.24 942.05,-184.38 942.05,-153.48"/>
<text text-anchor="middle" x="949.05" y="-212.3" font-family="Unifont" font-size="14.00">70</text>
</g>
<!-- viktor2 -->
<g id="node23" class="node">
<title>viktor2</title>
<ellipse fill="none" stroke="black" cx="1039.05" cy="-135" rx="41.69" ry="18"/>
<text text-anchor="middle" x="1039.05" y="-131.3" font-family="Unifont" font-size="14.00">viktor2</text>
</g>
<!-- dockersophia&#45;&#45;viktor2 -->
<g id="edge21" class="edge">
<title>dockersophia&#45;&#45;viktor2</title>
<path fill="none" stroke="black" d="M952.06,-279.48C970.65,-248.82 1010.28,-183.44 1028.94,-152.67"/>
<text text-anchor="middle" x="1030.05" y="-212.3" font-family="Unifont" font-size="14.00">8942</text>
</g>
</g>
</svg>
