<?xml version="1.0" encoding="UTF-8" standalone="no"?>
<!DOCTYPE svg PUBLIC "-//W3C//DTD SVG 1.1//EN"
 "http://www.w3.org/Graphics/SVG/1.1/DTD/svg11.dtd">
<!-- Generated by graphviz version 3.0.0 (20220226.1711)
 -->
<!-- Pages: 1 -->
<svg width="1546pt" height="548pt"
 viewBox="0.00 0.00 1546.44 548.00" xmlns="http://www.w3.org/2000/svg" xmlns:xlink="http://www.w3.org/1999/xlink">
<g id="graph0" class="graph" transform="scale(1 1) rotate(0) translate(4 544)">
<polygon fill="white" stroke="transparent" points="-4,4 -4,-544 1542.44,-544 1542.44,4 -4,4"/>
<!-- Big Bad Internet™ -->
<g id="node1" class="node">
<title>Big Bad Internet™</title>
<ellipse fill="none" stroke="black" cx="1072.6" cy="-522" rx="78.79" ry="18"/>
<text text-anchor="middle" x="1072.6" y="-518.3" font-family="Times,serif" font-size="14.00">Big Bad Internet™</text>
</g>
<!-- Rosenhof -->
<g id="node2" class="node">
<title>Rosenhof</title>
<ellipse fill="none" stroke="black" cx="1015.6" cy="-450" rx="44.39" ry="18"/>
<text text-anchor="middle" x="1015.6" y="-446.3" font-family="Times,serif" font-size="14.00">Rosenhof</text>
</g>
<!-- Big Bad Internet™&#45;&#45;Rosenhof -->
<g id="edge1" class="edge">
<title>Big Bad Internet™&#45;&#45;Rosenhof</title>
<path fill="none" stroke="black" d="M1058.8,-504.05C1049.71,-492.89 1037.86,-478.34 1028.88,-467.31"/>
</g>
<!-- Nuremberg -->
<g id="node28" class="node">
<title>Nuremberg</title>
<ellipse fill="none" stroke="black" cx="1241.6" cy="-450" rx="51.19" ry="18"/>
<text text-anchor="middle" x="1241.6" y="-446.3" font-family="Times,serif" font-size="14.00">Nuremberg</text>
</g>
<!-- Big Bad Internet™&#45;&#45;Nuremberg -->
<g id="edge27" class="edge">
<title>Big Bad Internet™&#45;&#45;Nuremberg</title>
<path fill="none" stroke="black" d="M1108.85,-505.98C1138.82,-493.57 1180.97,-476.11 1209.68,-464.22"/>
</g>
<!-- FB 7530 AX -->
<g id="node3" class="node">
<title>FB 7530 AX</title>
<ellipse fill="none" stroke="black" cx="946.6" cy="-378" rx="55.79" ry="18"/>
<text text-anchor="middle" x="946.6" y="-374.3" font-family="Times,serif" font-size="14.00">FB 7530 AX</text>
</g>
<!-- Rosenhof&#45;&#45;FB 7530 AX -->
<g id="edge2" class="edge">
<title>Rosenhof&#45;&#45;FB 7530 AX</title>
<path fill="none" stroke="black" d="M999.94,-433.12C988.81,-421.82 973.9,-406.7 962.67,-395.31"/>
</g>
<!-- Powerline Baba -->
<g id="node4" class="node">
<title>Powerline Baba</title>
<ellipse fill="none" stroke="black" cx="766.6" cy="-306" rx="66.89" ry="18"/>
<text text-anchor="middle" x="766.6" y="-302.3" font-family="Times,serif" font-size="14.00">Powerline Baba</text>
</g>
<!-- FB 7530 AX&#45;&#45;Powerline Baba -->
<g id="edge3" class="edge">
<title>FB 7530 AX&#45;&#45;Powerline Baba</title>
<path fill="none" stroke="black" d="M912.32,-363.67C881,-351.49 834.85,-333.54 802.91,-321.12"/>
</g>
<!-- QNAP QSW&#45;1105&#45;5T -->
<g id="node5" class="node">
<title>QNAP QSW&#45;1105&#45;5T</title>
<ellipse fill="none" stroke="black" cx="946.6" cy="-306" rx="89.88" ry="18"/>
<text text-anchor="middle" x="946.6" y="-302.3" font-family="Times,serif" font-size="14.00">QNAP QSW&#45;1105&#45;5T</text>
</g>
<!-- FB 7530 AX&#45;&#45;QNAP QSW&#45;1105&#45;5T -->
<g id="edge4" class="edge">
<title>FB 7530 AX&#45;&#45;QNAP QSW&#45;1105&#45;5T</title>
<path fill="none" stroke="black" d="M946.6,-359.7C946.6,-348.85 946.6,-334.92 946.6,-324.1"/>
</g>
<!-- TP&#45;Link TL&#45;SG108 -->
<g id="node11" class="node">
<title>TP&#45;Link TL&#45;SG108</title>
<ellipse fill="none" stroke="black" cx="679.6" cy="-234" rx="80.69" ry="18"/>
<text text-anchor="middle" x="679.6" y="-230.3" font-family="Times,serif" font-size="14.00">TP&#45;Link TL&#45;SG108</text>
</g>
<!-- Powerline Baba&#45;&#45;TP&#45;Link TL&#45;SG108 -->
<g id="edge10" class="edge">
<title>Powerline Baba&#45;&#45;TP&#45;Link TL&#45;SG108</title>
<path fill="none" stroke="black" d="M746.42,-288.76C732.56,-277.62 714.23,-262.87 700.27,-251.63"/>
</g>
<!-- NETGEAR XS505M -->
<g id="node6" class="node">
<title>NETGEAR XS505M</title>
<ellipse fill="none" stroke="black" cx="918.6" cy="-234" rx="87.18" ry="18"/>
<text text-anchor="middle" x="918.6" y="-230.3" font-family="Times,serif" font-size="14.00">NETGEAR XS505M</text>
</g>
<!-- QNAP QSW&#45;1105&#45;5T&#45;&#45;NETGEAR XS505M -->
<g id="edge5" class="edge">
<title>QNAP QSW&#45;1105&#45;5T&#45;&#45;NETGEAR XS505M</title>
<path fill="none" stroke="black" d="M939.68,-287.7C935.34,-276.85 929.76,-262.92 925.44,-252.1"/>
</g>
<!-- Powerline Pixel -->
<g id="node8" class="node">
<title>Powerline Pixel</title>
<ellipse fill="none" stroke="black" cx="1090.6" cy="-234" rx="66.89" ry="18"/>
<text text-anchor="middle" x="1090.6" y="-230.3" font-family="Times,serif" font-size="14.00">Powerline Pixel</text>
</g>
<!-- QNAP QSW&#45;1105&#45;5T&#45;&#45;Powerline Pixel -->
<g id="edge7" class="edge">
<title>QNAP QSW&#45;1105&#45;5T&#45;&#45;Powerline Pixel</title>
<path fill="none" stroke="black" d="M979.27,-289.12C1003.34,-277.42 1035.86,-261.61 1059.53,-250.1"/>
</g>
<!-- dergerät -->
<g id="node7" class="node">
<title>dergerät</title>
<ellipse fill="none" stroke="black" cx="887.6" cy="-162" rx="39.79" ry="18"/>
<text text-anchor="middle" x="887.6" y="-158.3" font-family="Times,serif" font-size="14.00">dergerät</text>
</g>
<!-- NETGEAR XS505M&#45;&#45;dergerät -->
<g id="edge6" class="edge">
<title>NETGEAR XS505M&#45;&#45;dergerät</title>
<path fill="none" stroke="black" d="M911.09,-216.05C906.22,-205.05 899.89,-190.76 895.03,-179.79"/>
</g>
<!-- rotmain -->
<g id="node12" class="node">
<title>rotmain</title>
<ellipse fill="none" stroke="black" cx="983.6" cy="-162" rx="38.19" ry="18"/>
<text text-anchor="middle" x="983.6" y="-158.3" font-family="Times,serif" font-size="14.00">rotmain</text>
</g>
<!-- NETGEAR XS505M&#45;&#45;rotmain -->
<g id="edge11" class="edge">
<title>NETGEAR XS505M&#45;&#45;rotmain</title>
<path fill="none" stroke="black" d="M934.33,-216.05C944.85,-204.73 958.6,-189.92 968.9,-178.83"/>
</g>
<!-- GWiFi Pixel -->
<g id="node9" class="node">
<title>GWiFi Pixel</title>
<ellipse fill="none" stroke="black" cx="1135.6" cy="-162" rx="55.79" ry="18"/>
<text text-anchor="middle" x="1135.6" y="-158.3" font-family="Times,serif" font-size="14.00">GWiFi Pixel</text>
</g>
<!-- Powerline Pixel&#45;&#45;GWiFi Pixel -->
<g id="edge8" class="edge">
<title>Powerline Pixel&#45;&#45;GWiFi Pixel</title>
<path fill="none" stroke="black" d="M1101.49,-216.05C1108.57,-205.05 1117.75,-190.76 1124.8,-179.79"/>
</g>
<!-- TB Dock Pixel -->
<g id="node10" class="node">
<title>TB Dock Pixel</title>
<ellipse fill="none" stroke="black" cx="1156.6" cy="-90" rx="63.89" ry="18"/>
<text text-anchor="middle" x="1156.6" y="-86.3" font-family="Times,serif" font-size="14.00">TB Dock Pixel</text>
</g>
<!-- GWiFi Pixel&#45;&#45;TB Dock Pixel -->
<g id="edge9" class="edge">
<title>GWiFi Pixel&#45;&#45;TB Dock Pixel</title>
<path fill="none" stroke="black" d="M1140.68,-144.05C1143.93,-133.21 1148.14,-119.18 1151.41,-108.28"/>
</g>
<!-- httpis -->
<g id="node13" class="node">
<title>httpis</title>
<ellipse fill="none" stroke="black" cx="230.6" cy="-162" rx="30.59" ry="18"/>
<text text-anchor="middle" x="230.6" y="-158.3" font-family="Times,serif" font-size="14.00">httpis</text>
</g>
<!-- TP&#45;Link TL&#45;SG108&#45;&#45;httpis -->
<g id="edge12" class="edge">
<title>TP&#45;Link TL&#45;SG108&#45;&#45;httpis</title>
<path fill="none" stroke="black" d="M615.27,-222.97C516.45,-207.57 331.26,-178.69 259.78,-167.55"/>
</g>
<!-- postpi -->
<g id="node18" class="node">
<title>postpi</title>
<ellipse fill="none" stroke="black" cx="512.6" cy="-162" rx="32.49" ry="18"/>
<text text-anchor="middle" x="512.6" y="-158.3" font-family="Times,serif" font-size="14.00">postpi</text>
</g>
<!-- TP&#45;Link TL&#45;SG108&#45;&#45;postpi -->
<g id="edge17" class="edge">
<title>TP&#45;Link TL&#45;SG108&#45;&#45;postpi</title>
<path fill="none" stroke="black" d="M643.36,-217.81C611.42,-204.42 565.71,-185.26 537.66,-173.5"/>
</g>
<!-- optiplex3020 -->
<g id="node21" class="node">
<title>optiplex3020</title>
<ellipse fill="none" stroke="black" cx="710.6" cy="-162" rx="57.39" ry="18"/>
<text text-anchor="middle" x="710.6" y="-158.3" font-family="Times,serif" font-size="14.00">optiplex3020</text>
</g>
<!-- TP&#45;Link TL&#45;SG108&#45;&#45;optiplex3020 -->
<g id="edge20" class="edge">
<title>TP&#45;Link TL&#45;SG108&#45;&#45;optiplex3020</title>
<path fill="none" stroke="black" d="M687.1,-216.05C691.9,-205.21 698.12,-191.18 702.95,-180.28"/>
</g>
<!-- httpd -->
<g id="node14" class="node">
<title>httpd</title>
<ellipse fill="none" stroke="black" cx="28.6" cy="-90" rx="28.7" ry="18"/>
<text text-anchor="middle" x="28.6" y="-86.3" font-family="Times,serif" font-size="14.00">httpd</text>
</g>
<!-- httpis&#45;&#45;httpd -->
<g id="edge13" class="edge">
<title>httpis&#45;&#45;httpd</title>
<path fill="none" stroke="black" d="M203.68,-153.43C170.73,-143.92 113.41,-126.59 65.6,-108 60.72,-106.1 55.57,-103.88 50.72,-101.69"/>
</g>
<!-- redirector -->
<g id="node15" class="node">
<title>redirector</title>
<ellipse fill="none" stroke="black" cx="119.6" cy="-90" rx="44.69" ry="18"/>
<text text-anchor="middle" x="119.6" y="-86.3" font-family="Times,serif" font-size="14.00">redirector</text>
</g>
<!-- httpis&#45;&#45;redirector -->
<g id="edge14" class="edge">
<title>httpis&#45;&#45;redirector</title>
<path fill="none" stroke="black" d="M210.5,-148.32C191.38,-136.27 162.64,-118.15 142.62,-105.52"/>
</g>
<!-- pygopherd -->
<g id="node16" class="node">
<title>pygopherd</title>
<ellipse fill="none" stroke="black" cx="230.6" cy="-90" rx="48.19" ry="18"/>
<text text-anchor="middle" x="230.6" y="-86.3" font-family="Times,serif" font-size="14.00">pygopherd</text>
</g>
<!-- httpis&#45;&#45;pygopherd -->
<g id="edge15" class="edge">
<title>httpis&#45;&#45;pygopherd</title>
<path fill="none" stroke="black" d="M230.6,-143.7C230.6,-132.85 230.6,-118.92 230.6,-108.1"/>
</g>
<!-- dyndns -->
<g id="node17" class="node">
<title>dyndns</title>
<ellipse fill="none" stroke="black" cx="332.6" cy="-90" rx="36.29" ry="18"/>
<text text-anchor="middle" x="332.6" y="-86.3" font-family="Times,serif" font-size="14.00">dyndns</text>
</g>
<!-- httpis&#45;&#45;dyndns -->
<g id="edge16" class="edge">
<title>httpis&#45;&#45;dyndns</title>
<path fill="none" stroke="black" d="M249.78,-147.83C267.56,-135.64 293.92,-117.55 312.1,-105.07"/>
</g>
<!-- postfix -->
<g id="node19" class="node">
<title>postfix</title>
<ellipse fill="none" stroke="black" cx="421.6" cy="-90" rx="35.19" ry="18"/>
<text text-anchor="middle" x="421.6" y="-86.3" font-family="Times,serif" font-size="14.00">postfix</text>
</g>
<!-- postpi&#45;&#45;postfix -->
<g id="edge18" class="edge">
<title>postpi&#45;&#45;postfix</title>
<path fill="none" stroke="black" d="M494.18,-146.83C478.5,-134.77 456.06,-117.51 440.3,-105.38"/>
</g>
<!-- dovecot -->
<g id="node20" class="node">
<title>dovecot</title>
<ellipse fill="none" stroke="black" cx="512.6" cy="-90" rx="38.19" ry="18"/>
<text text-anchor="middle" x="512.6" y="-86.3" font-family="Times,serif" font-size="14.00">dovecot</text>
</g>
<!-- postpi&#45;&#45;dovecot -->
<g id="edge19" class="edge">
<title>postpi&#45;&#45;dovecot</title>
<path fill="none" stroke="black" d="M512.6,-143.7C512.6,-132.85 512.6,-118.92 512.6,-108.1"/>
</g>
<!-- dockerop -->
<g id="node22" class="node">
<title>dockerop</title>
<ellipse fill="none" stroke="black" cx="603.6" cy="-90" rx="34.39" ry="18"/>
<text text-anchor="middle" x="603.6" y="-86.3" font-family="Times,serif" font-size="14.00">docker</text>
</g>
<!-- optiplex3020&#45;&#45;dockerop -->
<g id="edge21" class="edge">
<title>optiplex3020&#45;&#45;dockerop</title>
<path fill="none" stroke="black" d="M686.85,-145.46C668.13,-133.22 642.29,-116.32 624.39,-104.6"/>
</g>
<!-- bucket -->
<g id="node24" class="node">
<title>bucket</title>
<ellipse fill="none" stroke="black" cx="690.6" cy="-90" rx="34.39" ry="18"/>
<text text-anchor="middle" x="690.6" y="-86.3" font-family="Times,serif" font-size="14.00">bucket</text>
</g>
<!-- optiplex3020&#45;&#45;bucket -->
<g id="edge23" class="edge">
<title>optiplex3020&#45;&#45;bucket</title>
<path fill="none" stroke="black" d="M705.76,-144.05C702.66,-133.21 698.65,-119.18 695.53,-108.28"/>
</g>
<!-- aggregamus -->
<g id="node25" class="node">
<title>aggregamus</title>
<ellipse fill="none" stroke="black" cx="796.6" cy="-90" rx="53.89" ry="18"/>
<text text-anchor="middle" x="796.6" y="-86.3" font-family="Times,serif" font-size="14.00">aggregamus</text>
</g>
<!-- optiplex3020&#45;&#45;aggregamus -->
<g id="edge24" class="edge">
<title>optiplex3020&#45;&#45;aggregamus</title>
<path fill="none" stroke="black" d="M730.54,-144.76C744.54,-133.38 763.15,-118.22 777.06,-106.91"/>
</g>
<!-- inspiriererin -->
<g id="node26" class="node">
<title>inspiriererin</title>
<ellipse fill="none" stroke="black" cx="922.6" cy="-90" rx="53.89" ry="18"/>
<text text-anchor="middle" x="922.6" y="-86.3" font-family="Times,serif" font-size="14.00">inspiriererin</text>
</g>
<!-- optiplex3020&#45;&#45;inspiriererin -->
<g id="edge25" class="edge">
<title>optiplex3020&#45;&#45;inspiriererin</title>
<path fill="none" stroke="black" d="M748.5,-148.49C787.33,-135.67 847.29,-115.87 885.73,-103.17"/>
</g>
<!-- murmur -->
<g id="node27" class="node">
<title>murmur</title>
<ellipse fill="none" stroke="black" cx="1034.6" cy="-90" rx="40.09" ry="18"/>
<text text-anchor="middle" x="1034.6" y="-86.3" font-family="Times,serif" font-size="14.00">murmur</text>
</g>
<!-- optiplex3020&#45;&#45;murmur -->
<g id="edge26" class="edge">
<title>optiplex3020&#45;&#45;murmur</title>
<path fill="none" stroke="black" d="M761.27,-153.47C816.83,-144.7 908.35,-128.73 985.6,-108 991.86,-106.32 998.47,-104.24 1004.75,-102.12"/>
</g>
<!-- tor&#45;proxy -->
<g id="node23" class="node">
<title>tor&#45;proxy</title>
<ellipse fill="none" stroke="black" cx="603.6" cy="-18" rx="44.39" ry="18"/>
<text text-anchor="middle" x="603.6" y="-14.3" font-family="Times,serif" font-size="14.00">tor&#45;proxy</text>
</g>
<!-- dockerop&#45;&#45;tor&#45;proxy -->
<g id="edge22" class="edge">
<title>dockerop&#45;&#45;tor&#45;proxy</title>
<path fill="none" stroke="black" d="M603.6,-71.7C603.6,-60.85 603.6,-46.92 603.6,-36.1"/>
</g>
<!-- sophia -->
<g id="node29" class="node">
<title>sophia</title>
<ellipse fill="none" stroke="black" cx="1297.6" cy="-378" rx="33.6" ry="18"/>
<text text-anchor="middle" x="1297.6" y="-374.3" font-family="Times,serif" font-size="14.00">sophia</text>
</g>
<!-- Nuremberg&#45;&#45;sophia -->
<g id="edge28" class="edge">
<title>Nuremberg&#45;&#45;sophia</title>
<path fill="none" stroke="black" d="M1254.87,-432.41C1263.92,-421.09 1275.85,-406.18 1284.81,-394.99"/>
</g>
<!-- redirectorkek -->
<g id="node30" class="node">
<title>redirectorkek</title>
<ellipse fill="none" stroke="black" cx="1159.6" cy="-306" rx="44.69" ry="18"/>
<text text-anchor="middle" x="1159.6" y="-302.3" font-family="Times,serif" font-size="14.00">redirector</text>
</g>
<!-- sophia&#45;&#45;redirectorkek -->
<g id="edge33" class="edge">
<title>sophia&#45;&#45;redirectorkek</title>
<path fill="none" stroke="black" d="M1273.87,-364.97C1249.52,-352.61 1211.7,-333.43 1186.31,-320.55"/>
</g>
<!-- dockersophia -->
<g id="node31" class="node">
<title>dockersophia</title>
<ellipse fill="none" stroke="black" cx="1256.6" cy="-306" rx="34.39" ry="18"/>
<text text-anchor="middle" x="1256.6" y="-302.3" font-family="Times,serif" font-size="14.00">docker</text>
</g>
<!-- sophia&#45;&#45;dockersophia -->
<g id="edge30" class="edge">
<title>sophia&#45;&#45;dockersophia</title>
<path fill="none" stroke="black" d="M1287.88,-360.41C1281.35,-349.25 1272.77,-334.6 1266.24,-323.47"/>
</g>
<!-- nginx -->
<g id="node32" class="node">
<title>nginx</title>
<ellipse fill="none" stroke="black" cx="1339.6" cy="-306" rx="30.59" ry="18"/>
<text text-anchor="middle" x="1339.6" y="-302.3" font-family="Times,serif" font-size="14.00">nginx</text>
</g>
<!-- sophia&#45;&#45;nginx -->
<g id="edge29" class="edge">
<title>sophia&#45;&#45;nginx</title>
<path fill="none" stroke="black" d="M1307.55,-360.41C1314.25,-349.25 1323.04,-334.6 1329.72,-323.47"/>
</g>
<!-- jasmin -->
<g id="node35" class="node">
<title>jasmin</title>
<ellipse fill="none" stroke="black" cx="1422.6" cy="-306" rx="34.39" ry="18"/>
<text text-anchor="middle" x="1422.6" y="-302.3" font-family="Times,serif" font-size="14.00">jasmin</text>
</g>
<!-- sophia&#45;&#45;jasmin -->
<g id="edge34" class="edge">
<title>sophia&#45;&#45;jasmin</title>
<path fill="none" stroke="black" d="M1319.94,-364.49C1342.56,-351.82 1377.33,-332.35 1400.02,-319.64"/>
</g>
<!-- hanna -->
<g id="node36" class="node">
<title>hanna</title>
<ellipse fill="none" stroke="black" cx="1506.6" cy="-306" rx="31.7" ry="18"/>
<text text-anchor="middle" x="1506.6" y="-302.3" font-family="Times,serif" font-size="14.00">hanna</text>
</g>
<!-- sophia&#45;&#45;hanna -->
<g id="edge35" class="edge">
<title>sophia&#45;&#45;hanna</title>
<path fill="none" stroke="black" d="M1326.69,-368.66C1360.4,-358.81 1417.46,-341.53 1465.6,-324 1470.96,-322.05 1476.64,-319.8 1482.02,-317.6"/>
</g>
<!-- ludwig (pygopherd) -->
<g id="node33" class="node">
<title>ludwig (pygopherd)</title>
<ellipse fill="none" stroke="black" cx="1256.6" cy="-234" rx="81.49" ry="18"/>
<text text-anchor="middle" x="1256.6" y="-230.3" font-family="Times,serif" font-size="14.00">ludwig (pygopherd)</text>
</g>
<!-- dockersophia&#45;&#45;ludwig (pygopherd) -->
<g id="edge31" class="edge">
<title>dockersophia&#45;&#45;ludwig (pygopherd)</title>
<path fill="none" stroke="black" d="M1256.6,-287.7C1256.6,-276.85 1256.6,-262.92 1256.6,-252.1"/>
</g>
<!-- mediawiki -->
<g id="node34" class="node">
<title>mediawiki</title>
<ellipse fill="none" stroke="black" cx="1403.6" cy="-234" rx="48.19" ry="18"/>
<text text-anchor="middle" x="1403.6" y="-230.3" font-family="Times,serif" font-size="14.00">mediawiki</text>
</g>
<!-- dockersophia&#45;&#45;mediawiki -->
<g id="edge32" class="edge">
<title>dockersophia&#45;&#45;mediawiki</title>
<path fill="none" stroke="black" d="M1281.2,-293.28C1307.11,-280.95 1347.86,-261.54 1375.13,-248.55"/>
</g>
</g>
</svg>
