<?xml version="1.0" encoding="UTF-8" standalone="no"?>
<?xml-stylesheet href="unifont.css" type="text/css"?>
<!DOCTYPE svg PUBLIC "-//W3C//DTD SVG 1.1//EN"
 "http://www.w3.org/Graphics/SVG/1.1/DTD/svg11.dtd">
<!-- Generated by graphviz version 3.0.0 (20220226.1711)
 -->
<!-- Pages: 1 -->
<svg width="1418pt" height="639pt"
 viewBox="0.00 0.00 1418.19 639.00" xmlns="http://www.w3.org/2000/svg" xmlns:xlink="http://www.w3.org/1999/xlink">
<g id="graph0" class="graph" transform="scale(1 1) rotate(0) translate(4 635)">
<polygon fill="white" stroke="transparent" points="-4,4 -4,-635 1414.19,-635 1414.19,4 -4,4"/>
<!-- Big Bad Internet™ -->
<g id="node1" class="node">
<title>Big Bad Internet™</title>
<ellipse fill="none" stroke="black" cx="735.15" cy="-613" rx="85.29" ry="18"/>
<text text-anchor="middle" x="735.15" y="-609.3" font-family="Unifont" font-size="14.00">Big Bad Internet™</text>
</g>
<!-- Rosenhof -->
<g id="node2" class="node">
<title>Rosenhof</title>
<ellipse fill="none" stroke="black" cx="679.15" cy="-540" rx="46.29" ry="18"/>
<text text-anchor="middle" x="679.15" y="-536.3" font-family="Unifont" font-size="14.00">Rosenhof</text>
</g>
<!-- Big Bad Internet™&#45;&#45;Rosenhof -->
<g id="edge1" class="edge">
<title>Big Bad Internet™&#45;&#45;Rosenhof</title>
<path fill="none" stroke="black" d="M721.87,-595.17C712.95,-583.86 701.23,-569 692.32,-557.71"/>
</g>
<!-- Nuremberg -->
<g id="node27" class="node">
<title>Nuremberg</title>
<ellipse fill="none" stroke="black" cx="822.15" cy="-540" rx="50.09" ry="18"/>
<text text-anchor="middle" x="822.15" y="-536.3" font-family="Unifont" font-size="14.00">Nuremberg</text>
</g>
<!-- Big Bad Internet™&#45;&#45;Nuremberg -->
<g id="edge26" class="edge">
<title>Big Bad Internet™&#45;&#45;Nuremberg</title>
<path fill="none" stroke="black" d="M755.76,-595.17C770.03,-583.53 788.9,-568.13 802.87,-556.73"/>
</g>
<!-- FB 7530 AX -->
<g id="node3" class="node">
<title>FB 7530 AX</title>
<ellipse fill="none" stroke="black" cx="508.15" cy="-453" rx="54.69" ry="18"/>
<text text-anchor="middle" x="508.15" y="-449.3" font-family="Unifont" font-size="14.00">FB 7530 AX</text>
</g>
<!-- Rosenhof&#45;&#45;FB 7530 AX -->
<g id="edge2" class="edge">
<title>Rosenhof&#45;&#45;FB 7530 AX</title>
<path fill="none" stroke="black" d="M651.67,-525.34C620.23,-509.72 568.98,-484.24 536.98,-468.33"/>
</g>
<!-- NETGEAR XS505M -->
<g id="node4" class="node">
<title>NETGEAR XS505M</title>
<ellipse fill="none" stroke="black" cx="194.15" cy="-366" rx="72.29" ry="18"/>
<text text-anchor="middle" x="194.15" y="-362.3" font-family="Unifont" font-size="14.00">NETGEAR XS505M</text>
</g>
<!-- FB 7530 AX&#45;&#45;NETGEAR XS505M -->
<g id="edge3" class="edge">
<title>FB 7530 AX&#45;&#45;NETGEAR XS505M</title>
<path fill="none" stroke="black" d="M467.42,-440.97C409.26,-425.23 302.66,-396.38 241.2,-379.74"/>
</g>
<!-- Powerline Baba -->
<g id="node9" class="node">
<title>Powerline Baba</title>
<ellipse fill="none" stroke="black" cx="508.15" cy="-366" rx="72.29" ry="18"/>
<text text-anchor="middle" x="508.15" y="-362.3" font-family="Unifont" font-size="14.00">Powerline Baba</text>
</g>
<!-- FB 7530 AX&#45;&#45;Powerline Baba -->
<g id="edge8" class="edge">
<title>FB 7530 AX&#45;&#45;Powerline Baba</title>
<path fill="none" stroke="black" d="M508.15,-434.8C508.15,-420.05 508.15,-398.92 508.15,-384.18"/>
</g>
<!-- dergerät -->
<g id="node5" class="node">
<title>dergerät</title>
<ellipse fill="none" stroke="black" cx="46.15" cy="-279" rx="46.29" ry="18"/>
<text text-anchor="middle" x="46.15" y="-275.3" font-family="Unifont" font-size="14.00">dergerät</text>
</g>
<!-- NETGEAR XS505M&#45;&#45;dergerät -->
<g id="edge4" class="edge">
<title>NETGEAR XS505M&#45;&#45;dergerät</title>
<path fill="none" stroke="black" d="M166.66,-349.21C139.24,-333.46 97.49,-309.49 71.03,-294.29"/>
</g>
<!-- rotmain -->
<g id="node6" class="node">
<title>rotmain</title>
<ellipse fill="none" stroke="black" cx="152.15" cy="-279" rx="41.69" ry="18"/>
<text text-anchor="middle" x="152.15" y="-275.3" font-family="Unifont" font-size="14.00">rotmain</text>
</g>
<!-- NETGEAR XS505M&#45;&#45;rotmain -->
<g id="edge5" class="edge">
<title>NETGEAR XS505M&#45;&#45;rotmain</title>
<path fill="none" stroke="black" d="M185.65,-347.8C178.31,-332.95 167.78,-311.64 160.49,-296.89"/>
</g>
<!-- QNAP QSW&#45;1105&#45;5T -->
<g id="node7" class="node">
<title>QNAP QSW&#45;1105&#45;5T</title>
<ellipse fill="none" stroke="black" cx="293.15" cy="-279" rx="81.49" ry="18"/>
<text text-anchor="middle" x="293.15" y="-275.3" font-family="Unifont" font-size="14.00">QNAP QSW&#45;1105&#45;5T</text>
</g>
<!-- NETGEAR XS505M&#45;&#45;QNAP QSW&#45;1105&#45;5T -->
<g id="edge6" class="edge">
<title>NETGEAR XS505M&#45;&#45;QNAP QSW&#45;1105&#45;5T</title>
<path fill="none" stroke="black" d="M213.23,-348.61C230.65,-333.66 256.27,-311.66 273.78,-296.63"/>
</g>
<!-- GWiFi ServerRoom -->
<g id="node8" class="node">
<title>GWiFi ServerRoom</title>
<ellipse fill="none" stroke="black" cx="248.15" cy="-192" rx="81.49" ry="18"/>
<text text-anchor="middle" x="248.15" y="-188.3" font-family="Unifont" font-size="14.00">GWiFi ServerRoom</text>
</g>
<!-- QNAP QSW&#45;1105&#45;5T&#45;&#45;GWiFi ServerRoom -->
<g id="edge7" class="edge">
<title>QNAP QSW&#45;1105&#45;5T&#45;&#45;GWiFi ServerRoom</title>
<path fill="none" stroke="black" d="M284.04,-260.8C276.23,-246.05 265.04,-224.92 257.24,-210.18"/>
</g>
<!-- TP&#45;Link TL&#45;SG108 -->
<g id="node10" class="node">
<title>TP&#45;Link TL&#45;SG108</title>
<ellipse fill="none" stroke="black" cx="549.15" cy="-279" rx="81.49" ry="18"/>
<text text-anchor="middle" x="549.15" y="-275.3" font-family="Unifont" font-size="14.00">TP&#45;Link TL&#45;SG108</text>
</g>
<!-- Powerline Baba&#45;&#45;TP&#45;Link TL&#45;SG108 -->
<g id="edge9" class="edge">
<title>Powerline Baba&#45;&#45;TP&#45;Link TL&#45;SG108</title>
<path fill="none" stroke="black" d="M516.44,-347.8C523.56,-333.05 533.75,-311.92 540.86,-297.18"/>
</g>
<!-- GWiFi Baba -->
<g id="node11" class="node">
<title>GWiFi Baba</title>
<ellipse fill="none" stroke="black" cx="402.15" cy="-192" rx="54.69" ry="18"/>
<text text-anchor="middle" x="402.15" y="-188.3" font-family="Unifont" font-size="14.00">GWiFi Baba</text>
</g>
<!-- TP&#45;Link TL&#45;SG108&#45;&#45;GWiFi Baba -->
<g id="edge10" class="edge">
<title>TP&#45;Link TL&#45;SG108&#45;&#45;GWiFi Baba</title>
<path fill="none" stroke="black" d="M521.5,-262.01C494.72,-246.53 454.41,-223.22 428.19,-208.06"/>
</g>
<!-- Baba PC -->
<g id="node12" class="node">
<title>Baba PC</title>
<ellipse fill="none" stroke="black" cx="516.15" cy="-192" rx="41.69" ry="18"/>
<text text-anchor="middle" x="516.15" y="-188.3" font-family="Unifont" font-size="14.00">Baba PC</text>
</g>
<!-- TP&#45;Link TL&#45;SG108&#45;&#45;Baba PC -->
<g id="edge11" class="edge">
<title>TP&#45;Link TL&#45;SG108&#45;&#45;Baba PC</title>
<path fill="none" stroke="black" d="M542.47,-260.8C536.7,-245.95 528.43,-224.64 522.7,-209.89"/>
</g>
<!-- httpis -->
<g id="node13" class="node">
<title>httpis</title>
<ellipse fill="none" stroke="black" cx="613.15" cy="-192" rx="37.09" ry="18"/>
<text text-anchor="middle" x="613.15" y="-188.3" font-family="Unifont" font-size="14.00">httpis</text>
</g>
<!-- TP&#45;Link TL&#45;SG108&#45;&#45;httpis -->
<g id="edge12" class="edge">
<title>TP&#45;Link TL&#45;SG108&#45;&#45;httpis</title>
<path fill="none" stroke="black" d="M561.79,-261.21C573.16,-246.11 589.74,-224.09 600.96,-209.18"/>
<text text-anchor="middle" x="605.65" y="-231.8" font-family="Unifont" font-size="14.00">443,80</text>
</g>
<!-- postpi -->
<g id="node17" class="node">
<title>postpi</title>
<ellipse fill="none" stroke="black" cx="710.15" cy="-192" rx="37.09" ry="18"/>
<text text-anchor="middle" x="710.15" y="-188.3" font-family="Unifont" font-size="14.00">postpi</text>
</g>
<!-- TP&#45;Link TL&#45;SG108&#45;&#45;postpi -->
<g id="edge16" class="edge">
<title>TP&#45;Link TL&#45;SG108&#45;&#45;postpi</title>
<path fill="none" stroke="black" d="M587.2,-262.95C600.95,-257.15 616.45,-250.19 630.15,-243 651.03,-232.04 673.73,-217.59 689.6,-207.04"/>
<text text-anchor="middle" x="702.65" y="-231.8" font-family="Unifont" font-size="14.00">993,587,143,25</text>
</g>
<!-- optiplex3020 -->
<g id="node20" class="node">
<title>optiplex3020</title>
<ellipse fill="none" stroke="black" cx="1084.15" cy="-192" rx="63.89" ry="18"/>
<text text-anchor="middle" x="1084.15" y="-188.3" font-family="Unifont" font-size="14.00">optiplex3020</text>
</g>
<!-- TP&#45;Link TL&#45;SG108&#45;&#45;optiplex3020 -->
<g id="edge19" class="edge">
<title>TP&#45;Link TL&#45;SG108&#45;&#45;optiplex3020</title>
<path fill="none" stroke="black" d="M612.76,-267.78C626.73,-265.54 641.43,-263.19 655.15,-261 789.93,-239.51 948.58,-214.41 1029.96,-201.56"/>
</g>
<!-- httpd -->
<g id="node14" class="node">
<title>httpd</title>
<ellipse fill="none" stroke="black" cx="407.15" cy="-105" rx="32.49" ry="18"/>
<text text-anchor="middle" x="407.15" y="-101.3" font-family="Unifont" font-size="14.00">httpd</text>
</g>
<!-- httpis&#45;&#45;httpd -->
<g id="edge13" class="edge">
<title>httpis&#45;&#45;httpd</title>
<path fill="none" stroke="black" d="M584.51,-180.18C578.78,-178.08 572.78,-175.93 567.15,-174 542.01,-165.39 534.83,-165.83 510.15,-156 481.71,-144.68 450.21,-128.88 429.63,-118.09"/>
<text text-anchor="middle" x="530.65" y="-144.8" font-family="Unifont" font-size="14.00">443,80</text>
</g>
<!-- pygopherd -->
<g id="node15" class="node">
<title>pygopherd</title>
<ellipse fill="none" stroke="black" cx="508.15" cy="-105" rx="50.09" ry="18"/>
<text text-anchor="middle" x="508.15" y="-101.3" font-family="Unifont" font-size="14.00">pygopherd</text>
</g>
<!-- httpis&#45;&#45;pygopherd -->
<g id="edge14" class="edge">
<title>httpis&#45;&#45;pygopherd</title>
<path fill="none" stroke="black" d="M594.86,-176.19C576.05,-160.97 546.88,-137.36 527.65,-121.79"/>
<text text-anchor="middle" x="574.15" y="-144.8" font-family="Unifont" font-size="14.00">70</text>
</g>
<!-- dyndns -->
<g id="node16" class="node">
<title>dyndns</title>
<ellipse fill="none" stroke="black" cx="613.15" cy="-105" rx="37.09" ry="18"/>
<text text-anchor="middle" x="613.15" y="-101.3" font-family="Unifont" font-size="14.00">dyndns</text>
</g>
<!-- httpis&#45;&#45;dyndns -->
<g id="edge15" class="edge">
<title>httpis&#45;&#45;dyndns</title>
<path fill="none" stroke="black" d="M613.15,-173.8C613.15,-159.05 613.15,-137.92 613.15,-123.18"/>
</g>
<!-- postfix -->
<g id="node18" class="node">
<title>postfix</title>
<ellipse fill="none" stroke="black" cx="710.15" cy="-105" rx="41.69" ry="18"/>
<text text-anchor="middle" x="710.15" y="-101.3" font-family="Unifont" font-size="14.00">postfix</text>
</g>
<!-- postpi&#45;&#45;postfix -->
<g id="edge17" class="edge">
<title>postpi&#45;&#45;postfix</title>
<path fill="none" stroke="black" d="M710.15,-173.8C710.15,-159.05 710.15,-137.92 710.15,-123.18"/>
<text text-anchor="middle" x="730.65" y="-144.8" font-family="Unifont" font-size="14.00">587,25</text>
</g>
<!-- dovecot -->
<g id="node19" class="node">
<title>dovecot</title>
<ellipse fill="none" stroke="black" cx="811.15" cy="-105" rx="41.69" ry="18"/>
<text text-anchor="middle" x="811.15" y="-101.3" font-family="Unifont" font-size="14.00">dovecot</text>
</g>
<!-- postpi&#45;&#45;dovecot -->
<g id="edge18" class="edge">
<title>postpi&#45;&#45;dovecot</title>
<path fill="none" stroke="black" d="M729.64,-176.29C737.64,-170.14 746.94,-162.84 755.15,-156 768.56,-144.82 783.27,-131.64 794.25,-121.62"/>
<text text-anchor="middle" x="797.15" y="-144.8" font-family="Unifont" font-size="14.00">993,143</text>
</g>
<!-- dockerop -->
<g id="node21" class="node">
<title>dockerop</title>
<ellipse fill="none" stroke="black" cx="908.15" cy="-105" rx="37.09" ry="18"/>
<text text-anchor="middle" x="908.15" y="-101.3" font-family="Unifont" font-size="14.00">docker</text>
</g>
<!-- optiplex3020&#45;&#45;dockerop -->
<g id="edge20" class="edge">
<title>optiplex3020&#45;&#45;dockerop</title>
<path fill="none" stroke="black" d="M1022.6,-187.23C976.56,-182.98 919.08,-174.12 904.15,-156 896.72,-147 898.17,-133.72 901.23,-123.11"/>
<text text-anchor="middle" x="968.65" y="-144.8" font-family="Unifont" font-size="14.00">9323,9053,9052,9050</text>
</g>
<!-- bucket -->
<g id="node23" class="node">
<title>bucket</title>
<ellipse fill="none" stroke="black" cx="1000.15" cy="-105" rx="37.09" ry="18"/>
<text text-anchor="middle" x="1000.15" y="-101.3" font-family="Unifont" font-size="14.00">bucket</text>
</g>
<!-- optiplex3020&#45;&#45;bucket -->
<g id="edge22" class="edge">
<title>optiplex3020&#45;&#45;bucket</title>
<path fill="none" stroke="black" d="M1068.72,-174.1C1059.66,-164.3 1047.91,-151.8 1037.15,-141 1030.65,-134.49 1023.33,-127.49 1016.92,-121.48"/>
<text text-anchor="middle" x="1066.15" y="-144.8" font-family="Unifont" font-size="14.00">8022</text>
</g>
<!-- aggregamus -->
<g id="node24" class="node">
<title>aggregamus</title>
<ellipse fill="none" stroke="black" cx="1110.15" cy="-105" rx="54.69" ry="18"/>
<text text-anchor="middle" x="1110.15" y="-101.3" font-family="Unifont" font-size="14.00">aggregamus</text>
</g>
<!-- optiplex3020&#45;&#45;aggregamus -->
<g id="edge23" class="edge">
<title>optiplex3020&#45;&#45;aggregamus</title>
<path fill="none" stroke="black" d="M1089.41,-173.8C1093.92,-159.05 1100.38,-137.92 1104.89,-123.18"/>
<text text-anchor="middle" x="1112.15" y="-144.8" font-family="Unifont" font-size="14.00">8669</text>
</g>
<!-- inspiriererin -->
<g id="node25" class="node">
<title>inspiriererin</title>
<ellipse fill="none" stroke="black" cx="1250.15" cy="-105" rx="67.69" ry="18"/>
<text text-anchor="middle" x="1250.15" y="-101.3" font-family="Unifont" font-size="14.00">inspiriererin</text>
</g>
<!-- optiplex3020&#45;&#45;inspiriererin -->
<g id="edge24" class="edge">
<title>optiplex3020&#45;&#45;inspiriererin</title>
<path fill="none" stroke="black" d="M1113.44,-176C1143.51,-160.61 1190.04,-136.78 1220.3,-121.28"/>
<text text-anchor="middle" x="1190.15" y="-144.8" font-family="Unifont" font-size="14.00">8989</text>
</g>
<!-- murmur -->
<g id="node26" class="node">
<title>murmur</title>
<ellipse fill="none" stroke="black" cx="1373.15" cy="-105" rx="37.09" ry="18"/>
<text text-anchor="middle" x="1373.15" y="-101.3" font-family="Unifont" font-size="14.00">murmur</text>
</g>
<!-- optiplex3020&#45;&#45;murmur -->
<g id="edge25" class="edge">
<title>optiplex3020&#45;&#45;murmur</title>
<path fill="none" stroke="black" d="M1130.16,-179.31C1179.28,-166.56 1259.22,-145.02 1327.15,-123 1332.98,-121.11 1339.17,-118.94 1345.05,-116.79"/>
<text text-anchor="middle" x="1284.15" y="-144.8" font-family="Unifont" font-size="14.00">64738</text>
</g>
<!-- tor&#45;proxy -->
<g id="node22" class="node">
<title>tor&#45;proxy</title>
<ellipse fill="none" stroke="black" cx="908.15" cy="-18" rx="50.09" ry="18"/>
<text text-anchor="middle" x="908.15" y="-14.3" font-family="Unifont" font-size="14.00">tor&#45;proxy</text>
</g>
<!-- dockerop&#45;&#45;tor&#45;proxy -->
<g id="edge21" class="edge">
<title>dockerop&#45;&#45;tor&#45;proxy</title>
<path fill="none" stroke="black" d="M908.15,-86.8C908.15,-72.05 908.15,-50.92 908.15,-36.18"/>
<text text-anchor="middle" x="955.65" y="-57.8" font-family="Unifont" font-size="14.00">9053,9052,9050</text>
</g>
<!-- sophia -->
<g id="node28" class="node">
<title>sophia</title>
<ellipse fill="none" stroke="black" cx="856.15" cy="-453" rx="37.09" ry="18"/>
<text text-anchor="middle" x="856.15" y="-449.3" font-family="Unifont" font-size="14.00">sophia</text>
</g>
<!-- Nuremberg&#45;&#45;sophia -->
<g id="edge27" class="edge">
<title>Nuremberg&#45;&#45;sophia</title>
<path fill="none" stroke="black" d="M829.03,-521.8C834.96,-506.95 843.49,-485.64 849.39,-470.89"/>
<text text-anchor="middle" x="872.65" y="-492.8" font-family="Unifont" font-size="14.00">443,80,70</text>
</g>
<!-- redirectorkek -->
<g id="node29" class="node">
<title>redirectorkek</title>
<ellipse fill="none" stroke="black" cx="653.15" cy="-366" rx="54.69" ry="18"/>
<text text-anchor="middle" x="653.15" y="-362.3" font-family="Unifont" font-size="14.00">redirector</text>
</g>
<!-- sophia&#45;&#45;redirectorkek -->
<g id="edge32" class="edge">
<title>sophia&#45;&#45;redirectorkek</title>
<path fill="none" stroke="black" d="M824.16,-443.84C801.42,-437.6 770.39,-428.18 744.15,-417 720.76,-407.04 695.53,-392.88 677.58,-382.17"/>
<text text-anchor="middle" x="751.15" y="-405.8" font-family="Unifont" font-size="14.00">80</text>
</g>
<!-- dockersophia -->
<g id="node30" class="node">
<title>dockersophia</title>
<ellipse fill="none" stroke="black" cx="763.15" cy="-366" rx="37.09" ry="18"/>
<text text-anchor="middle" x="763.15" y="-362.3" font-family="Unifont" font-size="14.00">docker</text>
</g>
<!-- sophia&#45;&#45;dockersophia -->
<g id="edge29" class="edge">
<title>sophia&#45;&#45;dockersophia</title>
<path fill="none" stroke="black" d="M821.21,-447C802.47,-442.42 780.72,-433.67 768.15,-417 761.21,-407.8 760.1,-394.8 760.65,-384.36"/>
<text text-anchor="middle" x="809.15" y="-405.8" font-family="Unifont" font-size="14.00">9323,8942,70</text>
</g>
<!-- nginx -->
<g id="node31" class="node">
<title>nginx</title>
<ellipse fill="none" stroke="black" cx="851.15" cy="-366" rx="32.49" ry="18"/>
<text text-anchor="middle" x="851.15" y="-362.3" font-family="Unifont" font-size="14.00">nginx</text>
</g>
<!-- sophia&#45;&#45;nginx -->
<g id="edge28" class="edge">
<title>sophia&#45;&#45;nginx</title>
<path fill="none" stroke="black" d="M855.13,-434.8C854.27,-420.05 853.02,-398.92 852.16,-384.18"/>
<text text-anchor="middle" x="881.65" y="-405.8" font-family="Unifont" font-size="14.00">8169,443</text>
</g>
<!-- jasmin -->
<g id="node34" class="node">
<title>jasmin</title>
<ellipse fill="none" stroke="black" cx="939.15" cy="-366" rx="37.09" ry="18"/>
<text text-anchor="middle" x="939.15" y="-362.3" font-family="Unifont" font-size="14.00">jasmin</text>
</g>
<!-- sophia&#45;&#45;jasmin -->
<g id="edge33" class="edge">
<title>sophia&#45;&#45;jasmin</title>
<path fill="none" stroke="black" d="M882.12,-439.95C892.69,-434.12 904.44,-426.35 913.15,-417 921.95,-407.55 928.59,-394.55 932.95,-384.18"/>
<text text-anchor="middle" x="938.15" y="-405.8" font-family="Unifont" font-size="14.00">8099</text>
</g>
<!-- hanna -->
<g id="node35" class="node">
<title>hanna</title>
<ellipse fill="none" stroke="black" cx="1027.15" cy="-366" rx="32.49" ry="18"/>
<text text-anchor="middle" x="1027.15" y="-362.3" font-family="Unifont" font-size="14.00">hanna</text>
</g>
<!-- sophia&#45;&#45;hanna -->
<g id="edge34" class="edge">
<title>sophia&#45;&#45;hanna</title>
<path fill="none" stroke="black" d="M887.7,-443.41C907.86,-437.34 934.23,-428.27 956.15,-417 975.59,-407 995.78,-392.29 1009.64,-381.41"/>
<text text-anchor="middle" x="995.15" y="-405.8" font-family="Unifont" font-size="14.00">8042</text>
</g>
<!-- deployment -->
<g id="node36" class="node">
<title>deployment</title>
<ellipse fill="none" stroke="black" cx="1132.15" cy="-366" rx="54.69" ry="18"/>
<text text-anchor="middle" x="1132.15" y="-362.3" font-family="Unifont" font-size="14.00">deployment</text>
</g>
<!-- sophia&#45;&#45;deployment -->
<g id="edge35" class="edge">
<title>sophia&#45;&#45;deployment</title>
<path fill="none" stroke="black" d="M890.61,-446.15C922.73,-440.27 971.77,-430.19 1013.15,-417 1044.32,-407.06 1078.64,-392.2 1102.38,-381.26"/>
</g>
<!-- ludwig (pygopherd) -->
<g id="node32" class="node">
<title>ludwig (pygopherd)</title>
<ellipse fill="none" stroke="black" cx="754.15" cy="-279" rx="89.88" ry="18"/>
<text text-anchor="middle" x="754.15" y="-275.3" font-family="Unifont" font-size="14.00">ludwig (pygopherd)</text>
</g>
<!-- dockersophia&#45;&#45;ludwig (pygopherd) -->
<g id="edge30" class="edge">
<title>dockersophia&#45;&#45;ludwig (pygopherd)</title>
<path fill="none" stroke="black" d="M761.32,-347.8C759.76,-333.05 757.53,-311.92 755.96,-297.18"/>
<text text-anchor="middle" x="767.15" y="-318.8" font-family="Unifont" font-size="14.00">70</text>
</g>
<!-- mediawiki -->
<g id="node33" class="node">
<title>mediawiki</title>
<ellipse fill="none" stroke="black" cx="912.15" cy="-279" rx="50.09" ry="18"/>
<text text-anchor="middle" x="912.15" y="-275.3" font-family="Unifont" font-size="14.00">mediawiki</text>
</g>
<!-- dockersophia&#45;&#45;mediawiki -->
<g id="edge31" class="edge">
<title>dockersophia&#45;&#45;mediawiki</title>
<path fill="none" stroke="black" d="M786.43,-351.72C813.6,-336.22 858.39,-310.66 886.53,-294.61"/>
<text text-anchor="middle" x="861.15" y="-318.8" font-family="Unifont" font-size="14.00">8942</text>
</g>
</g>
</svg>
