<?xml version="1.0" encoding="UTF-8" standalone="no"?>
<?xml-stylesheet href="unifont.css" type="text/css"?>
<!DOCTYPE svg PUBLIC "-//W3C//DTD SVG 1.1//EN"
 "http://www.w3.org/Graphics/SVG/1.1/DTD/svg11.dtd">
<!-- Generated by graphviz version 3.0.0 (20220226.1711)
 -->
<!-- Pages: 1 -->
<svg width="1708pt" height="548pt"
 viewBox="0.00 0.00 1708.19 548.00" xmlns="http://www.w3.org/2000/svg" xmlns:xlink="http://www.w3.org/1999/xlink">
<g id="graph0" class="graph" transform="scale(1 1) rotate(0) translate(4 544)">
<polygon fill="white" stroke="transparent" points="-4,4 -4,-544 1704.19,-544 1704.19,4 -4,4"/>
<!-- Big Bad Internet™ -->
<g id="node1" class="node">
<title>Big Bad Internet™</title>
<ellipse fill="none" stroke="black" cx="681.15" cy="-522" rx="85.29" ry="18"/>
<text text-anchor="middle" x="681.15" y="-518.3" font-family="Unifont" font-size="14.00">Big Bad Internet™</text>
</g>
<!-- Rosenhof -->
<g id="node2" class="node">
<title>Rosenhof</title>
<ellipse fill="none" stroke="black" cx="624.15" cy="-450" rx="46.29" ry="18"/>
<text text-anchor="middle" x="624.15" y="-446.3" font-family="Unifont" font-size="14.00">Rosenhof</text>
</g>
<!-- Big Bad Internet™&#45;&#45;Rosenhof -->
<g id="edge1" class="edge">
<title>Big Bad Internet™&#45;&#45;Rosenhof</title>
<path fill="none" stroke="black" d="M667.35,-504.05C658.25,-492.89 646.41,-478.34 637.42,-467.31"/>
</g>
<!-- Nuremberg -->
<g id="node26" class="node">
<title>Nuremberg</title>
<ellipse fill="none" stroke="black" cx="907.15" cy="-450" rx="50.09" ry="18"/>
<text text-anchor="middle" x="907.15" y="-446.3" font-family="Unifont" font-size="14.00">Nuremberg</text>
</g>
<!-- Big Bad Internet™&#45;&#45;Nuremberg -->
<g id="edge25" class="edge">
<title>Big Bad Internet™&#45;&#45;Nuremberg</title>
<path fill="none" stroke="black" d="M727.15,-506.75C769.48,-493.64 831.45,-474.45 870.52,-462.35"/>
</g>
<!-- FB 7530 AX -->
<g id="node3" class="node">
<title>FB 7530 AX</title>
<ellipse fill="none" stroke="black" cx="539.15" cy="-378" rx="54.69" ry="18"/>
<text text-anchor="middle" x="539.15" y="-374.3" font-family="Unifont" font-size="14.00">FB 7530 AX</text>
</g>
<!-- Rosenhof&#45;&#45;FB 7530 AX -->
<g id="edge2" class="edge">
<title>Rosenhof&#45;&#45;FB 7530 AX</title>
<path fill="none" stroke="black" d="M605.28,-433.46C591.39,-422.03 572.56,-406.52 558.55,-394.98"/>
</g>
<!-- NETGEAR XS505M -->
<g id="node4" class="node">
<title>NETGEAR XS505M</title>
<ellipse fill="none" stroke="black" cx="223.15" cy="-306" rx="72.29" ry="18"/>
<text text-anchor="middle" x="223.15" y="-302.3" font-family="Unifont" font-size="14.00">NETGEAR XS505M</text>
</g>
<!-- FB 7530 AX&#45;&#45;NETGEAR XS505M -->
<g id="edge3" class="edge">
<title>FB 7530 AX&#45;&#45;NETGEAR XS505M</title>
<path fill="none" stroke="black" d="M495.21,-367.27C437.55,-354.49 336.49,-332.11 275.11,-318.51"/>
</g>
<!-- Powerline Baba -->
<g id="node9" class="node">
<title>Powerline Baba</title>
<ellipse fill="none" stroke="black" cx="539.15" cy="-306" rx="72.29" ry="18"/>
<text text-anchor="middle" x="539.15" y="-302.3" font-family="Unifont" font-size="14.00">Powerline Baba</text>
</g>
<!-- FB 7530 AX&#45;&#45;Powerline Baba -->
<g id="edge8" class="edge">
<title>FB 7530 AX&#45;&#45;Powerline Baba</title>
<path fill="none" stroke="black" d="M539.15,-359.7C539.15,-348.85 539.15,-334.92 539.15,-324.1"/>
</g>
<!-- dergerät -->
<g id="node5" class="node">
<title>dergerät</title>
<ellipse fill="none" stroke="black" cx="46.15" cy="-234" rx="46.29" ry="18"/>
<text text-anchor="middle" x="46.15" y="-230.3" font-family="Unifont" font-size="14.00">dergerät</text>
</g>
<!-- NETGEAR XS505M&#45;&#45;dergerät -->
<g id="edge4" class="edge">
<title>NETGEAR XS505M&#45;&#45;dergerät</title>
<path fill="none" stroke="black" d="M186.47,-290.5C154.27,-277.76 107.94,-259.44 77.45,-247.38"/>
</g>
<!-- rotmain -->
<g id="node6" class="node">
<title>rotmain</title>
<ellipse fill="none" stroke="black" cx="152.15" cy="-234" rx="41.69" ry="18"/>
<text text-anchor="middle" x="152.15" y="-230.3" font-family="Unifont" font-size="14.00">rotmain</text>
</g>
<!-- NETGEAR XS505M&#45;&#45;rotmain -->
<g id="edge5" class="edge">
<title>NETGEAR XS505M&#45;&#45;rotmain</title>
<path fill="none" stroke="black" d="M206.32,-288.41C194.84,-277.09 179.71,-262.18 168.36,-250.99"/>
</g>
<!-- QNAP QSW&#45;1105&#45;5T -->
<g id="node7" class="node">
<title>QNAP QSW&#45;1105&#45;5T</title>
<ellipse fill="none" stroke="black" cx="293.15" cy="-234" rx="81.49" ry="18"/>
<text text-anchor="middle" x="293.15" y="-230.3" font-family="Unifont" font-size="14.00">QNAP QSW&#45;1105&#45;5T</text>
</g>
<!-- NETGEAR XS505M&#45;&#45;QNAP QSW&#45;1105&#45;5T -->
<g id="edge6" class="edge">
<title>NETGEAR XS505M&#45;&#45;QNAP QSW&#45;1105&#45;5T</title>
<path fill="none" stroke="black" d="M239.73,-288.41C250.73,-277.41 265.12,-263.03 276.19,-251.96"/>
</g>
<!-- GWiFi ServerRoom -->
<g id="node8" class="node">
<title>GWiFi ServerRoom</title>
<ellipse fill="none" stroke="black" cx="249.15" cy="-162" rx="81.49" ry="18"/>
<text text-anchor="middle" x="249.15" y="-158.3" font-family="Unifont" font-size="14.00">GWiFi ServerRoom</text>
</g>
<!-- QNAP QSW&#45;1105&#45;5T&#45;&#45;GWiFi ServerRoom -->
<g id="edge7" class="edge">
<title>QNAP QSW&#45;1105&#45;5T&#45;&#45;GWiFi ServerRoom</title>
<path fill="none" stroke="black" d="M282.49,-216.05C275.68,-205.21 266.86,-191.18 260,-180.28"/>
</g>
<!-- TP&#45;Link TL&#45;SG108 -->
<g id="node10" class="node">
<title>TP&#45;Link TL&#45;SG108</title>
<ellipse fill="none" stroke="black" cx="565.15" cy="-234" rx="81.49" ry="18"/>
<text text-anchor="middle" x="565.15" y="-230.3" font-family="Unifont" font-size="14.00">TP&#45;Link TL&#45;SG108</text>
</g>
<!-- Powerline Baba&#45;&#45;TP&#45;Link TL&#45;SG108 -->
<g id="edge9" class="edge">
<title>Powerline Baba&#45;&#45;TP&#45;Link TL&#45;SG108</title>
<path fill="none" stroke="black" d="M545.44,-288.05C549.47,-277.21 554.68,-263.18 558.73,-252.28"/>
</g>
<!-- GWiFi Baba -->
<g id="node11" class="node">
<title>GWiFi Baba</title>
<ellipse fill="none" stroke="black" cx="403.15" cy="-162" rx="54.69" ry="18"/>
<text text-anchor="middle" x="403.15" y="-158.3" font-family="Unifont" font-size="14.00">GWiFi Baba</text>
</g>
<!-- TP&#45;Link TL&#45;SG108&#45;&#45;GWiFi Baba -->
<g id="edge10" class="edge">
<title>TP&#45;Link TL&#45;SG108&#45;&#45;GWiFi Baba</title>
<path fill="none" stroke="black" d="M529.59,-217.64C501.37,-205.44 462.27,-188.55 435.05,-176.78"/>
</g>
<!-- Baba PC -->
<g id="node12" class="node">
<title>Baba PC</title>
<ellipse fill="none" stroke="black" cx="517.15" cy="-162" rx="41.69" ry="18"/>
<text text-anchor="middle" x="517.15" y="-158.3" font-family="Unifont" font-size="14.00">Baba PC</text>
</g>
<!-- TP&#45;Link TL&#45;SG108&#45;&#45;Baba PC -->
<g id="edge11" class="edge">
<title>TP&#45;Link TL&#45;SG108&#45;&#45;Baba PC</title>
<path fill="none" stroke="black" d="M553.53,-216.05C545.98,-205.05 536.18,-190.76 528.66,-179.79"/>
</g>
<!-- httpis -->
<g id="node13" class="node">
<title>httpis</title>
<ellipse fill="none" stroke="black" cx="614.15" cy="-162" rx="37.09" ry="18"/>
<text text-anchor="middle" x="614.15" y="-158.3" font-family="Unifont" font-size="14.00">httpis</text>
</g>
<!-- TP&#45;Link TL&#45;SG108&#45;&#45;httpis -->
<g id="edge12" class="edge">
<title>TP&#45;Link TL&#45;SG108&#45;&#45;httpis</title>
<path fill="none" stroke="black" d="M577.01,-216.05C584.82,-204.89 595.01,-190.34 602.73,-179.31"/>
</g>
<!-- postpi -->
<g id="node16" class="node">
<title>postpi</title>
<ellipse fill="none" stroke="black" cx="723.15" cy="-162" rx="37.09" ry="18"/>
<text text-anchor="middle" x="723.15" y="-158.3" font-family="Unifont" font-size="14.00">postpi</text>
</g>
<!-- TP&#45;Link TL&#45;SG108&#45;&#45;postpi -->
<g id="edge15" class="edge">
<title>TP&#45;Link TL&#45;SG108&#45;&#45;postpi</title>
<path fill="none" stroke="black" d="M599.82,-217.64C628.89,-204.76 669.8,-186.64 696.39,-174.85"/>
</g>
<!-- optiplex3020 -->
<g id="node19" class="node">
<title>optiplex3020</title>
<ellipse fill="none" stroke="black" cx="1257.15" cy="-162" rx="63.89" ry="18"/>
<text text-anchor="middle" x="1257.15" y="-158.3" font-family="Unifont" font-size="14.00">optiplex3020</text>
</g>
<!-- TP&#45;Link TL&#45;SG108&#45;&#45;optiplex3020 -->
<g id="edge18" class="edge">
<title>TP&#45;Link TL&#45;SG108&#45;&#45;optiplex3020</title>
<path fill="none" stroke="black" d="M633.82,-224.31C656.52,-221.53 681.9,-218.53 705.15,-216 883.88,-196.57 1095.6,-177.28 1197.06,-168.27"/>
</g>
<!-- httpd@443,80 -->
<g id="node14" class="node">
<title>httpd@443,80</title>
<ellipse fill="none" stroke="black" cx="477.15" cy="-90" rx="63.89" ry="18"/>
<text text-anchor="middle" x="477.15" y="-86.3" font-family="Unifont" font-size="14.00">httpd@443,80</text>
</g>
<!-- httpis&#45;&#45;httpd@443,80 -->
<g id="edge13" class="edge">
<title>httpis&#45;&#45;httpd@443,80</title>
<path fill="none" stroke="black" d="M589.65,-148.49C566.41,-136.61 531.44,-118.74 506.67,-106.09"/>
</g>
<!-- dyndns -->
<g id="node15" class="node">
<title>dyndns</title>
<ellipse fill="none" stroke="black" cx="596.15" cy="-90" rx="37.09" ry="18"/>
<text text-anchor="middle" x="596.15" y="-86.3" font-family="Unifont" font-size="14.00">dyndns</text>
</g>
<!-- httpis&#45;&#45;dyndns -->
<g id="edge14" class="edge">
<title>httpis&#45;&#45;dyndns</title>
<path fill="none" stroke="black" d="M609.79,-144.05C607,-133.21 603.39,-119.18 600.59,-108.28"/>
</g>
<!-- postfix@587,25 -->
<g id="node17" class="node">
<title>postfix@587,25</title>
<ellipse fill="none" stroke="black" cx="723.15" cy="-90" rx="72.29" ry="18"/>
<text text-anchor="middle" x="723.15" y="-86.3" font-family="Unifont" font-size="14.00">postfix@587,25</text>
</g>
<!-- postpi&#45;&#45;postfix@587,25 -->
<g id="edge16" class="edge">
<title>postpi&#45;&#45;postfix@587,25</title>
<path fill="none" stroke="black" d="M723.15,-143.7C723.15,-132.85 723.15,-118.92 723.15,-108.1"/>
</g>
<!-- dovecot@993,143 -->
<g id="node18" class="node">
<title>dovecot@993,143</title>
<ellipse fill="none" stroke="black" cx="890.15" cy="-90" rx="76.89" ry="18"/>
<text text-anchor="middle" x="890.15" y="-86.3" font-family="Unifont" font-size="14.00">dovecot@993,143</text>
</g>
<!-- postpi&#45;&#45;dovecot@993,143 -->
<g id="edge17" class="edge">
<title>postpi&#45;&#45;dovecot@993,143</title>
<path fill="none" stroke="black" d="M750.35,-149.6C778.72,-137.7 823.33,-119.01 854.51,-105.94"/>
</g>
<!-- dockerop -->
<g id="node20" class="node">
<title>dockerop</title>
<ellipse fill="none" stroke="black" cx="1044.15" cy="-90" rx="59.29" ry="18"/>
<text text-anchor="middle" x="1044.15" y="-86.3" font-family="Unifont" font-size="14.00">docker@9323</text>
</g>
<!-- optiplex3020&#45;&#45;dockerop -->
<g id="edge19" class="edge">
<title>optiplex3020&#45;&#45;dockerop</title>
<path fill="none" stroke="black" d="M1217.08,-147.83C1178.64,-135.2 1120.97,-116.25 1082.95,-103.75"/>
</g>
<!-- bucket@8022 -->
<g id="node22" class="node">
<title>bucket@8022</title>
<ellipse fill="none" stroke="black" cx="1180.15" cy="-90" rx="59.29" ry="18"/>
<text text-anchor="middle" x="1180.15" y="-86.3" font-family="Unifont" font-size="14.00">bucket@8022</text>
</g>
<!-- optiplex3020&#45;&#45;bucket@8022 -->
<g id="edge21" class="edge">
<title>optiplex3020&#45;&#45;bucket@8022</title>
<path fill="none" stroke="black" d="M1238.9,-144.41C1226.53,-133.17 1210.28,-118.39 1198,-107.23"/>
</g>
<!-- aggregamus@8669 -->
<g id="node23" class="node">
<title>aggregamus@8669</title>
<ellipse fill="none" stroke="black" cx="1334.15" cy="-90" rx="76.89" ry="18"/>
<text text-anchor="middle" x="1334.15" y="-86.3" font-family="Unifont" font-size="14.00">aggregamus@8669</text>
</g>
<!-- optiplex3020&#45;&#45;aggregamus@8669 -->
<g id="edge22" class="edge">
<title>optiplex3020&#45;&#45;aggregamus@8669</title>
<path fill="none" stroke="black" d="M1275.39,-144.41C1287.58,-133.33 1303.55,-118.82 1315.76,-107.71"/>
</g>
<!-- inspiriererin@8989 -->
<g id="node24" class="node">
<title>inspiriererin@8989</title>
<ellipse fill="none" stroke="black" cx="1518.15" cy="-90" rx="89.88" ry="18"/>
<text text-anchor="middle" x="1518.15" y="-86.3" font-family="Unifont" font-size="14.00">inspiriererin@8989</text>
</g>
<!-- optiplex3020&#45;&#45;inspiriererin@8989 -->
<g id="edge23" class="edge">
<title>optiplex3020&#45;&#45;inspiriererin@8989</title>
<path fill="none" stroke="black" d="M1301.72,-149.05C1347.43,-136.78 1418.48,-117.73 1466.59,-104.83"/>
</g>
<!-- murmur -->
<g id="node25" class="node">
<title>murmur</title>
<ellipse fill="none" stroke="black" cx="1663.15" cy="-90" rx="37.09" ry="18"/>
<text text-anchor="middle" x="1663.15" y="-86.3" font-family="Unifont" font-size="14.00">murmur</text>
</g>
<!-- optiplex3020&#45;&#45;murmur -->
<g id="edge24" class="edge">
<title>optiplex3020&#45;&#45;murmur</title>
<path fill="none" stroke="black" d="M1317.46,-155.98C1389.58,-149.1 1513.55,-134.46 1617.15,-108 1623.25,-106.44 1629.67,-104.36 1635.71,-102.2"/>
</g>
<!-- tor&#45;proxy@9053,9052,9050 -->
<g id="node21" class="node">
<title>tor&#45;proxy@9053,9052,9050</title>
<ellipse fill="none" stroke="black" cx="1044.15" cy="-18" rx="116.18" ry="18"/>
<text text-anchor="middle" x="1044.15" y="-14.3" font-family="Unifont" font-size="14.00">tor&#45;proxy@9053,9052,9050</text>
</g>
<!-- dockerop&#45;&#45;tor&#45;proxy@9053,9052,9050 -->
<g id="edge20" class="edge">
<title>dockerop&#45;&#45;tor&#45;proxy@9053,9052,9050</title>
<path fill="none" stroke="black" d="M1044.15,-71.7C1044.15,-60.85 1044.15,-46.92 1044.15,-36.1"/>
</g>
<!-- sophia -->
<g id="node27" class="node">
<title>sophia</title>
<ellipse fill="none" stroke="black" cx="991.15" cy="-378" rx="37.09" ry="18"/>
<text text-anchor="middle" x="991.15" y="-374.3" font-family="Unifont" font-size="14.00">sophia</text>
</g>
<!-- Nuremberg&#45;&#45;sophia -->
<g id="edge26" class="edge">
<title>Nuremberg&#45;&#45;sophia</title>
<path fill="none" stroke="black" d="M926.21,-433.12C940.34,-421.34 959.48,-405.39 973.31,-393.86"/>
</g>
<!-- redirectorkek -->
<g id="node28" class="node">
<title>redirectorkek</title>
<ellipse fill="none" stroke="black" cx="697.15" cy="-306" rx="67.69" ry="18"/>
<text text-anchor="middle" x="697.15" y="-302.3" font-family="Unifont" font-size="14.00">redirector@80</text>
</g>
<!-- sophia&#45;&#45;redirectorkek -->
<g id="edge31" class="edge">
<title>sophia&#45;&#45;redirectorkek</title>
<path fill="none" stroke="black" d="M958.56,-369.24C906.91,-356.94 805.93,-332.9 745.71,-318.56"/>
</g>
<!-- dockersophia -->
<g id="node29" class="node">
<title>dockersophia</title>
<ellipse fill="none" stroke="black" cx="842.15" cy="-306" rx="59.29" ry="18"/>
<text text-anchor="middle" x="842.15" y="-302.3" font-family="Unifont" font-size="14.00">docker@9323</text>
</g>
<!-- sophia&#45;&#45;dockersophia -->
<g id="edge28" class="edge">
<title>sophia&#45;&#45;dockersophia</title>
<path fill="none" stroke="black" d="M965.53,-364.97C939.82,-352.89 900.2,-334.28 872.83,-321.41"/>
</g>
<!-- nginx@8169,443 -->
<g id="node30" class="node">
<title>nginx@8169,443</title>
<ellipse fill="none" stroke="black" cx="991.15" cy="-306" rx="72.29" ry="18"/>
<text text-anchor="middle" x="991.15" y="-302.3" font-family="Unifont" font-size="14.00">nginx@8169,443</text>
</g>
<!-- sophia&#45;&#45;nginx@8169,443 -->
<g id="edge27" class="edge">
<title>sophia&#45;&#45;nginx@8169,443</title>
<path fill="none" stroke="black" d="M991.15,-359.7C991.15,-348.85 991.15,-334.92 991.15,-324.1"/>
</g>
<!-- jasmin@8099 -->
<g id="node33" class="node">
<title>jasmin@8099</title>
<ellipse fill="none" stroke="black" cx="1140.15" cy="-306" rx="59.29" ry="18"/>
<text text-anchor="middle" x="1140.15" y="-302.3" font-family="Unifont" font-size="14.00">jasmin@8099</text>
</g>
<!-- sophia&#45;&#45;jasmin@8099 -->
<g id="edge32" class="edge">
<title>sophia&#45;&#45;jasmin@8099</title>
<path fill="none" stroke="black" d="M1016.76,-364.97C1042.47,-352.89 1082.09,-334.28 1109.46,-321.41"/>
</g>
<!-- hanna@8042 -->
<g id="node34" class="node">
<title>hanna@8042</title>
<ellipse fill="none" stroke="black" cx="1272.15" cy="-306" rx="54.69" ry="18"/>
<text text-anchor="middle" x="1272.15" y="-302.3" font-family="Unifont" font-size="14.00">hanna@8042</text>
</g>
<!-- sophia&#45;&#45;hanna@8042 -->
<g id="edge33" class="edge">
<title>sophia&#45;&#45;hanna@8042</title>
<path fill="none" stroke="black" d="M1023.92,-369.21C1066.45,-359.06 1142.95,-340.62 1208.15,-324 1215.61,-322.1 1223.55,-320.03 1231.21,-318.01"/>
</g>
<!-- deployment -->
<g id="node35" class="node">
<title>deployment</title>
<ellipse fill="none" stroke="black" cx="1399.15" cy="-306" rx="54.69" ry="18"/>
<text text-anchor="middle" x="1399.15" y="-302.3" font-family="Unifont" font-size="14.00">deployment</text>
</g>
<!-- sophia&#45;&#45;deployment -->
<g id="edge34" class="edge">
<title>sophia&#45;&#45;deployment</title>
<path fill="none" stroke="black" d="M1027.14,-372.81C1090.15,-365.17 1224.38,-347.59 1336.15,-324 1343.68,-322.41 1351.66,-320.46 1359.31,-318.47"/>
</g>
<!-- ludwig (pygopherd@70) -->
<g id="node31" class="node">
<title>ludwig (pygopherd@70)</title>
<ellipse fill="none" stroke="black" cx="817.15" cy="-234" rx="102.88" ry="18"/>
<text text-anchor="middle" x="817.15" y="-230.3" font-family="Unifont" font-size="14.00">ludwig (pygopherd@70)</text>
</g>
<!-- dockersophia&#45;&#45;ludwig (pygopherd@70) -->
<g id="edge29" class="edge">
<title>dockersophia&#45;&#45;ludwig (pygopherd@70)</title>
<path fill="none" stroke="black" d="M836.09,-288.05C832.22,-277.21 827.21,-263.18 823.32,-252.28"/>
</g>
<!-- mediawiki@8942 -->
<g id="node32" class="node">
<title>mediawiki@8942</title>
<ellipse fill="none" stroke="black" cx="1010.15" cy="-234" rx="72.29" ry="18"/>
<text text-anchor="middle" x="1010.15" y="-230.3" font-family="Unifont" font-size="14.00">mediawiki@8942</text>
</g>
<!-- dockersophia&#45;&#45;mediawiki@8942 -->
<g id="edge30" class="edge">
<title>dockersophia&#45;&#45;mediawiki@8942</title>
<path fill="none" stroke="black" d="M875.74,-291C904.37,-279.07 945.4,-261.98 974.58,-249.82"/>
</g>
</g>
</svg>
