<?xml version="1.0" encoding="UTF-8" standalone="no"?>
<!DOCTYPE svg PUBLIC "-//W3C//DTD SVG 1.1//EN"
 "http://www.w3.org/Graphics/SVG/1.1/DTD/svg11.dtd">
<!-- Generated by graphviz version 3.0.0 (20220226.1711)
 -->
<!-- Pages: 1 -->
<svg width="2029pt" height="548pt"
 viewBox="0.00 0.00 2029.39 548.00" xmlns="http://www.w3.org/2000/svg" xmlns:xlink="http://www.w3.org/1999/xlink">
<g id="graph0" class="graph" transform="scale(1 1) rotate(0) translate(4 544)">
<polygon fill="white" stroke="transparent" points="-4,4 -4,-544 2025.39,-544 2025.39,4 -4,4"/>
<!-- Big Bad Internet™ -->
<g id="node1" class="node">
<title>Big Bad Internet™</title>
<ellipse fill="none" stroke="black" cx="1202.74" cy="-522" rx="78.79" ry="18"/>
<text text-anchor="middle" x="1202.74" y="-518.3" font-family="Times,serif" font-size="14.00">Big Bad Internet™</text>
</g>
<!-- Rosenhof -->
<g id="node2" class="node">
<title>Rosenhof</title>
<ellipse fill="none" stroke="black" cx="1145.74" cy="-450" rx="44.39" ry="18"/>
<text text-anchor="middle" x="1145.74" y="-446.3" font-family="Times,serif" font-size="14.00">Rosenhof</text>
</g>
<!-- Big Bad Internet™&#45;&#45;Rosenhof -->
<g id="edge1" class="edge">
<title>Big Bad Internet™&#45;&#45;Rosenhof</title>
<path fill="none" stroke="black" d="M1188.95,-504.05C1179.85,-492.89 1168.01,-478.34 1159.02,-467.31"/>
</g>
<!-- Nuremberg -->
<g id="node26" class="node">
<title>Nuremberg</title>
<ellipse fill="none" stroke="black" cx="1455.74" cy="-450" rx="51.19" ry="18"/>
<text text-anchor="middle" x="1455.74" y="-446.3" font-family="Times,serif" font-size="14.00">Nuremberg</text>
</g>
<!-- Big Bad Internet™&#45;&#45;Nuremberg -->
<g id="edge25" class="edge">
<title>Big Bad Internet™&#45;&#45;Nuremberg</title>
<path fill="none" stroke="black" d="M1250.93,-507.67C1299.1,-494.34 1372.25,-474.1 1416.85,-461.76"/>
</g>
<!-- FB 7530 AX -->
<g id="node3" class="node">
<title>FB 7530 AX</title>
<ellipse fill="none" stroke="black" cx="1070.74" cy="-378" rx="55.79" ry="18"/>
<text text-anchor="middle" x="1070.74" y="-374.3" font-family="Times,serif" font-size="14.00">FB 7530 AX</text>
</g>
<!-- Rosenhof&#45;&#45;FB 7530 AX -->
<g id="edge2" class="edge">
<title>Rosenhof&#45;&#45;FB 7530 AX</title>
<path fill="none" stroke="black" d="M1128.73,-433.12C1116.62,-421.82 1100.42,-406.7 1088.22,-395.31"/>
</g>
<!-- Powerline Baba -->
<g id="node4" class="node">
<title>Powerline Baba</title>
<ellipse fill="none" stroke="black" cx="890.74" cy="-306" rx="66.89" ry="18"/>
<text text-anchor="middle" x="890.74" y="-302.3" font-family="Times,serif" font-size="14.00">Powerline Baba</text>
</g>
<!-- FB 7530 AX&#45;&#45;Powerline Baba -->
<g id="edge3" class="edge">
<title>FB 7530 AX&#45;&#45;Powerline Baba</title>
<path fill="none" stroke="black" d="M1036.46,-363.67C1005.15,-351.49 959,-333.54 927.06,-321.12"/>
</g>
<!-- QNAP QSW&#45;1105&#45;5T -->
<g id="node5" class="node">
<title>QNAP QSW&#45;1105&#45;5T</title>
<ellipse fill="none" stroke="black" cx="1070.74" cy="-306" rx="89.88" ry="18"/>
<text text-anchor="middle" x="1070.74" y="-302.3" font-family="Times,serif" font-size="14.00">QNAP QSW&#45;1105&#45;5T</text>
</g>
<!-- FB 7530 AX&#45;&#45;QNAP QSW&#45;1105&#45;5T -->
<g id="edge4" class="edge">
<title>FB 7530 AX&#45;&#45;QNAP QSW&#45;1105&#45;5T</title>
<path fill="none" stroke="black" d="M1070.74,-359.7C1070.74,-348.85 1070.74,-334.92 1070.74,-324.1"/>
</g>
<!-- TP&#45;Link TL&#45;SG108 -->
<g id="node11" class="node">
<title>TP&#45;Link TL&#45;SG108</title>
<ellipse fill="none" stroke="black" cx="751.74" cy="-234" rx="80.69" ry="18"/>
<text text-anchor="middle" x="751.74" y="-230.3" font-family="Times,serif" font-size="14.00">TP&#45;Link TL&#45;SG108</text>
</g>
<!-- Powerline Baba&#45;&#45;TP&#45;Link TL&#45;SG108 -->
<g id="edge10" class="edge">
<title>Powerline Baba&#45;&#45;TP&#45;Link TL&#45;SG108</title>
<path fill="none" stroke="black" d="M860.58,-289.81C837.59,-278.23 806.03,-262.34 782.81,-250.64"/>
</g>
<!-- NETGEAR XS505M -->
<g id="node6" class="node">
<title>NETGEAR XS505M</title>
<ellipse fill="none" stroke="black" cx="1047.74" cy="-234" rx="87.18" ry="18"/>
<text text-anchor="middle" x="1047.74" y="-230.3" font-family="Times,serif" font-size="14.00">NETGEAR XS505M</text>
</g>
<!-- QNAP QSW&#45;1105&#45;5T&#45;&#45;NETGEAR XS505M -->
<g id="edge5" class="edge">
<title>QNAP QSW&#45;1105&#45;5T&#45;&#45;NETGEAR XS505M</title>
<path fill="none" stroke="black" d="M1065.06,-287.7C1061.49,-276.85 1056.92,-262.92 1053.36,-252.1"/>
</g>
<!-- Powerline Pixel -->
<g id="node8" class="node">
<title>Powerline Pixel</title>
<ellipse fill="none" stroke="black" cx="1219.74" cy="-234" rx="66.89" ry="18"/>
<text text-anchor="middle" x="1219.74" y="-230.3" font-family="Times,serif" font-size="14.00">Powerline Pixel</text>
</g>
<!-- QNAP QSW&#45;1105&#45;5T&#45;&#45;Powerline Pixel -->
<g id="edge7" class="edge">
<title>QNAP QSW&#45;1105&#45;5T&#45;&#45;Powerline Pixel</title>
<path fill="none" stroke="black" d="M1104.18,-289.29C1129.24,-277.52 1163.3,-261.52 1187.95,-249.94"/>
</g>
<!-- dergerät -->
<g id="node7" class="node">
<title>dergerät</title>
<ellipse fill="none" stroke="black" cx="1002.74" cy="-162" rx="39.79" ry="18"/>
<text text-anchor="middle" x="1002.74" y="-158.3" font-family="Times,serif" font-size="14.00">dergerät</text>
</g>
<!-- NETGEAR XS505M&#45;&#45;dergerät -->
<g id="edge6" class="edge">
<title>NETGEAR XS505M&#45;&#45;dergerät</title>
<path fill="none" stroke="black" d="M1036.85,-216.05C1029.78,-205.05 1020.59,-190.76 1013.54,-179.79"/>
</g>
<!-- rotmain -->
<g id="node12" class="node">
<title>rotmain</title>
<ellipse fill="none" stroke="black" cx="1098.74" cy="-162" rx="38.19" ry="18"/>
<text text-anchor="middle" x="1098.74" y="-158.3" font-family="Times,serif" font-size="14.00">rotmain</text>
</g>
<!-- NETGEAR XS505M&#45;&#45;rotmain -->
<g id="edge11" class="edge">
<title>NETGEAR XS505M&#45;&#45;rotmain</title>
<path fill="none" stroke="black" d="M1060.09,-216.05C1068.23,-204.89 1078.82,-190.34 1086.86,-179.31"/>
</g>
<!-- GWiFi Pixel -->
<g id="node9" class="node">
<title>GWiFi Pixel</title>
<ellipse fill="none" stroke="black" cx="1300.74" cy="-162" rx="55.79" ry="18"/>
<text text-anchor="middle" x="1300.74" y="-158.3" font-family="Times,serif" font-size="14.00">GWiFi Pixel</text>
</g>
<!-- Powerline Pixel&#45;&#45;GWiFi Pixel -->
<g id="edge8" class="edge">
<title>Powerline Pixel&#45;&#45;GWiFi Pixel</title>
<path fill="none" stroke="black" d="M1238.94,-216.41C1252.04,-205.09 1269.3,-190.18 1282.24,-178.99"/>
</g>
<!-- TB Dock Pixel -->
<g id="node10" class="node">
<title>TB Dock Pixel</title>
<ellipse fill="none" stroke="black" cx="1346.74" cy="-90" rx="63.89" ry="18"/>
<text text-anchor="middle" x="1346.74" y="-86.3" font-family="Times,serif" font-size="14.00">TB Dock Pixel</text>
</g>
<!-- GWiFi Pixel&#45;&#45;TB Dock Pixel -->
<g id="edge9" class="edge">
<title>GWiFi Pixel&#45;&#45;TB Dock Pixel</title>
<path fill="none" stroke="black" d="M1311.88,-144.05C1319.11,-133.05 1328.5,-118.76 1335.71,-107.79"/>
</g>
<!-- httpis -->
<g id="node13" class="node">
<title>httpis</title>
<ellipse fill="none" stroke="black" cx="177.74" cy="-162" rx="30.59" ry="18"/>
<text text-anchor="middle" x="177.74" y="-158.3" font-family="Times,serif" font-size="14.00">httpis</text>
</g>
<!-- TP&#45;Link TL&#45;SG108&#45;&#45;httpis -->
<g id="edge12" class="edge">
<title>TP&#45;Link TL&#45;SG108&#45;&#45;httpis</title>
<path fill="none" stroke="black" d="M682.79,-224.59C557.09,-209.26 295.5,-177.36 207.42,-166.62"/>
</g>
<!-- postpi -->
<g id="node16" class="node">
<title>postpi</title>
<ellipse fill="none" stroke="black" cx="460.74" cy="-162" rx="32.49" ry="18"/>
<text text-anchor="middle" x="460.74" y="-158.3" font-family="Times,serif" font-size="14.00">postpi</text>
</g>
<!-- TP&#45;Link TL&#45;SG108&#45;&#45;postpi -->
<g id="edge15" class="edge">
<title>TP&#45;Link TL&#45;SG108&#45;&#45;postpi</title>
<path fill="none" stroke="black" d="M699.05,-220.32C637.79,-205.59 538.87,-181.79 490,-170.04"/>
</g>
<!-- optiplex3020 -->
<g id="node19" class="node">
<title>optiplex3020</title>
<ellipse fill="none" stroke="black" cx="797.74" cy="-162" rx="57.39" ry="18"/>
<text text-anchor="middle" x="797.74" y="-158.3" font-family="Times,serif" font-size="14.00">optiplex3020</text>
</g>
<!-- TP&#45;Link TL&#45;SG108&#45;&#45;optiplex3020 -->
<g id="edge18" class="edge">
<title>TP&#45;Link TL&#45;SG108&#45;&#45;optiplex3020</title>
<path fill="none" stroke="black" d="M762.88,-216.05C770.11,-205.05 779.5,-190.76 786.71,-179.79"/>
</g>
<!-- httpd@443,80 -->
<g id="node14" class="node">
<title>httpd@443,80</title>
<ellipse fill="none" stroke="black" cx="61.74" cy="-90" rx="61.99" ry="18"/>
<text text-anchor="middle" x="61.74" y="-86.3" font-family="Times,serif" font-size="14.00">httpd@443,80</text>
</g>
<!-- httpis&#45;&#45;httpd@443,80 -->
<g id="edge13" class="edge">
<title>httpis&#45;&#45;httpd@443,80</title>
<path fill="none" stroke="black" d="M157.01,-148.49C137.59,-136.77 108.5,-119.22 87.58,-106.59"/>
</g>
<!-- dyndns -->
<g id="node15" class="node">
<title>dyndns</title>
<ellipse fill="none" stroke="black" cx="177.74" cy="-90" rx="36.29" ry="18"/>
<text text-anchor="middle" x="177.74" y="-86.3" font-family="Times,serif" font-size="14.00">dyndns</text>
</g>
<!-- httpis&#45;&#45;dyndns -->
<g id="edge14" class="edge">
<title>httpis&#45;&#45;dyndns</title>
<path fill="none" stroke="black" d="M177.74,-143.7C177.74,-132.85 177.74,-118.92 177.74,-108.1"/>
</g>
<!-- postfix@587,25 -->
<g id="node17" class="node">
<title>postfix@587,25</title>
<ellipse fill="none" stroke="black" cx="299.74" cy="-90" rx="67.69" ry="18"/>
<text text-anchor="middle" x="299.74" y="-86.3" font-family="Times,serif" font-size="14.00">postfix@587,25</text>
</g>
<!-- postpi&#45;&#45;postfix@587,25 -->
<g id="edge16" class="edge">
<title>postpi&#45;&#45;postfix@587,25</title>
<path fill="none" stroke="black" d="M435.94,-150.22C408.51,-138.29 364.15,-119 333.55,-105.7"/>
</g>
<!-- dovecot@993,143 -->
<g id="node18" class="node">
<title>dovecot@993,143</title>
<ellipse fill="none" stroke="black" cx="460.74" cy="-90" rx="75.29" ry="18"/>
<text text-anchor="middle" x="460.74" y="-86.3" font-family="Times,serif" font-size="14.00">dovecot@993,143</text>
</g>
<!-- postpi&#45;&#45;dovecot@993,143 -->
<g id="edge17" class="edge">
<title>postpi&#45;&#45;dovecot@993,143</title>
<path fill="none" stroke="black" d="M460.74,-143.7C460.74,-132.85 460.74,-118.92 460.74,-108.1"/>
</g>
<!-- dockerop -->
<g id="node20" class="node">
<title>dockerop</title>
<ellipse fill="none" stroke="black" cx="614.74" cy="-90" rx="60.39" ry="18"/>
<text text-anchor="middle" x="614.74" y="-86.3" font-family="Times,serif" font-size="14.00">docker@9323</text>
</g>
<!-- optiplex3020&#45;&#45;dockerop -->
<g id="edge19" class="edge">
<title>optiplex3020&#45;&#45;dockerop</title>
<path fill="none" stroke="black" d="M762.89,-147.67C730.64,-135.33 682.91,-117.07 650.4,-104.64"/>
</g>
<!-- bucket@8022 -->
<g id="node22" class="node">
<title>bucket@8022</title>
<ellipse fill="none" stroke="black" cx="752.74" cy="-90" rx="59.59" ry="18"/>
<text text-anchor="middle" x="752.74" y="-86.3" font-family="Times,serif" font-size="14.00">bucket@8022</text>
</g>
<!-- optiplex3020&#45;&#45;bucket@8022 -->
<g id="edge21" class="edge">
<title>optiplex3020&#45;&#45;bucket@8022</title>
<path fill="none" stroke="black" d="M786.85,-144.05C779.78,-133.05 770.59,-118.76 763.54,-107.79"/>
</g>
<!-- aggregamus@8669 -->
<g id="node23" class="node">
<title>aggregamus@8669</title>
<ellipse fill="none" stroke="black" cx="909.74" cy="-90" rx="79.09" ry="18"/>
<text text-anchor="middle" x="909.74" y="-86.3" font-family="Times,serif" font-size="14.00">aggregamus@8669</text>
</g>
<!-- optiplex3020&#45;&#45;aggregamus@8669 -->
<g id="edge22" class="edge">
<title>optiplex3020&#45;&#45;aggregamus@8669</title>
<path fill="none" stroke="black" d="M822.32,-145.64C840.61,-134.21 865.51,-118.65 884.06,-107.06"/>
</g>
<!-- inspiriererin@8989 -->
<g id="node24" class="node">
<title>inspiriererin@8989</title>
<ellipse fill="none" stroke="black" cx="1086.74" cy="-90" rx="79.09" ry="18"/>
<text text-anchor="middle" x="1086.74" y="-86.3" font-family="Times,serif" font-size="14.00">inspiriererin@8989</text>
</g>
<!-- optiplex3020&#45;&#45;inspiriererin@8989 -->
<g id="edge23" class="edge">
<title>optiplex3020&#45;&#45;inspiriererin@8989</title>
<path fill="none" stroke="black" d="M841.64,-150.37C893.43,-137.82 979.46,-116.99 1034.6,-103.63"/>
</g>
<!-- murmur -->
<g id="node25" class="node">
<title>murmur</title>
<ellipse fill="none" stroke="black" cx="1224.74" cy="-90" rx="40.09" ry="18"/>
<text text-anchor="middle" x="1224.74" y="-86.3" font-family="Times,serif" font-size="14.00">murmur</text>
</g>
<!-- optiplex3020&#45;&#45;murmur -->
<g id="edge24" class="edge">
<title>optiplex3020&#45;&#45;murmur</title>
<path fill="none" stroke="black" d="M850.27,-154.86C938.85,-144.28 1114.22,-122.41 1174.74,-108 1181.34,-106.43 1188.31,-104.35 1194.87,-102.18"/>
</g>
<!-- tor&#45;proxy@9053,9052,9050 -->
<g id="node21" class="node">
<title>tor&#45;proxy@9053,9052,9050</title>
<ellipse fill="none" stroke="black" cx="614.74" cy="-18" rx="109.68" ry="18"/>
<text text-anchor="middle" x="614.74" y="-14.3" font-family="Times,serif" font-size="14.00">tor&#45;proxy@9053,9052,9050</text>
</g>
<!-- dockerop&#45;&#45;tor&#45;proxy@9053,9052,9050 -->
<g id="edge20" class="edge">
<title>dockerop&#45;&#45;tor&#45;proxy@9053,9052,9050</title>
<path fill="none" stroke="black" d="M614.74,-71.7C614.74,-60.85 614.74,-46.92 614.74,-36.1"/>
</g>
<!-- sophia -->
<g id="node27" class="node">
<title>sophia</title>
<ellipse fill="none" stroke="black" cx="1553.74" cy="-378" rx="33.6" ry="18"/>
<text text-anchor="middle" x="1553.74" y="-374.3" font-family="Times,serif" font-size="14.00">sophia</text>
</g>
<!-- Nuremberg&#45;&#45;sophia -->
<g id="edge26" class="edge">
<title>Nuremberg&#45;&#45;sophia</title>
<path fill="none" stroke="black" d="M1477.49,-433.46C1494.52,-421.3 1517.99,-404.54 1534.38,-392.83"/>
</g>
<!-- redirectorkek -->
<g id="node28" class="node">
<title>redirectorkek</title>
<ellipse fill="none" stroke="black" cx="1262.74" cy="-306" rx="61.99" ry="18"/>
<text text-anchor="middle" x="1262.74" y="-302.3" font-family="Times,serif" font-size="14.00">redirector@80</text>
</g>
<!-- sophia&#45;&#45;redirectorkek -->
<g id="edge31" class="edge">
<title>sophia&#45;&#45;redirectorkek</title>
<path fill="none" stroke="black" d="M1523.43,-369.71C1472.33,-357.42 1368.78,-332.51 1308.71,-318.06"/>
</g>
<!-- dockersophia -->
<g id="node29" class="node">
<title>dockersophia</title>
<ellipse fill="none" stroke="black" cx="1402.74" cy="-306" rx="60.39" ry="18"/>
<text text-anchor="middle" x="1402.74" y="-302.3" font-family="Times,serif" font-size="14.00">docker@9323</text>
</g>
<!-- sophia&#45;&#45;dockersophia -->
<g id="edge28" class="edge">
<title>sophia&#45;&#45;dockersophia</title>
<path fill="none" stroke="black" d="M1529.15,-365.6C1503.16,-353.55 1462.1,-334.52 1433.88,-321.43"/>
</g>
<!-- nginx@8169,443 -->
<g id="node30" class="node">
<title>nginx@8169,443</title>
<ellipse fill="none" stroke="black" cx="1553.74" cy="-306" rx="72.29" ry="18"/>
<text text-anchor="middle" x="1553.74" y="-302.3" font-family="Times,serif" font-size="14.00">nginx@8169,443</text>
</g>
<!-- sophia&#45;&#45;nginx@8169,443 -->
<g id="edge27" class="edge">
<title>sophia&#45;&#45;nginx@8169,443</title>
<path fill="none" stroke="black" d="M1553.74,-359.7C1553.74,-348.85 1553.74,-334.92 1553.74,-324.1"/>
</g>
<!-- jasmin@8099 -->
<g id="node33" class="node">
<title>jasmin@8099</title>
<ellipse fill="none" stroke="black" cx="1704.74" cy="-306" rx="60.39" ry="18"/>
<text text-anchor="middle" x="1704.74" y="-302.3" font-family="Times,serif" font-size="14.00">jasmin@8099</text>
</g>
<!-- sophia&#45;&#45;jasmin@8099 -->
<g id="edge32" class="edge">
<title>sophia&#45;&#45;jasmin@8099</title>
<path fill="none" stroke="black" d="M1578.34,-365.6C1604.33,-353.55 1645.39,-334.52 1673.61,-321.43"/>
</g>
<!-- hanna@8042 -->
<g id="node34" class="node">
<title>hanna@8042</title>
<ellipse fill="none" stroke="black" cx="1840.74" cy="-306" rx="57.69" ry="18"/>
<text text-anchor="middle" x="1840.74" y="-302.3" font-family="Times,serif" font-size="14.00">hanna@8042</text>
</g>
<!-- sophia&#45;&#45;hanna@8042 -->
<g id="edge33" class="edge">
<title>sophia&#45;&#45;hanna@8042</title>
<path fill="none" stroke="black" d="M1584.02,-369.83C1626.46,-359.75 1706.05,-340.74 1773.74,-324 1781.43,-322.1 1789.61,-320.05 1797.51,-318.05"/>
</g>
<!-- deployment -->
<g id="node35" class="node">
<title>deployment</title>
<ellipse fill="none" stroke="black" cx="1968.74" cy="-306" rx="52.79" ry="18"/>
<text text-anchor="middle" x="1968.74" y="-302.3" font-family="Times,serif" font-size="14.00">deployment</text>
</g>
<!-- sophia&#45;&#45;deployment -->
<g id="edge34" class="edge">
<title>sophia&#45;&#45;deployment</title>
<path fill="none" stroke="black" d="M1586.69,-373.44C1649.54,-366.35 1790.75,-348.96 1907.74,-324 1915.16,-322.42 1923.01,-320.45 1930.53,-318.43"/>
</g>
<!-- ludwig (pygopherd@70) -->
<g id="node31" class="node">
<title>ludwig (pygopherd@70)</title>
<ellipse fill="none" stroke="black" cx="1402.74" cy="-234" rx="98.28" ry="18"/>
<text text-anchor="middle" x="1402.74" y="-230.3" font-family="Times,serif" font-size="14.00">ludwig (pygopherd@70)</text>
</g>
<!-- dockersophia&#45;&#45;ludwig (pygopherd@70) -->
<g id="edge29" class="edge">
<title>dockersophia&#45;&#45;ludwig (pygopherd@70)</title>
<path fill="none" stroke="black" d="M1402.74,-287.7C1402.74,-276.85 1402.74,-262.92 1402.74,-252.1"/>
</g>
<!-- mediawiki@8942 -->
<g id="node32" class="node">
<title>mediawiki@8942</title>
<ellipse fill="none" stroke="black" cx="1592.74" cy="-234" rx="74.19" ry="18"/>
<text text-anchor="middle" x="1592.74" y="-230.3" font-family="Times,serif" font-size="14.00">mediawiki@8942</text>
</g>
<!-- dockersophia&#45;&#45;mediawiki@8942 -->
<g id="edge30" class="edge">
<title>dockersophia&#45;&#45;mediawiki@8942</title>
<path fill="none" stroke="black" d="M1439.38,-291.5C1472.16,-279.43 1520.08,-261.77 1553.61,-249.42"/>
</g>
</g>
</svg>
