<?xml version="1.0" encoding="UTF-8" standalone="no"?>
<?xml-stylesheet href="unifont.css" type="text/css"?>
<!DOCTYPE svg PUBLIC "-//W3C//DTD SVG 1.1//EN"
 "http://www.w3.org/Graphics/SVG/1.1/DTD/svg11.dtd">
<!-- Generated by graphviz version 8.0.4 (20230421.1958)
 -->
<!-- Pages: 1 -->
<svg width="1522pt" height="749pt"
 viewBox="0.00 0.00 1521.67 749.00" xmlns="http://www.w3.org/2000/svg" xmlns:xlink="http://www.w3.org/1999/xlink">
<g id="graph0" class="graph" transform="scale(1 1) rotate(0) translate(4 745)">
<polygon fill="white" stroke="none" points="-4,4 -4,-745 1517.67,-745 1517.67,4 -4,4"/>
<!-- FB 7530 AX -->
<g id="node1" class="node">
<title>FB 7530 AX</title>
<ellipse fill="none" stroke="black" cx="613.72" cy="-459" rx="54.27" ry="18"/>
<text text-anchor="middle" x="613.72" y="-453.2" font-family="Unifont" font-size="14.00">FB 7530 AX</text>
</g>
<!-- rotmain -->
<g id="node2" class="node">
<title>rotmain</title>
<ellipse fill="none" stroke="black" cx="517.72" cy="-312" rx="41.11" ry="18"/>
<text text-anchor="middle" x="517.72" y="-306.2" font-family="Unifont" font-size="14.00">rotmain</text>
</g>
<!-- FB 7530 AX&#45;&#45;rotmain -->
<g id="edge1" class="edge">
<title>FB 7530 AX&#45;&#45;rotmain</title>
<path fill="none" stroke="black" d="M597.91,-441.46C592.81,-435.8 587.31,-429.3 582.72,-423 560,-391.8 538.14,-352.19 526.46,-330.02"/>
<text text-anchor="middle" x="596.22" y="-409.7" font-family="Unifont" font-size="14.00">21</text>
<text text-anchor="middle" x="596.22" y="-394.7" font-family="Unifont" font-size="14.00">548</text>
<text text-anchor="middle" x="596.22" y="-379.7" font-family="Unifont" font-size="14.00">873</text>
<text text-anchor="middle" x="596.22" y="-364.7" font-family="Unifont" font-size="14.00">2049</text>
<text text-anchor="middle" x="596.22" y="-349.7" font-family="Unifont" font-size="14.00">…</text>
</g>
<!-- tobias -->
<g id="node5" class="node">
<title>tobias</title>
<ellipse fill="none" stroke="black" cx="613.72" cy="-312" rx="36.72" ry="18"/>
<text text-anchor="middle" x="613.72" y="-306.2" font-family="Unifont" font-size="14.00">tobias</text>
</g>
<!-- FB 7530 AX&#45;&#45;tobias -->
<g id="edge4" class="edge">
<title>FB 7530 AX&#45;&#45;tobias</title>
<path fill="none" stroke="black" d="M613.72,-440.51C613.72,-412.49 613.72,-357.87 613.72,-330.1"/>
<text text-anchor="middle" x="637.35" y="-402.2" font-family="Unifont" font-size="14.00">993,143</text>
<text text-anchor="middle" x="637.35" y="-387.2" font-family="Unifont" font-size="14.00">587,25</text>
<text text-anchor="middle" x="637.35" y="-372.2" font-family="Unifont" font-size="14.00">443,80</text>
<text text-anchor="middle" x="637.35" y="-357.2" font-family="Unifont" font-size="14.00">70</text>
</g>
<!-- Big Bad Internet™ -->
<g id="node3" class="node">
<title>Big Bad Internet™</title>
<ellipse fill="none" stroke="black" cx="904.72" cy="-723" rx="84.98" ry="18"/>
<text text-anchor="middle" x="904.72" y="-717.2" font-family="Unifont" font-size="14.00">Big Bad Internet™</text>
</g>
<!-- Rosenhof -->
<g id="node4" class="node">
<title>Rosenhof</title>
<ellipse fill="none" stroke="black" cx="848.72" cy="-591" rx="45.5" ry="18"/>
<text text-anchor="middle" x="848.72" y="-585.2" font-family="Unifont" font-size="14.00">Rosenhof</text>
</g>
<!-- Big Bad Internet™&#45;&#45;Rosenhof -->
<g id="edge2" class="edge">
<title>Big Bad Internet™&#45;&#45;Rosenhof</title>
<path fill="none" stroke="black" d="M897.29,-704.74C886.52,-679.73 866.7,-633.73 856.01,-608.92"/>
<text text-anchor="middle" x="912.35" y="-673.7" font-family="Unifont" font-size="14.00">993,143</text>
<text text-anchor="middle" x="912.35" y="-658.7" font-family="Unifont" font-size="14.00">587,25</text>
<text text-anchor="middle" x="912.35" y="-643.7" font-family="Unifont" font-size="14.00">443,80</text>
<text text-anchor="middle" x="912.35" y="-628.7" font-family="Unifont" font-size="14.00">70</text>
</g>
<!-- Nuremberg -->
<g id="node19" class="node">
<title>Nuremberg</title>
<ellipse fill="none" stroke="black" cx="1000.72" cy="-591" rx="49.88" ry="18"/>
<text text-anchor="middle" x="1000.72" y="-585.2" font-family="Unifont" font-size="14.00">Nuremberg</text>
</g>
<!-- Big Bad Internet™&#45;&#45;Nuremberg -->
<g id="edge18" class="edge">
<title>Big Bad Internet™&#45;&#45;Nuremberg</title>
<path fill="none" stroke="black" d="M922.94,-705.25C928.59,-699.68 934.65,-693.29 939.72,-687 960.38,-661.36 980.19,-628.46 991.38,-608.87"/>
<text text-anchor="middle" x="1000.97" y="-666.2" font-family="Unifont" font-size="14.00">8080</text>
<text text-anchor="middle" x="1000.97" y="-651.2" font-family="Unifont" font-size="14.00">443,80</text>
<text text-anchor="middle" x="1000.97" y="-636.2" font-family="Unifont" font-size="14.00">70</text>
</g>
<!-- Rosenhof&#45;&#45;FB 7530 AX -->
<g id="edge3" class="edge">
<title>Rosenhof&#45;&#45;FB 7530 AX</title>
<path fill="none" stroke="black" d="M823.13,-575.84C778.4,-551.1 686.43,-500.22 640.73,-474.94"/>
<text text-anchor="middle" x="803.35" y="-541.7" font-family="Unifont" font-size="14.00">993,143</text>
<text text-anchor="middle" x="803.35" y="-526.7" font-family="Unifont" font-size="14.00">587,25</text>
<text text-anchor="middle" x="803.35" y="-511.7" font-family="Unifont" font-size="14.00">443,80</text>
<text text-anchor="middle" x="803.35" y="-496.7" font-family="Unifont" font-size="14.00">70</text>
</g>
<!-- dockerop -->
<g id="node6" class="node">
<title>dockerop</title>
<ellipse fill="none" stroke="black" cx="400.72" cy="-135" rx="36.72" ry="18"/>
<text text-anchor="middle" x="400.72" y="-129.2" font-family="Unifont" font-size="14.00">docker</text>
</g>
<!-- tobias&#45;&#45;dockerop -->
<g id="edge5" class="edge">
<title>tobias&#45;&#45;dockerop</title>
<path fill="none" stroke="black" d="M586.31,-299.71C580.27,-297.54 573.84,-295.49 567.72,-294 536.5,-286.38 447.41,-298.25 424.22,-276 390.61,-243.75 393.82,-182.81 397.8,-153.12"/>
<text text-anchor="middle" x="471.97" y="-262.7" font-family="Unifont" font-size="14.00">25565</text>
<text text-anchor="middle" x="471.97" y="-247.7" font-family="Unifont" font-size="14.00">9323</text>
<text text-anchor="middle" x="471.97" y="-232.7" font-family="Unifont" font-size="14.00">9053,9052,9050</text>
<text text-anchor="middle" x="471.97" y="-217.7" font-family="Unifont" font-size="14.00">993,143</text>
<text text-anchor="middle" x="471.97" y="-202.7" font-family="Unifont" font-size="14.00">587,25</text>
<text text-anchor="middle" x="471.97" y="-187.7" font-family="Unifont" font-size="14.00">443,80</text>
<text text-anchor="middle" x="471.97" y="-172.7" font-family="Unifont" font-size="14.00">70</text>
</g>
<!-- bucket -->
<g id="node16" class="node">
<title>bucket</title>
<ellipse fill="none" stroke="black" cx="504.72" cy="-135" rx="36.72" ry="18"/>
<text text-anchor="middle" x="504.72" y="-129.2" font-family="Unifont" font-size="14.00">bucket</text>
</g>
<!-- tobias&#45;&#45;bucket -->
<g id="edge15" class="edge">
<title>tobias&#45;&#45;bucket</title>
<path fill="none" stroke="black" d="M598.45,-295.23C593.17,-289.41 587.42,-282.62 582.72,-276 552.96,-234.01 525.48,-179.59 512.52,-152.64"/>
<text text-anchor="middle" x="596.22" y="-217.7" font-family="Unifont" font-size="14.00">8022</text>
</g>
<!-- aggregamus -->
<g id="node17" class="node">
<title>aggregamus</title>
<ellipse fill="none" stroke="black" cx="613.72" cy="-135" rx="54.27" ry="18"/>
<text text-anchor="middle" x="613.72" y="-129.2" font-family="Unifont" font-size="14.00">aggregamus</text>
</g>
<!-- tobias&#45;&#45;aggregamus -->
<g id="edge16" class="edge">
<title>tobias&#45;&#45;aggregamus</title>
<path fill="none" stroke="black" d="M613.72,-293.58C613.72,-260.04 613.72,-186.84 613.72,-153.35"/>
<text text-anchor="middle" x="627.22" y="-217.7" font-family="Unifont" font-size="14.00">8669</text>
</g>
<!-- backup.timer -->
<g id="node18" class="node">
<title>backup.timer</title>
<ellipse fill="none" stroke="black" cx="748.72" cy="-135" rx="63.04" ry="18"/>
<text text-anchor="middle" x="748.72" y="-129.2" font-family="Unifont" font-size="14.00">backup.timer</text>
</g>
<!-- tobias&#45;&#45;backup.timer -->
<g id="edge17" class="edge">
<title>tobias&#45;&#45;backup.timer</title>
<path fill="none" stroke="black" d="M628.21,-295.22C633.52,-289.29 639.5,-282.43 644.72,-276 679.64,-232.98 717.78,-179.93 736.69,-153.17"/>
</g>
<!-- ludwigop -->
<g id="node7" class="node">
<title>ludwigop</title>
<ellipse fill="none" stroke="black" cx="36.72" cy="-18" rx="36.72" ry="18"/>
<text text-anchor="middle" x="36.72" y="-12.2" font-family="Unifont" font-size="14.00">ludwig</text>
</g>
<!-- dockerop&#45;&#45;ludwigop -->
<g id="edge8" class="edge">
<title>dockerop&#45;&#45;ludwigop</title>
<path fill="none" stroke="black" d="M363.68,-134.2C313.54,-133.3 222.1,-127.41 150.22,-99 111.66,-83.76 73.68,-52.88 52.91,-34.26"/>
<text text-anchor="middle" x="157.47" y="-70.7" font-family="Unifont" font-size="14.00">70</text>
</g>
<!-- nginxop -->
<g id="node8" class="node">
<title>nginxop</title>
<ellipse fill="none" stroke="black" cx="123.72" cy="-18" rx="32.33" ry="18"/>
<text text-anchor="middle" x="123.72" y="-12.2" font-family="Unifont" font-size="14.00">nginx</text>
</g>
<!-- dockerop&#45;&#45;nginxop -->
<g id="edge7" class="edge">
<title>dockerop&#45;&#45;nginxop</title>
<path fill="none" stroke="black" d="M364.83,-130.6C330.67,-126.39 278.39,-117.39 236.47,-99 198.67,-82.41 160.77,-52 139.96,-33.83"/>
<text text-anchor="middle" x="246.85" y="-78.2" font-family="Unifont" font-size="14.00">443</text>
<text text-anchor="middle" x="246.85" y="-63.2" font-family="Unifont" font-size="14.00">80</text>
</g>
<!-- tor&#45;proxy -->
<g id="node9" class="node">
<title>tor&#45;proxy</title>
<ellipse fill="none" stroke="black" cx="223.72" cy="-18" rx="49.88" ry="18"/>
<text text-anchor="middle" x="223.72" y="-12.2" font-family="Unifont" font-size="14.00">tor&#45;proxy</text>
</g>
<!-- dockerop&#45;&#45;tor&#45;proxy -->
<g id="edge6" class="edge">
<title>dockerop&#45;&#45;tor&#45;proxy</title>
<path fill="none" stroke="black" d="M371.23,-124.08C354.87,-117.97 334.5,-109.33 317.72,-99 287.8,-80.57 257.64,-52.92 239.82,-35.43"/>
<text text-anchor="middle" x="331.22" y="-85.7" font-family="Unifont" font-size="14.00">9053</text>
<text text-anchor="middle" x="331.22" y="-70.7" font-family="Unifont" font-size="14.00">9052</text>
<text text-anchor="middle" x="331.22" y="-55.7" font-family="Unifont" font-size="14.00">9050</text>
</g>
<!-- simon -->
<g id="node10" class="node">
<title>simon</title>
<ellipse fill="none" stroke="black" cx="323.72" cy="-18" rx="32.33" ry="18"/>
<text text-anchor="middle" x="323.72" y="-12.2" font-family="Unifont" font-size="14.00">simon</text>
</g>
<!-- dockerop&#45;&#45;simon -->
<g id="edge9" class="edge">
<title>dockerop&#45;&#45;simon</title>
<path fill="none" stroke="black" d="M389.69,-117.52C374.97,-95.54 349.07,-56.86 334.49,-35.08"/>
</g>
<!-- ali -->
<g id="node11" class="node">
<title>ali</title>
<ellipse fill="none" stroke="black" cx="400.72" cy="-18" rx="27" ry="18"/>
<text text-anchor="middle" x="400.72" y="-12.2" font-family="Unifont" font-size="14.00">ali</text>
</g>
<!-- dockerop&#45;&#45;ali -->
<g id="edge10" class="edge">
<title>dockerop&#45;&#45;ali</title>
<path fill="none" stroke="black" d="M400.72,-116.53C400.72,-94.79 400.72,-57.89 400.72,-36.25"/>
<text text-anchor="middle" x="424.35" y="-78.2" font-family="Unifont" font-size="14.00">993,143</text>
<text text-anchor="middle" x="424.35" y="-63.2" font-family="Unifont" font-size="14.00">587,25</text>
</g>
<!-- murmur -->
<g id="node12" class="node">
<title>murmur</title>
<ellipse fill="none" stroke="black" cx="482.72" cy="-18" rx="36.72" ry="18"/>
<text text-anchor="middle" x="482.72" y="-12.2" font-family="Unifont" font-size="14.00">murmur</text>
</g>
<!-- dockerop&#45;&#45;murmur -->
<g id="edge11" class="edge">
<title>dockerop&#45;&#45;murmur</title>
<path fill="none" stroke="black" d="M425.46,-121.23C434.7,-115.46 444.66,-107.93 451.72,-99 466.6,-80.2 475.03,-53.4 479.23,-36.11"/>
<text text-anchor="middle" x="490.6" y="-70.7" font-family="Unifont" font-size="14.00">64738</text>
</g>
<!-- minecraft -->
<g id="node13" class="node">
<title>minecraft</title>
<ellipse fill="none" stroke="black" cx="587.72" cy="-18" rx="49.88" ry="18"/>
<text text-anchor="middle" x="587.72" y="-12.2" font-family="Unifont" font-size="14.00">minecraft</text>
</g>
<!-- dockerop&#45;&#45;minecraft -->
<g id="edge12" class="edge">
<title>dockerop&#45;&#45;minecraft</title>
<path fill="none" stroke="black" d="M431.49,-124.71C463.1,-115.11 508.19,-101.21 511.72,-99 538.53,-82.26 562.35,-53.86 575.9,-35.79"/>
<text text-anchor="middle" x="577.6" y="-70.7" font-family="Unifont" font-size="14.00">25565</text>
</g>
<!-- home&#45;assistant -->
<g id="node14" class="node">
<title>home&#45;assistant</title>
<ellipse fill="none" stroke="black" cx="727.72" cy="-18" rx="71.82" ry="18"/>
<text text-anchor="middle" x="727.72" y="-12.2" font-family="Unifont" font-size="14.00">home&#45;assistant</text>
</g>
<!-- dockerop&#45;&#45;home&#45;assistant -->
<g id="edge13" class="edge">
<title>dockerop&#45;&#45;home&#45;assistant</title>
<path fill="none" stroke="black" d="M430.9,-124.18C439.79,-121.55 449.58,-118.91 458.72,-117 520.12,-104.14 539.61,-120.01 598.72,-99 640.44,-84.17 682.96,-54.35 707.26,-35.6"/>
<text text-anchor="middle" x="695.22" y="-70.7" font-family="Unifont" font-size="14.00">8123</text>
</g>
<!-- inventree -->
<g id="node15" class="node">
<title>inventree</title>
<ellipse fill="none" stroke="black" cx="867.72" cy="-18" rx="49.88" ry="18"/>
<text text-anchor="middle" x="867.72" y="-12.2" font-family="Unifont" font-size="14.00">inventree</text>
</g>
<!-- dockerop&#45;&#45;inventree -->
<g id="edge14" class="edge">
<title>dockerop&#45;&#45;inventree</title>
<path fill="none" stroke="black" d="M430.53,-123.93C439.5,-121.27 449.43,-118.67 458.72,-117 570.11,-96.97 603.76,-129.58 712.72,-99 763.02,-84.89 815.91,-53.47 845.06,-34.48"/>
</g>
<!-- sophia -->
<g id="node20" class="node">
<title>sophia</title>
<ellipse fill="none" stroke="black" cx="1040.72" cy="-459" rx="36.72" ry="18"/>
<text text-anchor="middle" x="1040.72" y="-453.2" font-family="Unifont" font-size="14.00">sophia</text>
</g>
<!-- Nuremberg&#45;&#45;sophia -->
<g id="edge19" class="edge">
<title>Nuremberg&#45;&#45;sophia</title>
<path fill="none" stroke="black" d="M1006.03,-572.74C1013.73,-547.73 1027.88,-501.73 1035.52,-476.92"/>
<text text-anchor="middle" x="1049.97" y="-534.2" font-family="Unifont" font-size="14.00">8080</text>
<text text-anchor="middle" x="1049.97" y="-519.2" font-family="Unifont" font-size="14.00">443,80</text>
<text text-anchor="middle" x="1049.97" y="-504.2" font-family="Unifont" font-size="14.00">70</text>
</g>
<!-- redirectorkek -->
<g id="node21" class="node">
<title>redirectorkek</title>
<ellipse fill="none" stroke="black" cx="757.72" cy="-312" rx="54.27" ry="18"/>
<text text-anchor="middle" x="757.72" y="-306.2" font-family="Unifont" font-size="14.00">redirector</text>
</g>
<!-- sophia&#45;&#45;redirectorkek -->
<g id="edge24" class="edge">
<title>sophia&#45;&#45;redirectorkek</title>
<path fill="none" stroke="black" d="M1003.97,-456.95C966.91,-454.49 909.06,-446.77 865.22,-423 822.73,-399.96 786.59,-354.51 769.06,-329.86"/>
<text text-anchor="middle" x="872.47" y="-379.7" font-family="Unifont" font-size="14.00">80</text>
</g>
<!-- dockersophia -->
<g id="node22" class="node">
<title>dockersophia</title>
<ellipse fill="none" stroke="black" cx="866.72" cy="-312" rx="36.72" ry="18"/>
<text text-anchor="middle" x="866.72" y="-306.2" font-family="Unifont" font-size="14.00">docker</text>
</g>
<!-- sophia&#45;&#45;dockersophia -->
<g id="edge21" class="edge">
<title>sophia&#45;&#45;dockersophia</title>
<path fill="none" stroke="black" d="M1006.32,-452.11C985.14,-447.13 958.38,-438.28 938.72,-423 906.47,-397.92 884.12,-354.13 873.59,-330.06"/>
<text text-anchor="middle" x="952.22" y="-394.7" font-family="Unifont" font-size="14.00">9323</text>
<text text-anchor="middle" x="952.22" y="-379.7" font-family="Unifont" font-size="14.00">8942</text>
<text text-anchor="middle" x="952.22" y="-364.7" font-family="Unifont" font-size="14.00">70</text>
</g>
<!-- nginxsophia -->
<g id="node24" class="node">
<title>nginxsophia</title>
<ellipse fill="none" stroke="black" cx="953.72" cy="-312" rx="32.33" ry="18"/>
<text text-anchor="middle" x="953.72" y="-306.2" font-family="Unifont" font-size="14.00">nginx</text>
</g>
<!-- sophia&#45;&#45;nginxsophia -->
<g id="edge20" class="edge">
<title>sophia&#45;&#45;nginxsophia</title>
<path fill="none" stroke="black" d="M1025.31,-442.32C1020.02,-436.52 1014.29,-429.71 1009.72,-423 988.61,-392 970.19,-351.98 960.65,-329.76"/>
<text text-anchor="middle" x="1023.22" y="-387.2" font-family="Unifont" font-size="14.00">8169</text>
<text text-anchor="middle" x="1023.22" y="-372.2" font-family="Unifont" font-size="14.00">443</text>
</g>
<!-- jasmin -->
<g id="node26" class="node">
<title>jasmin</title>
<ellipse fill="none" stroke="black" cx="1040.72" cy="-312" rx="36.72" ry="18"/>
<text text-anchor="middle" x="1040.72" y="-306.2" font-family="Unifont" font-size="14.00">jasmin</text>
</g>
<!-- sophia&#45;&#45;jasmin -->
<g id="edge25" class="edge">
<title>sophia&#45;&#45;jasmin</title>
<path fill="none" stroke="black" d="M1040.72,-440.51C1040.72,-412.49 1040.72,-357.87 1040.72,-330.1"/>
<text text-anchor="middle" x="1054.22" y="-379.7" font-family="Unifont" font-size="14.00">8099</text>
</g>
<!-- erwin -->
<g id="node27" class="node">
<title>erwin</title>
<ellipse fill="none" stroke="black" cx="1127.72" cy="-312" rx="32.33" ry="18"/>
<text text-anchor="middle" x="1127.72" y="-306.2" font-family="Unifont" font-size="14.00">erwin</text>
</g>
<!-- sophia&#45;&#45;erwin -->
<g id="edge26" class="edge">
<title>sophia&#45;&#45;erwin</title>
<path fill="none" stroke="black" d="M1056.14,-442.32C1061.42,-436.52 1067.15,-429.71 1071.72,-423 1092.83,-392 1111.25,-351.98 1120.79,-329.76"/>
<text text-anchor="middle" x="1126.22" y="-379.7" font-family="Unifont" font-size="14.00">8080</text>
</g>
<!-- deployment -->
<g id="node28" class="node">
<title>deployment</title>
<ellipse fill="none" stroke="black" cx="1232.72" cy="-312" rx="54.27" ry="18"/>
<text text-anchor="middle" x="1232.72" y="-306.2" font-family="Unifont" font-size="14.00">deployment</text>
</g>
<!-- sophia&#45;&#45;deployment -->
<g id="edge27" class="edge">
<title>sophia&#45;&#45;deployment</title>
<path fill="none" stroke="black" d="M1074.46,-451.59C1095.72,-446.39 1122.96,-437.48 1143.72,-423 1179.79,-397.84 1208.93,-354.09 1223.2,-330.04"/>
</g>
<!-- inspiriererin -->
<g id="node29" class="node">
<title>inspiriererin</title>
<ellipse fill="none" stroke="black" cx="1372.72" cy="-312" rx="67.43" ry="18"/>
<text text-anchor="middle" x="1372.72" y="-306.2" font-family="Unifont" font-size="14.00">inspiriererin</text>
</g>
<!-- sophia&#45;&#45;inspiriererin -->
<g id="edge28" class="edge">
<title>sophia&#45;&#45;inspiriererin</title>
<path fill="none" stroke="black" d="M1075.87,-453.11C1107.1,-448 1153.59,-438.54 1191.72,-423 1253.36,-397.89 1318.32,-353.3 1351.09,-329.33"/>
<text text-anchor="middle" x="1337.22" y="-379.7" font-family="Unifont" font-size="14.00">8989</text>
</g>
<!-- jana -->
<g id="node30" class="node">
<title>jana</title>
<ellipse fill="none" stroke="black" cx="1485.72" cy="-312" rx="27.95" ry="18"/>
<text text-anchor="middle" x="1485.72" y="-306.2" font-family="Unifont" font-size="14.00">jana</text>
</g>
<!-- sophia&#45;&#45;jana -->
<g id="edge29" class="edge">
<title>sophia&#45;&#45;jana</title>
<path fill="none" stroke="black" d="M1077.61,-456.56C1149.51,-453.32 1305.63,-444.03 1354.72,-423 1405.5,-401.25 1451.64,-353.04 1473.08,-328.3"/>
</g>
<!-- ludwigsophia -->
<g id="node23" class="node">
<title>ludwigsophia</title>
<ellipse fill="none" stroke="black" cx="866.72" cy="-135" rx="36.72" ry="18"/>
<text text-anchor="middle" x="866.72" y="-129.2" font-family="Unifont" font-size="14.00">ludwig</text>
</g>
<!-- dockersophia&#45;&#45;ludwigsophia -->
<g id="edge22" class="edge">
<title>dockersophia&#45;&#45;ludwigsophia</title>
<path fill="none" stroke="black" d="M866.72,-293.58C866.72,-260.04 866.72,-186.84 866.72,-153.35"/>
<text text-anchor="middle" x="873.47" y="-217.7" font-family="Unifont" font-size="14.00">70</text>
</g>
<!-- etherpad -->
<g id="node25" class="node">
<title>etherpad</title>
<ellipse fill="none" stroke="black" cx="966.72" cy="-135" rx="45.5" ry="18"/>
<text text-anchor="middle" x="966.72" y="-129.2" font-family="Unifont" font-size="14.00">etherpad</text>
</g>
<!-- dockersophia&#45;&#45;etherpad -->
<g id="edge23" class="edge">
<title>dockersophia&#45;&#45;etherpad</title>
<path fill="none" stroke="black" d="M876.31,-294.22C895.38,-260.86 937.85,-186.52 957.02,-152.99"/>
<text text-anchor="middle" x="959.22" y="-217.7" font-family="Unifont" font-size="14.00">9001</text>
</g>
</g>
</svg>
