<?xml version="1.0" encoding="UTF-8" standalone="no"?>
<!DOCTYPE svg PUBLIC "-//W3C//DTD SVG 1.1//EN"
 "http://www.w3.org/Graphics/SVG/1.1/DTD/svg11.dtd">
<!-- Generated by graphviz version 3.0.0 (20220226.1711)
 -->
<!-- Pages: 1 -->
<svg width="1448pt" height="548pt"
 viewBox="0.00 0.00 1448.24 548.00" xmlns="http://www.w3.org/2000/svg" xmlns:xlink="http://www.w3.org/1999/xlink">
<g id="graph0" class="graph" transform="scale(1 1) rotate(0) translate(4 544)">
<polygon fill="white" stroke="transparent" points="-4,4 -4,-544 1444.24,-544 1444.24,4 -4,4"/>
<!-- Big Bad Internet™ -->
<g id="node1" class="node">
<title>Big Bad Internet™</title>
<ellipse fill="none" stroke="black" cx="831.6" cy="-522" rx="78.79" ry="18"/>
<text text-anchor="middle" x="831.6" y="-518.3" font-family="Times,serif" font-size="14.00">Big Bad Internet™</text>
</g>
<!-- Rosenhof -->
<g id="node2" class="node">
<title>Rosenhof</title>
<ellipse fill="none" stroke="black" cx="774.6" cy="-450" rx="44.39" ry="18"/>
<text text-anchor="middle" x="774.6" y="-446.3" font-family="Times,serif" font-size="14.00">Rosenhof</text>
</g>
<!-- Big Bad Internet™&#45;&#45;Rosenhof -->
<g id="edge1" class="edge">
<title>Big Bad Internet™&#45;&#45;Rosenhof</title>
<path fill="none" stroke="black" d="M817.8,-504.05C808.71,-492.89 796.86,-478.34 787.88,-467.31"/>
</g>
<!-- Nuremberg -->
<g id="node26" class="node">
<title>Nuremberg</title>
<ellipse fill="none" stroke="black" cx="1041.6" cy="-450" rx="51.19" ry="18"/>
<text text-anchor="middle" x="1041.6" y="-446.3" font-family="Times,serif" font-size="14.00">Nuremberg</text>
</g>
<!-- Big Bad Internet™&#45;&#45;Nuremberg -->
<g id="edge25" class="edge">
<title>Big Bad Internet™&#45;&#45;Nuremberg</title>
<path fill="none" stroke="black" d="M874.09,-506.83C912.81,-493.93 969.34,-475.09 1005.8,-462.93"/>
</g>
<!-- FB 7530 AX -->
<g id="node3" class="node">
<title>FB 7530 AX</title>
<ellipse fill="none" stroke="black" cx="735.6" cy="-378" rx="55.79" ry="18"/>
<text text-anchor="middle" x="735.6" y="-374.3" font-family="Times,serif" font-size="14.00">FB 7530 AX</text>
</g>
<!-- Rosenhof&#45;&#45;FB 7530 AX -->
<g id="edge2" class="edge">
<title>Rosenhof&#45;&#45;FB 7530 AX</title>
<path fill="none" stroke="black" d="M765.16,-432.05C759.02,-421.05 751.07,-406.76 744.95,-395.79"/>
</g>
<!-- Powerline Baba -->
<g id="node4" class="node">
<title>Powerline Baba</title>
<ellipse fill="none" stroke="black" cx="555.6" cy="-306" rx="66.89" ry="18"/>
<text text-anchor="middle" x="555.6" y="-302.3" font-family="Times,serif" font-size="14.00">Powerline Baba</text>
</g>
<!-- FB 7530 AX&#45;&#45;Powerline Baba -->
<g id="edge3" class="edge">
<title>FB 7530 AX&#45;&#45;Powerline Baba</title>
<path fill="none" stroke="black" d="M701.32,-363.67C670,-351.49 623.85,-333.54 591.91,-321.12"/>
</g>
<!-- QNAP QSW&#45;1105&#45;5T -->
<g id="node5" class="node">
<title>QNAP QSW&#45;1105&#45;5T</title>
<ellipse fill="none" stroke="black" cx="735.6" cy="-306" rx="89.88" ry="18"/>
<text text-anchor="middle" x="735.6" y="-302.3" font-family="Times,serif" font-size="14.00">QNAP QSW&#45;1105&#45;5T</text>
</g>
<!-- FB 7530 AX&#45;&#45;QNAP QSW&#45;1105&#45;5T -->
<g id="edge4" class="edge">
<title>FB 7530 AX&#45;&#45;QNAP QSW&#45;1105&#45;5T</title>
<path fill="none" stroke="black" d="M735.6,-359.7C735.6,-348.85 735.6,-334.92 735.6,-324.1"/>
</g>
<!-- TP&#45;Link TL&#45;SG108 -->
<g id="node11" class="node">
<title>TP&#45;Link TL&#45;SG108</title>
<ellipse fill="none" stroke="black" cx="458.6" cy="-234" rx="80.69" ry="18"/>
<text text-anchor="middle" x="458.6" y="-230.3" font-family="Times,serif" font-size="14.00">TP&#45;Link TL&#45;SG108</text>
</g>
<!-- Powerline Baba&#45;&#45;TP&#45;Link TL&#45;SG108 -->
<g id="edge10" class="edge">
<title>Powerline Baba&#45;&#45;TP&#45;Link TL&#45;SG108</title>
<path fill="none" stroke="black" d="M533.1,-288.76C517.54,-277.54 496.91,-262.65 481.31,-251.39"/>
</g>
<!-- NETGEAR XS505M -->
<g id="node6" class="node">
<title>NETGEAR XS505M</title>
<ellipse fill="none" stroke="black" cx="697.6" cy="-234" rx="87.18" ry="18"/>
<text text-anchor="middle" x="697.6" y="-230.3" font-family="Times,serif" font-size="14.00">NETGEAR XS505M</text>
</g>
<!-- QNAP QSW&#45;1105&#45;5T&#45;&#45;NETGEAR XS505M -->
<g id="edge5" class="edge">
<title>QNAP QSW&#45;1105&#45;5T&#45;&#45;NETGEAR XS505M</title>
<path fill="none" stroke="black" d="M726.4,-288.05C720.51,-277.21 712.9,-263.18 706.98,-252.28"/>
</g>
<!-- Powerline Pixel -->
<g id="node8" class="node">
<title>Powerline Pixel</title>
<ellipse fill="none" stroke="black" cx="869.6" cy="-234" rx="66.89" ry="18"/>
<text text-anchor="middle" x="869.6" y="-230.3" font-family="Times,serif" font-size="14.00">Powerline Pixel</text>
</g>
<!-- QNAP QSW&#45;1105&#45;5T&#45;&#45;Powerline Pixel -->
<g id="edge7" class="edge">
<title>QNAP QSW&#45;1105&#45;5T&#45;&#45;Powerline Pixel</title>
<path fill="none" stroke="black" d="M766.34,-288.94C788.59,-277.32 818.48,-261.7 840.38,-250.26"/>
</g>
<!-- dergerät -->
<g id="node7" class="node">
<title>dergerät</title>
<ellipse fill="none" stroke="black" cx="666.6" cy="-162" rx="39.79" ry="18"/>
<text text-anchor="middle" x="666.6" y="-158.3" font-family="Times,serif" font-size="14.00">dergerät</text>
</g>
<!-- NETGEAR XS505M&#45;&#45;dergerät -->
<g id="edge6" class="edge">
<title>NETGEAR XS505M&#45;&#45;dergerät</title>
<path fill="none" stroke="black" d="M690.09,-216.05C685.22,-205.05 678.89,-190.76 674.03,-179.79"/>
</g>
<!-- rotmain -->
<g id="node12" class="node">
<title>rotmain</title>
<ellipse fill="none" stroke="black" cx="762.6" cy="-162" rx="38.19" ry="18"/>
<text text-anchor="middle" x="762.6" y="-158.3" font-family="Times,serif" font-size="14.00">rotmain</text>
</g>
<!-- NETGEAR XS505M&#45;&#45;rotmain -->
<g id="edge11" class="edge">
<title>NETGEAR XS505M&#45;&#45;rotmain</title>
<path fill="none" stroke="black" d="M713.33,-216.05C723.85,-204.73 737.6,-189.92 747.9,-178.83"/>
</g>
<!-- GWiFi Pixel -->
<g id="node9" class="node">
<title>GWiFi Pixel</title>
<ellipse fill="none" stroke="black" cx="914.6" cy="-162" rx="55.79" ry="18"/>
<text text-anchor="middle" x="914.6" y="-158.3" font-family="Times,serif" font-size="14.00">GWiFi Pixel</text>
</g>
<!-- Powerline Pixel&#45;&#45;GWiFi Pixel -->
<g id="edge8" class="edge">
<title>Powerline Pixel&#45;&#45;GWiFi Pixel</title>
<path fill="none" stroke="black" d="M880.49,-216.05C887.57,-205.05 896.75,-190.76 903.8,-179.79"/>
</g>
<!-- TB Dock Pixel -->
<g id="node10" class="node">
<title>TB Dock Pixel</title>
<ellipse fill="none" stroke="black" cx="935.6" cy="-90" rx="63.89" ry="18"/>
<text text-anchor="middle" x="935.6" y="-86.3" font-family="Times,serif" font-size="14.00">TB Dock Pixel</text>
</g>
<!-- GWiFi Pixel&#45;&#45;TB Dock Pixel -->
<g id="edge9" class="edge">
<title>GWiFi Pixel&#45;&#45;TB Dock Pixel</title>
<path fill="none" stroke="black" d="M919.68,-144.05C922.93,-133.21 927.14,-119.18 930.41,-108.28"/>
</g>
<!-- httpis -->
<g id="node13" class="node">
<title>httpis</title>
<ellipse fill="none" stroke="black" cx="111.6" cy="-162" rx="30.59" ry="18"/>
<text text-anchor="middle" x="111.6" y="-158.3" font-family="Times,serif" font-size="14.00">httpis</text>
</g>
<!-- TP&#45;Link TL&#45;SG108&#45;&#45;httpis -->
<g id="edge12" class="edge">
<title>TP&#45;Link TL&#45;SG108&#45;&#45;httpis</title>
<path fill="none" stroke="black" d="M400.91,-221.36C325.75,-206.2 197.23,-180.27 140.25,-168.78"/>
</g>
<!-- postpi -->
<g id="node16" class="node">
<title>postpi</title>
<ellipse fill="none" stroke="black" cx="291.6" cy="-162" rx="32.49" ry="18"/>
<text text-anchor="middle" x="291.6" y="-158.3" font-family="Times,serif" font-size="14.00">postpi</text>
</g>
<!-- TP&#45;Link TL&#45;SG108&#45;&#45;postpi -->
<g id="edge15" class="edge">
<title>TP&#45;Link TL&#45;SG108&#45;&#45;postpi</title>
<path fill="none" stroke="black" d="M422.36,-217.81C390.42,-204.42 344.71,-185.26 316.66,-173.5"/>
</g>
<!-- optiplex3020 -->
<g id="node19" class="node">
<title>optiplex3020</title>
<ellipse fill="none" stroke="black" cx="489.6" cy="-162" rx="57.39" ry="18"/>
<text text-anchor="middle" x="489.6" y="-158.3" font-family="Times,serif" font-size="14.00">optiplex3020</text>
</g>
<!-- TP&#45;Link TL&#45;SG108&#45;&#45;optiplex3020 -->
<g id="edge18" class="edge">
<title>TP&#45;Link TL&#45;SG108&#45;&#45;optiplex3020</title>
<path fill="none" stroke="black" d="M466.1,-216.05C470.9,-205.21 477.12,-191.18 481.95,-180.28"/>
</g>
<!-- httpd -->
<g id="node14" class="node">
<title>httpd</title>
<ellipse fill="none" stroke="black" cx="28.6" cy="-90" rx="28.7" ry="18"/>
<text text-anchor="middle" x="28.6" y="-86.3" font-family="Times,serif" font-size="14.00">httpd</text>
</g>
<!-- httpis&#45;&#45;httpd -->
<g id="edge13" class="edge">
<title>httpis&#45;&#45;httpd</title>
<path fill="none" stroke="black" d="M94.8,-146.83C80.31,-134.61 59.49,-117.05 45.09,-104.91"/>
</g>
<!-- dyndns -->
<g id="node15" class="node">
<title>dyndns</title>
<ellipse fill="none" stroke="black" cx="111.6" cy="-90" rx="36.29" ry="18"/>
<text text-anchor="middle" x="111.6" y="-86.3" font-family="Times,serif" font-size="14.00">dyndns</text>
</g>
<!-- httpis&#45;&#45;dyndns -->
<g id="edge14" class="edge">
<title>httpis&#45;&#45;dyndns</title>
<path fill="none" stroke="black" d="M111.6,-143.7C111.6,-132.85 111.6,-118.92 111.6,-108.1"/>
</g>
<!-- postfix -->
<g id="node17" class="node">
<title>postfix</title>
<ellipse fill="none" stroke="black" cx="200.6" cy="-90" rx="35.19" ry="18"/>
<text text-anchor="middle" x="200.6" y="-86.3" font-family="Times,serif" font-size="14.00">postfix</text>
</g>
<!-- postpi&#45;&#45;postfix -->
<g id="edge16" class="edge">
<title>postpi&#45;&#45;postfix</title>
<path fill="none" stroke="black" d="M273.18,-146.83C257.5,-134.77 235.06,-117.51 219.3,-105.38"/>
</g>
<!-- dovecot -->
<g id="node18" class="node">
<title>dovecot</title>
<ellipse fill="none" stroke="black" cx="291.6" cy="-90" rx="38.19" ry="18"/>
<text text-anchor="middle" x="291.6" y="-86.3" font-family="Times,serif" font-size="14.00">dovecot</text>
</g>
<!-- postpi&#45;&#45;dovecot -->
<g id="edge17" class="edge">
<title>postpi&#45;&#45;dovecot</title>
<path fill="none" stroke="black" d="M291.6,-143.7C291.6,-132.85 291.6,-118.92 291.6,-108.1"/>
</g>
<!-- dockerop -->
<g id="node20" class="node">
<title>dockerop</title>
<ellipse fill="none" stroke="black" cx="382.6" cy="-90" rx="34.39" ry="18"/>
<text text-anchor="middle" x="382.6" y="-86.3" font-family="Times,serif" font-size="14.00">docker</text>
</g>
<!-- optiplex3020&#45;&#45;dockerop -->
<g id="edge19" class="edge">
<title>optiplex3020&#45;&#45;dockerop</title>
<path fill="none" stroke="black" d="M465.85,-145.46C447.13,-133.22 421.29,-116.32 403.39,-104.6"/>
</g>
<!-- bucket -->
<g id="node22" class="node">
<title>bucket</title>
<ellipse fill="none" stroke="black" cx="469.6" cy="-90" rx="34.39" ry="18"/>
<text text-anchor="middle" x="469.6" y="-86.3" font-family="Times,serif" font-size="14.00">bucket</text>
</g>
<!-- optiplex3020&#45;&#45;bucket -->
<g id="edge21" class="edge">
<title>optiplex3020&#45;&#45;bucket</title>
<path fill="none" stroke="black" d="M484.76,-144.05C481.66,-133.21 477.65,-119.18 474.53,-108.28"/>
</g>
<!-- aggregamus -->
<g id="node23" class="node">
<title>aggregamus</title>
<ellipse fill="none" stroke="black" cx="575.6" cy="-90" rx="53.89" ry="18"/>
<text text-anchor="middle" x="575.6" y="-86.3" font-family="Times,serif" font-size="14.00">aggregamus</text>
</g>
<!-- optiplex3020&#45;&#45;aggregamus -->
<g id="edge22" class="edge">
<title>optiplex3020&#45;&#45;aggregamus</title>
<path fill="none" stroke="black" d="M509.54,-144.76C523.54,-133.38 542.15,-118.22 556.06,-106.91"/>
</g>
<!-- inspiriererin -->
<g id="node24" class="node">
<title>inspiriererin</title>
<ellipse fill="none" stroke="black" cx="701.6" cy="-90" rx="53.89" ry="18"/>
<text text-anchor="middle" x="701.6" y="-86.3" font-family="Times,serif" font-size="14.00">inspiriererin</text>
</g>
<!-- optiplex3020&#45;&#45;inspiriererin -->
<g id="edge23" class="edge">
<title>optiplex3020&#45;&#45;inspiriererin</title>
<path fill="none" stroke="black" d="M527.5,-148.49C566.33,-135.67 626.29,-115.87 664.73,-103.17"/>
</g>
<!-- murmur -->
<g id="node25" class="node">
<title>murmur</title>
<ellipse fill="none" stroke="black" cx="813.6" cy="-90" rx="40.09" ry="18"/>
<text text-anchor="middle" x="813.6" y="-86.3" font-family="Times,serif" font-size="14.00">murmur</text>
</g>
<!-- optiplex3020&#45;&#45;murmur -->
<g id="edge24" class="edge">
<title>optiplex3020&#45;&#45;murmur</title>
<path fill="none" stroke="black" d="M540.27,-153.47C595.83,-144.7 687.35,-128.73 764.6,-108 770.86,-106.32 777.47,-104.24 783.75,-102.12"/>
</g>
<!-- tor&#45;proxy -->
<g id="node21" class="node">
<title>tor&#45;proxy</title>
<ellipse fill="none" stroke="black" cx="382.6" cy="-18" rx="44.39" ry="18"/>
<text text-anchor="middle" x="382.6" y="-14.3" font-family="Times,serif" font-size="14.00">tor&#45;proxy</text>
</g>
<!-- dockerop&#45;&#45;tor&#45;proxy -->
<g id="edge20" class="edge">
<title>dockerop&#45;&#45;tor&#45;proxy</title>
<path fill="none" stroke="black" d="M382.6,-71.7C382.6,-60.85 382.6,-46.92 382.6,-36.1"/>
</g>
<!-- sophia -->
<g id="node27" class="node">
<title>sophia</title>
<ellipse fill="none" stroke="black" cx="1118.6" cy="-378" rx="33.6" ry="18"/>
<text text-anchor="middle" x="1118.6" y="-374.3" font-family="Times,serif" font-size="14.00">sophia</text>
</g>
<!-- Nuremberg&#45;&#45;sophia -->
<g id="edge26" class="edge">
<title>Nuremberg&#45;&#45;sophia</title>
<path fill="none" stroke="black" d="M1059.46,-432.76C1072.34,-421.05 1089.6,-405.36 1102.15,-393.95"/>
</g>
<!-- redirectorkek -->
<g id="node28" class="node">
<title>redirectorkek</title>
<ellipse fill="none" stroke="black" cx="938.6" cy="-306" rx="44.69" ry="18"/>
<text text-anchor="middle" x="938.6" y="-302.3" font-family="Times,serif" font-size="14.00">redirector</text>
</g>
<!-- sophia&#45;&#45;redirectorkek -->
<g id="edge31" class="edge">
<title>sophia&#45;&#45;redirectorkek</title>
<path fill="none" stroke="black" d="M1092.04,-366.67C1059.47,-354.01 1004.36,-332.57 969.81,-319.14"/>
</g>
<!-- dockersophia -->
<g id="node29" class="node">
<title>dockersophia</title>
<ellipse fill="none" stroke="black" cx="1035.6" cy="-306" rx="34.39" ry="18"/>
<text text-anchor="middle" x="1035.6" y="-302.3" font-family="Times,serif" font-size="14.00">docker</text>
</g>
<!-- sophia&#45;&#45;dockersophia -->
<g id="edge28" class="edge">
<title>sophia&#45;&#45;dockersophia</title>
<path fill="none" stroke="black" d="M1101.4,-362.5C1087.25,-350.56 1067.28,-333.72 1053.06,-321.73"/>
</g>
<!-- nginx -->
<g id="node30" class="node">
<title>nginx</title>
<ellipse fill="none" stroke="black" cx="1118.6" cy="-306" rx="30.59" ry="18"/>
<text text-anchor="middle" x="1118.6" y="-302.3" font-family="Times,serif" font-size="14.00">nginx</text>
</g>
<!-- sophia&#45;&#45;nginx -->
<g id="edge27" class="edge">
<title>sophia&#45;&#45;nginx</title>
<path fill="none" stroke="black" d="M1118.6,-359.7C1118.6,-348.85 1118.6,-334.92 1118.6,-324.1"/>
</g>
<!-- jasmin -->
<g id="node33" class="node">
<title>jasmin</title>
<ellipse fill="none" stroke="black" cx="1201.6" cy="-306" rx="34.39" ry="18"/>
<text text-anchor="middle" x="1201.6" y="-302.3" font-family="Times,serif" font-size="14.00">jasmin</text>
</g>
<!-- sophia&#45;&#45;jasmin -->
<g id="edge32" class="edge">
<title>sophia&#45;&#45;jasmin</title>
<path fill="none" stroke="black" d="M1135.8,-362.5C1149.95,-350.56 1169.91,-333.72 1184.14,-321.73"/>
</g>
<!-- hanna -->
<g id="node34" class="node">
<title>hanna</title>
<ellipse fill="none" stroke="black" cx="1285.6" cy="-306" rx="31.7" ry="18"/>
<text text-anchor="middle" x="1285.6" y="-302.3" font-family="Times,serif" font-size="14.00">hanna</text>
</g>
<!-- sophia&#45;&#45;hanna -->
<g id="edge33" class="edge">
<title>sophia&#45;&#45;hanna</title>
<path fill="none" stroke="black" d="M1144.33,-366.22C1175.98,-352.95 1229.37,-330.57 1260.66,-317.45"/>
</g>
<!-- deployment -->
<g id="node35" class="node">
<title>deployment</title>
<ellipse fill="none" stroke="black" cx="1387.6" cy="-306" rx="52.79" ry="18"/>
<text text-anchor="middle" x="1387.6" y="-302.3" font-family="Times,serif" font-size="14.00">deployment</text>
</g>
<!-- sophia&#45;&#45;deployment -->
<g id="edge34" class="edge">
<title>sophia&#45;&#45;deployment</title>
<path fill="none" stroke="black" d="M1148.62,-369.57C1189.1,-359.51 1263.41,-340.85 1326.6,-324 1333.61,-322.13 1341.06,-320.09 1348.26,-318.1"/>
</g>
<!-- ludwig (pygopherd) -->
<g id="node31" class="node">
<title>ludwig (pygopherd)</title>
<ellipse fill="none" stroke="black" cx="1035.6" cy="-234" rx="81.49" ry="18"/>
<text text-anchor="middle" x="1035.6" y="-230.3" font-family="Times,serif" font-size="14.00">ludwig (pygopherd)</text>
</g>
<!-- dockersophia&#45;&#45;ludwig (pygopherd) -->
<g id="edge29" class="edge">
<title>dockersophia&#45;&#45;ludwig (pygopherd)</title>
<path fill="none" stroke="black" d="M1035.6,-287.7C1035.6,-276.85 1035.6,-262.92 1035.6,-252.1"/>
</g>
<!-- mediawiki -->
<g id="node32" class="node">
<title>mediawiki</title>
<ellipse fill="none" stroke="black" cx="1182.6" cy="-234" rx="48.19" ry="18"/>
<text text-anchor="middle" x="1182.6" y="-230.3" font-family="Times,serif" font-size="14.00">mediawiki</text>
</g>
<!-- dockersophia&#45;&#45;mediawiki -->
<g id="edge30" class="edge">
<title>dockersophia&#45;&#45;mediawiki</title>
<path fill="none" stroke="black" d="M1060.2,-293.28C1086.11,-280.95 1126.86,-261.54 1154.13,-248.55"/>
</g>
</g>
</svg>
