<?xml version="1.0" encoding="UTF-8" standalone="no"?>
<?xml-stylesheet href="unifont.css" type="text/css"?>
<!DOCTYPE svg PUBLIC "-//W3C//DTD SVG 1.1//EN"
 "http://www.w3.org/Graphics/SVG/1.1/DTD/svg11.dtd">
<!-- Generated by graphviz version 3.0.0 (20220226.1711)
 -->
<!-- Pages: 1 -->
<svg width="1374pt" height="639pt"
 viewBox="0.00 0.00 1374.19 639.00" xmlns="http://www.w3.org/2000/svg" xmlns:xlink="http://www.w3.org/1999/xlink">
<g id="graph0" class="graph" transform="scale(1 1) rotate(0) translate(4 635)">
<polygon fill="white" stroke="transparent" points="-4,4 -4,-635 1370.19,-635 1370.19,4 -4,4"/>
<!-- Big Bad Internet™ -->
<g id="node1" class="node">
<title>Big Bad Internet™</title>
<ellipse fill="none" stroke="black" cx="703.15" cy="-613" rx="85.29" ry="18"/>
<text text-anchor="middle" x="703.15" y="-609.3" font-family="Unifont" font-size="14.00">Big Bad Internet™</text>
</g>
<!-- Rosenhof -->
<g id="node2" class="node">
<title>Rosenhof</title>
<ellipse fill="none" stroke="black" cx="647.15" cy="-540" rx="46.29" ry="18"/>
<text text-anchor="middle" x="647.15" y="-536.3" font-family="Unifont" font-size="14.00">Rosenhof</text>
</g>
<!-- Big Bad Internet™&#45;&#45;Rosenhof -->
<g id="edge1" class="edge">
<title>Big Bad Internet™&#45;&#45;Rosenhof</title>
<path fill="none" stroke="black" d="M689.87,-595.17C680.95,-583.86 669.23,-569 660.32,-557.71"/>
</g>
<!-- Nuremberg -->
<g id="node26" class="node">
<title>Nuremberg</title>
<ellipse fill="none" stroke="black" cx="791.15" cy="-540" rx="50.09" ry="18"/>
<text text-anchor="middle" x="791.15" y="-536.3" font-family="Unifont" font-size="14.00">Nuremberg</text>
</g>
<!-- Big Bad Internet™&#45;&#45;Nuremberg -->
<g id="edge25" class="edge">
<title>Big Bad Internet™&#45;&#45;Nuremberg</title>
<path fill="none" stroke="black" d="M724,-595.17C738.44,-583.53 757.52,-568.13 771.65,-556.73"/>
</g>
<!-- FB 7530 AX -->
<g id="node3" class="node">
<title>FB 7530 AX</title>
<ellipse fill="none" stroke="black" cx="468.15" cy="-453" rx="54.69" ry="18"/>
<text text-anchor="middle" x="468.15" y="-449.3" font-family="Unifont" font-size="14.00">FB 7530 AX</text>
</g>
<!-- Rosenhof&#45;&#45;FB 7530 AX -->
<g id="edge2" class="edge">
<title>Rosenhof&#45;&#45;FB 7530 AX</title>
<path fill="none" stroke="black" d="M618.78,-525.53C585.76,-509.85 531.46,-484.07 497.87,-468.11"/>
</g>
<!-- NETGEAR XS505M -->
<g id="node4" class="node">
<title>NETGEAR XS505M</title>
<ellipse fill="none" stroke="black" cx="260.15" cy="-366" rx="72.29" ry="18"/>
<text text-anchor="middle" x="260.15" y="-362.3" font-family="Unifont" font-size="14.00">NETGEAR XS505M</text>
</g>
<!-- FB 7530 AX&#45;&#45;NETGEAR XS505M -->
<g id="edge3" class="edge">
<title>FB 7530 AX&#45;&#45;NETGEAR XS505M</title>
<path fill="none" stroke="black" d="M435.19,-438.53C397.27,-423.04 335.22,-397.68 296.09,-381.69"/>
</g>
<!-- Powerline Baba -->
<g id="node9" class="node">
<title>Powerline Baba</title>
<ellipse fill="none" stroke="black" cx="468.15" cy="-366" rx="72.29" ry="18"/>
<text text-anchor="middle" x="468.15" y="-362.3" font-family="Unifont" font-size="14.00">Powerline Baba</text>
</g>
<!-- FB 7530 AX&#45;&#45;Powerline Baba -->
<g id="edge8" class="edge">
<title>FB 7530 AX&#45;&#45;Powerline Baba</title>
<path fill="none" stroke="black" d="M468.15,-434.8C468.15,-420.05 468.15,-398.92 468.15,-384.18"/>
</g>
<!-- dergerät -->
<g id="node5" class="node">
<title>dergerät</title>
<ellipse fill="none" stroke="black" cx="46.15" cy="-279" rx="46.29" ry="18"/>
<text text-anchor="middle" x="46.15" y="-275.3" font-family="Unifont" font-size="14.00">dergerät</text>
</g>
<!-- NETGEAR XS505M&#45;&#45;dergerät -->
<g id="edge4" class="edge">
<title>NETGEAR XS505M&#45;&#45;dergerät</title>
<path fill="none" stroke="black" d="M223.36,-350.39C182.13,-334.01 116,-307.75 77.25,-292.35"/>
</g>
<!-- rotmain -->
<g id="node6" class="node">
<title>rotmain</title>
<ellipse fill="none" stroke="black" cx="152.15" cy="-279" rx="41.69" ry="18"/>
<text text-anchor="middle" x="152.15" y="-275.3" font-family="Unifont" font-size="14.00">rotmain</text>
</g>
<!-- NETGEAR XS505M&#45;&#45;rotmain -->
<g id="edge5" class="edge">
<title>NETGEAR XS505M&#45;&#45;rotmain</title>
<path fill="none" stroke="black" d="M239.32,-348.61C219.71,-333.17 190.56,-310.23 171.45,-295.2"/>
</g>
<!-- QNAP QSW&#45;1105&#45;5T -->
<g id="node7" class="node">
<title>QNAP QSW&#45;1105&#45;5T</title>
<ellipse fill="none" stroke="black" cx="293.15" cy="-279" rx="81.49" ry="18"/>
<text text-anchor="middle" x="293.15" y="-275.3" font-family="Unifont" font-size="14.00">QNAP QSW&#45;1105&#45;5T</text>
</g>
<!-- NETGEAR XS505M&#45;&#45;QNAP QSW&#45;1105&#45;5T -->
<g id="edge6" class="edge">
<title>NETGEAR XS505M&#45;&#45;QNAP QSW&#45;1105&#45;5T</title>
<path fill="none" stroke="black" d="M266.82,-347.8C272.55,-333.05 280.76,-311.92 286.48,-297.18"/>
</g>
<!-- GWiFi ServerRoom -->
<g id="node8" class="node">
<title>GWiFi ServerRoom</title>
<ellipse fill="none" stroke="black" cx="207.15" cy="-192" rx="81.49" ry="18"/>
<text text-anchor="middle" x="207.15" y="-188.3" font-family="Unifont" font-size="14.00">GWiFi ServerRoom</text>
</g>
<!-- QNAP QSW&#45;1105&#45;5T&#45;&#45;GWiFi ServerRoom -->
<g id="edge7" class="edge">
<title>QNAP QSW&#45;1105&#45;5T&#45;&#45;GWiFi ServerRoom</title>
<path fill="none" stroke="black" d="M276.16,-261.21C261.08,-246.31 239.17,-224.65 224.1,-209.76"/>
</g>
<!-- TP&#45;Link TL&#45;SG108 -->
<g id="node10" class="node">
<title>TP&#45;Link TL&#45;SG108</title>
<ellipse fill="none" stroke="black" cx="508.15" cy="-279" rx="81.49" ry="18"/>
<text text-anchor="middle" x="508.15" y="-275.3" font-family="Unifont" font-size="14.00">TP&#45;Link TL&#45;SG108</text>
</g>
<!-- Powerline Baba&#45;&#45;TP&#45;Link TL&#45;SG108 -->
<g id="edge9" class="edge">
<title>Powerline Baba&#45;&#45;TP&#45;Link TL&#45;SG108</title>
<path fill="none" stroke="black" d="M476.24,-347.8C483.18,-333.05 493.13,-311.92 500.06,-297.18"/>
</g>
<!-- GWiFi Baba -->
<g id="node11" class="node">
<title>GWiFi Baba</title>
<ellipse fill="none" stroke="black" cx="361.15" cy="-192" rx="54.69" ry="18"/>
<text text-anchor="middle" x="361.15" y="-188.3" font-family="Unifont" font-size="14.00">GWiFi Baba</text>
</g>
<!-- TP&#45;Link TL&#45;SG108&#45;&#45;GWiFi Baba -->
<g id="edge10" class="edge">
<title>TP&#45;Link TL&#45;SG108&#45;&#45;GWiFi Baba</title>
<path fill="none" stroke="black" d="M480.5,-262.01C453.72,-246.53 413.41,-223.22 387.19,-208.06"/>
</g>
<!-- Baba PC -->
<g id="node12" class="node">
<title>Baba PC</title>
<ellipse fill="none" stroke="black" cx="475.15" cy="-192" rx="41.69" ry="18"/>
<text text-anchor="middle" x="475.15" y="-188.3" font-family="Unifont" font-size="14.00">Baba PC</text>
</g>
<!-- TP&#45;Link TL&#45;SG108&#45;&#45;Baba PC -->
<g id="edge11" class="edge">
<title>TP&#45;Link TL&#45;SG108&#45;&#45;Baba PC</title>
<path fill="none" stroke="black" d="M501.47,-260.8C495.7,-245.95 487.43,-224.64 481.7,-209.89"/>
</g>
<!-- httpis -->
<g id="node13" class="node">
<title>httpis</title>
<ellipse fill="none" stroke="black" cx="572.15" cy="-192" rx="37.09" ry="18"/>
<text text-anchor="middle" x="572.15" y="-188.3" font-family="Unifont" font-size="14.00">httpis</text>
</g>
<!-- TP&#45;Link TL&#45;SG108&#45;&#45;httpis -->
<g id="edge12" class="edge">
<title>TP&#45;Link TL&#45;SG108&#45;&#45;httpis</title>
<path fill="none" stroke="black" d="M520.79,-261.21C532.16,-246.11 548.74,-224.09 559.96,-209.18"/>
<text text-anchor="middle" x="564.65" y="-231.8" font-family="Unifont" font-size="14.00">443,80</text>
</g>
<!-- postpi -->
<g id="node16" class="node">
<title>postpi</title>
<ellipse fill="none" stroke="black" cx="666.15" cy="-192" rx="37.09" ry="18"/>
<text text-anchor="middle" x="666.15" y="-188.3" font-family="Unifont" font-size="14.00">postpi</text>
</g>
<!-- TP&#45;Link TL&#45;SG108&#45;&#45;postpi -->
<g id="edge15" class="edge">
<title>TP&#45;Link TL&#45;SG108&#45;&#45;postpi</title>
<path fill="none" stroke="black" d="M546.27,-263.08C560.02,-257.3 575.51,-250.31 589.15,-243 609.24,-232.23 630.91,-217.9 646.13,-207.33"/>
<text text-anchor="middle" x="660.65" y="-231.8" font-family="Unifont" font-size="14.00">993,587,143,25</text>
</g>
<!-- optiplex3020 -->
<g id="node19" class="node">
<title>optiplex3020</title>
<ellipse fill="none" stroke="black" cx="1040.15" cy="-192" rx="63.89" ry="18"/>
<text text-anchor="middle" x="1040.15" y="-188.3" font-family="Unifont" font-size="14.00">optiplex3020</text>
</g>
<!-- TP&#45;Link TL&#45;SG108&#45;&#45;optiplex3020 -->
<g id="edge18" class="edge">
<title>TP&#45;Link TL&#45;SG108&#45;&#45;optiplex3020</title>
<path fill="none" stroke="black" d="M572.05,-267.79C677.79,-250.89 887.27,-217.43 986.11,-201.63"/>
</g>
<!-- httpd -->
<g id="node14" class="node">
<title>httpd</title>
<ellipse fill="none" stroke="black" cx="481.15" cy="-105" rx="32.49" ry="18"/>
<text text-anchor="middle" x="481.15" y="-101.3" font-family="Unifont" font-size="14.00">httpd</text>
</g>
<!-- httpis&#45;&#45;httpd -->
<g id="edge13" class="edge">
<title>httpis&#45;&#45;httpd</title>
<path fill="none" stroke="black" d="M551.79,-176.79C543.55,-170.72 534.12,-163.34 526.15,-156 514.63,-145.4 502.84,-132.2 494.22,-122.02"/>
<text text-anchor="middle" x="546.65" y="-144.8" font-family="Unifont" font-size="14.00">443,80</text>
</g>
<!-- dyndns -->
<g id="node15" class="node">
<title>dyndns</title>
<ellipse fill="none" stroke="black" cx="569.15" cy="-105" rx="37.09" ry="18"/>
<text text-anchor="middle" x="569.15" y="-101.3" font-family="Unifont" font-size="14.00">dyndns</text>
</g>
<!-- httpis&#45;&#45;dyndns -->
<g id="edge14" class="edge">
<title>httpis&#45;&#45;dyndns</title>
<path fill="none" stroke="black" d="M571.54,-173.8C571.02,-159.05 570.27,-137.92 569.75,-123.18"/>
</g>
<!-- postfix -->
<g id="node17" class="node">
<title>postfix</title>
<ellipse fill="none" stroke="black" cx="666.15" cy="-105" rx="41.69" ry="18"/>
<text text-anchor="middle" x="666.15" y="-101.3" font-family="Unifont" font-size="14.00">postfix</text>
</g>
<!-- postpi&#45;&#45;postfix -->
<g id="edge16" class="edge">
<title>postpi&#45;&#45;postfix</title>
<path fill="none" stroke="black" d="M666.15,-173.8C666.15,-159.05 666.15,-137.92 666.15,-123.18"/>
<text text-anchor="middle" x="686.65" y="-144.8" font-family="Unifont" font-size="14.00">587,25</text>
</g>
<!-- dovecot -->
<g id="node18" class="node">
<title>dovecot</title>
<ellipse fill="none" stroke="black" cx="767.15" cy="-105" rx="41.69" ry="18"/>
<text text-anchor="middle" x="767.15" y="-101.3" font-family="Unifont" font-size="14.00">dovecot</text>
</g>
<!-- postpi&#45;&#45;dovecot -->
<g id="edge17" class="edge">
<title>postpi&#45;&#45;dovecot</title>
<path fill="none" stroke="black" d="M685.64,-176.29C693.64,-170.14 702.94,-162.84 711.15,-156 724.56,-144.82 739.27,-131.64 750.25,-121.62"/>
<text text-anchor="middle" x="753.15" y="-144.8" font-family="Unifont" font-size="14.00">993,143</text>
</g>
<!-- dockerop -->
<g id="node20" class="node">
<title>dockerop</title>
<ellipse fill="none" stroke="black" cx="864.15" cy="-105" rx="37.09" ry="18"/>
<text text-anchor="middle" x="864.15" y="-101.3" font-family="Unifont" font-size="14.00">docker</text>
</g>
<!-- optiplex3020&#45;&#45;dockerop -->
<g id="edge19" class="edge">
<title>optiplex3020&#45;&#45;dockerop</title>
<path fill="none" stroke="black" d="M978.6,-187.23C932.56,-182.98 875.08,-174.12 860.15,-156 852.72,-147 854.17,-133.72 857.23,-123.11"/>
<text text-anchor="middle" x="924.65" y="-144.8" font-family="Unifont" font-size="14.00">9323,9053,9052,9050</text>
</g>
<!-- bucket -->
<g id="node22" class="node">
<title>bucket</title>
<ellipse fill="none" stroke="black" cx="956.15" cy="-105" rx="37.09" ry="18"/>
<text text-anchor="middle" x="956.15" y="-101.3" font-family="Unifont" font-size="14.00">bucket</text>
</g>
<!-- optiplex3020&#45;&#45;bucket -->
<g id="edge21" class="edge">
<title>optiplex3020&#45;&#45;bucket</title>
<path fill="none" stroke="black" d="M1024.72,-174.1C1015.66,-164.3 1003.91,-151.8 993.15,-141 986.65,-134.49 979.33,-127.49 972.92,-121.48"/>
<text text-anchor="middle" x="1022.15" y="-144.8" font-family="Unifont" font-size="14.00">8022</text>
</g>
<!-- aggregamus -->
<g id="node23" class="node">
<title>aggregamus</title>
<ellipse fill="none" stroke="black" cx="1066.15" cy="-105" rx="54.69" ry="18"/>
<text text-anchor="middle" x="1066.15" y="-101.3" font-family="Unifont" font-size="14.00">aggregamus</text>
</g>
<!-- optiplex3020&#45;&#45;aggregamus -->
<g id="edge22" class="edge">
<title>optiplex3020&#45;&#45;aggregamus</title>
<path fill="none" stroke="black" d="M1045.41,-173.8C1049.92,-159.05 1056.38,-137.92 1060.89,-123.18"/>
<text text-anchor="middle" x="1068.15" y="-144.8" font-family="Unifont" font-size="14.00">8669</text>
</g>
<!-- inspiriererin -->
<g id="node24" class="node">
<title>inspiriererin</title>
<ellipse fill="none" stroke="black" cx="1206.15" cy="-105" rx="67.69" ry="18"/>
<text text-anchor="middle" x="1206.15" y="-101.3" font-family="Unifont" font-size="14.00">inspiriererin</text>
</g>
<!-- optiplex3020&#45;&#45;inspiriererin -->
<g id="edge23" class="edge">
<title>optiplex3020&#45;&#45;inspiriererin</title>
<path fill="none" stroke="black" d="M1069.44,-176C1099.51,-160.61 1146.04,-136.78 1176.3,-121.28"/>
<text text-anchor="middle" x="1146.15" y="-144.8" font-family="Unifont" font-size="14.00">8989</text>
</g>
<!-- murmur -->
<g id="node25" class="node">
<title>murmur</title>
<ellipse fill="none" stroke="black" cx="1329.15" cy="-105" rx="37.09" ry="18"/>
<text text-anchor="middle" x="1329.15" y="-101.3" font-family="Unifont" font-size="14.00">murmur</text>
</g>
<!-- optiplex3020&#45;&#45;murmur -->
<g id="edge24" class="edge">
<title>optiplex3020&#45;&#45;murmur</title>
<path fill="none" stroke="black" d="M1086.16,-179.31C1135.28,-166.56 1215.22,-145.02 1283.15,-123 1288.98,-121.11 1295.17,-118.94 1301.05,-116.79"/>
<text text-anchor="middle" x="1240.15" y="-144.8" font-family="Unifont" font-size="14.00">64738</text>
</g>
<!-- tor&#45;proxy -->
<g id="node21" class="node">
<title>tor&#45;proxy</title>
<ellipse fill="none" stroke="black" cx="864.15" cy="-18" rx="50.09" ry="18"/>
<text text-anchor="middle" x="864.15" y="-14.3" font-family="Unifont" font-size="14.00">tor&#45;proxy</text>
</g>
<!-- dockerop&#45;&#45;tor&#45;proxy -->
<g id="edge20" class="edge">
<title>dockerop&#45;&#45;tor&#45;proxy</title>
<path fill="none" stroke="black" d="M864.15,-86.8C864.15,-72.05 864.15,-50.92 864.15,-36.18"/>
<text text-anchor="middle" x="911.65" y="-57.8" font-family="Unifont" font-size="14.00">9053,9052,9050</text>
</g>
<!-- sophia -->
<g id="node27" class="node">
<title>sophia</title>
<ellipse fill="none" stroke="black" cx="816.15" cy="-453" rx="37.09" ry="18"/>
<text text-anchor="middle" x="816.15" y="-449.3" font-family="Unifont" font-size="14.00">sophia</text>
</g>
<!-- Nuremberg&#45;&#45;sophia -->
<g id="edge26" class="edge">
<title>Nuremberg&#45;&#45;sophia</title>
<path fill="none" stroke="black" d="M796.21,-521.8C800.57,-506.95 806.84,-485.64 811.18,-470.89"/>
<text text-anchor="middle" x="835.65" y="-492.8" font-family="Unifont" font-size="14.00">443,80,70</text>
</g>
<!-- redirectorkek -->
<g id="node28" class="node">
<title>redirectorkek</title>
<ellipse fill="none" stroke="black" cx="613.15" cy="-366" rx="54.69" ry="18"/>
<text text-anchor="middle" x="613.15" y="-362.3" font-family="Unifont" font-size="14.00">redirector</text>
</g>
<!-- sophia&#45;&#45;redirectorkek -->
<g id="edge31" class="edge">
<title>sophia&#45;&#45;redirectorkek</title>
<path fill="none" stroke="black" d="M784.16,-443.84C761.42,-437.6 730.39,-428.18 704.15,-417 680.76,-407.04 655.53,-392.88 637.58,-382.17"/>
<text text-anchor="middle" x="711.15" y="-405.8" font-family="Unifont" font-size="14.00">80</text>
</g>
<!-- dockersophia -->
<g id="node29" class="node">
<title>dockersophia</title>
<ellipse fill="none" stroke="black" cx="723.15" cy="-366" rx="37.09" ry="18"/>
<text text-anchor="middle" x="723.15" y="-362.3" font-family="Unifont" font-size="14.00">docker</text>
</g>
<!-- sophia&#45;&#45;dockersophia -->
<g id="edge28" class="edge">
<title>sophia&#45;&#45;dockersophia</title>
<path fill="none" stroke="black" d="M781.21,-447C762.47,-442.42 740.72,-433.67 728.15,-417 721.21,-407.8 720.1,-394.8 720.65,-384.36"/>
<text text-anchor="middle" x="769.15" y="-405.8" font-family="Unifont" font-size="14.00">9323,8942,70</text>
</g>
<!-- nginx -->
<g id="node30" class="node">
<title>nginx</title>
<ellipse fill="none" stroke="black" cx="811.15" cy="-366" rx="32.49" ry="18"/>
<text text-anchor="middle" x="811.15" y="-362.3" font-family="Unifont" font-size="14.00">nginx</text>
</g>
<!-- sophia&#45;&#45;nginx -->
<g id="edge27" class="edge">
<title>sophia&#45;&#45;nginx</title>
<path fill="none" stroke="black" d="M815.13,-434.8C814.27,-420.05 813.02,-398.92 812.16,-384.18"/>
<text text-anchor="middle" x="841.65" y="-405.8" font-family="Unifont" font-size="14.00">8169,443</text>
</g>
<!-- jasmin -->
<g id="node33" class="node">
<title>jasmin</title>
<ellipse fill="none" stroke="black" cx="899.15" cy="-366" rx="37.09" ry="18"/>
<text text-anchor="middle" x="899.15" y="-362.3" font-family="Unifont" font-size="14.00">jasmin</text>
</g>
<!-- sophia&#45;&#45;jasmin -->
<g id="edge32" class="edge">
<title>sophia&#45;&#45;jasmin</title>
<path fill="none" stroke="black" d="M842.12,-439.95C852.69,-434.12 864.44,-426.35 873.15,-417 881.95,-407.55 888.59,-394.55 892.95,-384.18"/>
<text text-anchor="middle" x="898.15" y="-405.8" font-family="Unifont" font-size="14.00">8099</text>
</g>
<!-- hanna -->
<g id="node34" class="node">
<title>hanna</title>
<ellipse fill="none" stroke="black" cx="987.15" cy="-366" rx="32.49" ry="18"/>
<text text-anchor="middle" x="987.15" y="-362.3" font-family="Unifont" font-size="14.00">hanna</text>
</g>
<!-- sophia&#45;&#45;hanna -->
<g id="edge33" class="edge">
<title>sophia&#45;&#45;hanna</title>
<path fill="none" stroke="black" d="M847.7,-443.41C867.86,-437.34 894.23,-428.27 916.15,-417 935.59,-407 955.78,-392.29 969.64,-381.41"/>
<text text-anchor="middle" x="955.15" y="-405.8" font-family="Unifont" font-size="14.00">8042</text>
</g>
<!-- deployment -->
<g id="node35" class="node">
<title>deployment</title>
<ellipse fill="none" stroke="black" cx="1092.15" cy="-366" rx="54.69" ry="18"/>
<text text-anchor="middle" x="1092.15" y="-362.3" font-family="Unifont" font-size="14.00">deployment</text>
</g>
<!-- sophia&#45;&#45;deployment -->
<g id="edge34" class="edge">
<title>sophia&#45;&#45;deployment</title>
<path fill="none" stroke="black" d="M850.61,-446.15C882.73,-440.27 931.77,-430.19 973.15,-417 1004.32,-407.06 1038.64,-392.2 1062.38,-381.26"/>
</g>
<!-- ludwig (pygopherd) -->
<g id="node31" class="node">
<title>ludwig (pygopherd)</title>
<ellipse fill="none" stroke="black" cx="714.15" cy="-279" rx="89.88" ry="18"/>
<text text-anchor="middle" x="714.15" y="-275.3" font-family="Unifont" font-size="14.00">ludwig (pygopherd)</text>
</g>
<!-- dockersophia&#45;&#45;ludwig (pygopherd) -->
<g id="edge29" class="edge">
<title>dockersophia&#45;&#45;ludwig (pygopherd)</title>
<path fill="none" stroke="black" d="M721.32,-347.8C719.76,-333.05 717.53,-311.92 715.96,-297.18"/>
<text text-anchor="middle" x="727.15" y="-318.8" font-family="Unifont" font-size="14.00">70</text>
</g>
<!-- mediawiki -->
<g id="node32" class="node">
<title>mediawiki</title>
<ellipse fill="none" stroke="black" cx="872.15" cy="-279" rx="50.09" ry="18"/>
<text text-anchor="middle" x="872.15" y="-275.3" font-family="Unifont" font-size="14.00">mediawiki</text>
</g>
<!-- dockersophia&#45;&#45;mediawiki -->
<g id="edge30" class="edge">
<title>dockersophia&#45;&#45;mediawiki</title>
<path fill="none" stroke="black" d="M746.43,-351.72C773.6,-336.22 818.39,-310.66 846.53,-294.61"/>
<text text-anchor="middle" x="821.15" y="-318.8" font-family="Unifont" font-size="14.00">8942</text>
</g>
</g>
</svg>
