<?xml version="1.0" encoding="UTF-8" standalone="no"?>
<?xml-stylesheet href="unifont.css" type="text/css"?>
<!DOCTYPE svg PUBLIC "-//W3C//DTD SVG 1.1//EN"
 "http://www.w3.org/Graphics/SVG/1.1/DTD/svg11.dtd">
<!-- Generated by graphviz version 3.0.0 (20220226.1711)
 -->
<!-- Pages: 1 -->
<svg width="1228pt" height="719pt"
 viewBox="0.00 0.00 1227.64 719.00" xmlns="http://www.w3.org/2000/svg" xmlns:xlink="http://www.w3.org/1999/xlink">
<g id="graph0" class="graph" transform="scale(1 1) rotate(0) translate(4 715)">
<polygon fill="white" stroke="transparent" points="-4,4 -4,-715 1223.64,-715 1223.64,4 -4,4"/>
<!-- FB 7530 AX -->
<g id="node1" class="node">
<title>FB 7530 AX</title>
<ellipse fill="none" stroke="black" cx="496.05" cy="-429" rx="54.69" ry="18"/>
<text text-anchor="middle" x="496.05" y="-425.3" font-family="Unifont" font-size="14.00">FB 7530 AX</text>
</g>
<!-- rotmain -->
<g id="node2" class="node">
<title>rotmain</title>
<ellipse fill="none" stroke="black" cx="373.05" cy="-297" rx="41.69" ry="18"/>
<text text-anchor="middle" x="373.05" y="-293.3" font-family="Unifont" font-size="14.00">rotmain</text>
</g>
<!-- FB 7530 AX&#45;&#45;rotmain -->
<g id="edge1" class="edge">
<title>FB 7530 AX&#45;&#45;rotmain</title>
<path fill="none" stroke="black" d="M480.47,-411.54C456.68,-386.39 411.59,-338.74 388.11,-313.92"/>
</g>
<!-- optiplex3020 -->
<g id="node5" class="node">
<title>optiplex3020</title>
<ellipse fill="none" stroke="black" cx="496.05" cy="-297" rx="63.89" ry="18"/>
<text text-anchor="middle" x="496.05" y="-293.3" font-family="Unifont" font-size="14.00">optiplex3020</text>
</g>
<!-- FB 7530 AX&#45;&#45;optiplex3020 -->
<g id="edge4" class="edge">
<title>FB 7530 AX&#45;&#45;optiplex3020</title>
<path fill="none" stroke="black" d="M496.05,-410.74C496.05,-385.87 496.05,-340.24 496.05,-315.33"/>
<text text-anchor="middle" x="520.05" y="-381.8" font-family="Unifont" font-size="14.00">993,143</text>
<text text-anchor="middle" x="520.05" y="-366.8" font-family="Unifont" font-size="14.00">587,25</text>
<text text-anchor="middle" x="520.05" y="-351.8" font-family="Unifont" font-size="14.00">443,80</text>
<text text-anchor="middle" x="520.05" y="-336.8" font-family="Unifont" font-size="14.00">70</text>
</g>
<!-- Big Bad Internet™ -->
<g id="node3" class="node">
<title>Big Bad Internet™</title>
<ellipse fill="none" stroke="black" cx="717.05" cy="-693" rx="85.29" ry="18"/>
<text text-anchor="middle" x="717.05" y="-689.3" font-family="Unifont" font-size="14.00">Big Bad Internet™</text>
</g>
<!-- Rosenhof -->
<g id="node4" class="node">
<title>Rosenhof</title>
<ellipse fill="none" stroke="black" cx="661.05" cy="-561" rx="46.29" ry="18"/>
<text text-anchor="middle" x="661.05" y="-557.3" font-family="Unifont" font-size="14.00">Rosenhof</text>
</g>
<!-- Big Bad Internet™&#45;&#45;Rosenhof -->
<g id="edge2" class="edge">
<title>Big Bad Internet™&#45;&#45;Rosenhof</title>
<path fill="none" stroke="black" d="M709.73,-675C698.99,-650.09 679.1,-603.92 668.37,-579"/>
<text text-anchor="middle" x="725.05" y="-645.8" font-family="Unifont" font-size="14.00">993,143</text>
<text text-anchor="middle" x="725.05" y="-630.8" font-family="Unifont" font-size="14.00">587,25</text>
<text text-anchor="middle" x="725.05" y="-615.8" font-family="Unifont" font-size="14.00">443,80</text>
<text text-anchor="middle" x="725.05" y="-600.8" font-family="Unifont" font-size="14.00">70</text>
</g>
<!-- Nuremberg -->
<g id="node16" class="node">
<title>Nuremberg</title>
<ellipse fill="none" stroke="black" cx="829.05" cy="-561" rx="50.09" ry="18"/>
<text text-anchor="middle" x="829.05" y="-557.3" font-family="Unifont" font-size="14.00">Nuremberg</text>
</g>
<!-- Big Bad Internet™&#45;&#45;Nuremberg -->
<g id="edge15" class="edge">
<title>Big Bad Internet™&#45;&#45;Nuremberg</title>
<path fill="none" stroke="black" d="M735.06,-675.34C740.95,-669.67 747.42,-663.2 753.05,-657 776.9,-630.73 802.17,-598.02 816.73,-578.65"/>
<text text-anchor="middle" x="822.55" y="-630.8" font-family="Unifont" font-size="14.00">443,80</text>
<text text-anchor="middle" x="822.55" y="-615.8" font-family="Unifont" font-size="14.00">70</text>
</g>
<!-- Rosenhof&#45;&#45;FB 7530 AX -->
<g id="edge3" class="edge">
<title>Rosenhof&#45;&#45;FB 7530 AX</title>
<path fill="none" stroke="black" d="M641.47,-544.58C609.89,-519.69 548.01,-470.94 516.11,-445.81"/>
<text text-anchor="middle" x="637.05" y="-513.8" font-family="Unifont" font-size="14.00">993,143</text>
<text text-anchor="middle" x="637.05" y="-498.8" font-family="Unifont" font-size="14.00">587,25</text>
<text text-anchor="middle" x="637.05" y="-483.8" font-family="Unifont" font-size="14.00">443,80</text>
<text text-anchor="middle" x="637.05" y="-468.8" font-family="Unifont" font-size="14.00">70</text>
</g>
<!-- dockerop -->
<g id="node6" class="node">
<title>dockerop</title>
<ellipse fill="none" stroke="black" cx="226.05" cy="-135" rx="37.09" ry="18"/>
<text text-anchor="middle" x="226.05" y="-131.3" font-family="Unifont" font-size="14.00">docker</text>
</g>
<!-- optiplex3020&#45;&#45;dockerop -->
<g id="edge5" class="edge">
<title>optiplex3020&#45;&#45;dockerop</title>
<path fill="none" stroke="black" d="M450.52,-284.33C441.77,-282.35 432.66,-280.46 424.05,-279 386.38,-272.6 281.48,-286.52 253.05,-261 222.48,-233.56 221.99,-180.5 224.07,-153.18"/>
<text text-anchor="middle" x="300.55" y="-249.8" font-family="Unifont" font-size="14.00">9323</text>
<text text-anchor="middle" x="300.55" y="-234.8" font-family="Unifont" font-size="14.00">9053,9052,9050</text>
<text text-anchor="middle" x="300.55" y="-219.8" font-family="Unifont" font-size="14.00">993,143</text>
<text text-anchor="middle" x="300.55" y="-204.8" font-family="Unifont" font-size="14.00">587,25</text>
<text text-anchor="middle" x="300.55" y="-189.8" font-family="Unifont" font-size="14.00">443,80</text>
<text text-anchor="middle" x="300.55" y="-174.8" font-family="Unifont" font-size="14.00">70</text>
</g>
<!-- bucket -->
<g id="node12" class="node">
<title>bucket</title>
<ellipse fill="none" stroke="black" cx="331.05" cy="-135" rx="37.09" ry="18"/>
<text text-anchor="middle" x="331.05" y="-131.3" font-family="Unifont" font-size="14.00">bucket</text>
</g>
<!-- optiplex3020&#45;&#45;bucket -->
<g id="edge11" class="edge">
<title>optiplex3020&#45;&#45;bucket</title>
<path fill="none" stroke="black" d="M458.7,-282.33C446.57,-276.83 433.55,-269.7 423.05,-261 384.86,-229.38 354.04,-178.64 339.72,-152.6"/>
<text text-anchor="middle" x="437.05" y="-212.3" font-family="Unifont" font-size="14.00">8022</text>
</g>
<!-- aggregamus -->
<g id="node13" class="node">
<title>aggregamus</title>
<ellipse fill="none" stroke="black" cx="441.05" cy="-135" rx="54.69" ry="18"/>
<text text-anchor="middle" x="441.05" y="-131.3" font-family="Unifont" font-size="14.00">aggregamus</text>
</g>
<!-- optiplex3020&#45;&#45;aggregamus -->
<g id="edge12" class="edge">
<title>optiplex3020&#45;&#45;aggregamus</title>
<path fill="none" stroke="black" d="M490.16,-278.88C479.57,-248.08 457.45,-183.71 446.89,-153"/>
<text text-anchor="middle" x="497.05" y="-212.3" font-family="Unifont" font-size="14.00">8669</text>
</g>
<!-- inspiriererin -->
<g id="node14" class="node">
<title>inspiriererin</title>
<ellipse fill="none" stroke="black" cx="581.05" cy="-135" rx="67.69" ry="18"/>
<text text-anchor="middle" x="581.05" y="-131.3" font-family="Unifont" font-size="14.00">inspiriererin</text>
</g>
<!-- optiplex3020&#45;&#45;inspiriererin -->
<g id="edge13" class="edge">
<title>optiplex3020&#45;&#45;inspiriererin</title>
<path fill="none" stroke="black" d="M505.36,-278.93C508.46,-273.24 511.91,-266.85 515.05,-261 535.67,-222.49 559.52,-177.1 572.14,-153.02"/>
<text text-anchor="middle" x="577.05" y="-212.3" font-family="Unifont" font-size="14.00">8989</text>
</g>
<!-- murmur -->
<g id="node15" class="node">
<title>murmur</title>
<ellipse fill="none" stroke="black" cx="704.05" cy="-135" rx="37.09" ry="18"/>
<text text-anchor="middle" x="704.05" y="-131.3" font-family="Unifont" font-size="14.00">murmur</text>
</g>
<!-- optiplex3020&#45;&#45;murmur -->
<g id="edge14" class="edge">
<title>optiplex3020&#45;&#45;murmur</title>
<path fill="none" stroke="black" d="M542.97,-284.82C560.27,-279.35 579.44,-271.6 595.05,-261 639.11,-231.07 676.41,-179.12 693.71,-152.6"/>
<text text-anchor="middle" x="697.05" y="-212.3" font-family="Unifont" font-size="14.00">64738</text>
</g>
<!-- ludwigop -->
<g id="node7" class="node">
<title>ludwigop</title>
<ellipse fill="none" stroke="black" cx="37.05" cy="-18" rx="37.09" ry="18"/>
<text text-anchor="middle" x="37.05" y="-14.3" font-family="Unifont" font-size="14.00">ludwig</text>
</g>
<!-- dockerop&#45;&#45;ludwigop -->
<g id="edge8" class="edge">
<title>dockerop&#45;&#45;ludwigop</title>
<path fill="none" stroke="black" d="M196.05,-124.09C179.08,-117.93 157.78,-109.23 140.05,-99 107.3,-80.1 73.44,-51.81 53.86,-34.43"/>
<text text-anchor="middle" x="147.05" y="-72.8" font-family="Unifont" font-size="14.00">70</text>
</g>
<!-- nginxop -->
<g id="node8" class="node">
<title>nginxop</title>
<ellipse fill="none" stroke="black" cx="125.05" cy="-18" rx="32.49" ry="18"/>
<text text-anchor="middle" x="125.05" y="-14.3" font-family="Unifont" font-size="14.00">nginx</text>
</g>
<!-- dockerop&#45;&#45;nginxop -->
<g id="edge7" class="edge">
<title>dockerop&#45;&#45;nginxop</title>
<path fill="none" stroke="black" d="M212,-118.01C192.6,-95.92 157.82,-56.31 138.65,-34.49"/>
<text text-anchor="middle" x="204.55" y="-80.3" font-family="Unifont" font-size="14.00">443</text>
<text text-anchor="middle" x="204.55" y="-65.3" font-family="Unifont" font-size="14.00">80</text>
</g>
<!-- tor&#45;proxy -->
<g id="node9" class="node">
<title>tor&#45;proxy</title>
<ellipse fill="none" stroke="black" cx="226.05" cy="-18" rx="50.09" ry="18"/>
<text text-anchor="middle" x="226.05" y="-14.3" font-family="Unifont" font-size="14.00">tor&#45;proxy</text>
</g>
<!-- dockerop&#45;&#45;tor&#45;proxy -->
<g id="edge6" class="edge">
<title>dockerop&#45;&#45;tor&#45;proxy</title>
<path fill="none" stroke="black" d="M226.05,-116.53C226.05,-94.79 226.05,-57.89 226.05,-36.25"/>
<text text-anchor="middle" x="240.05" y="-87.8" font-family="Unifont" font-size="14.00">9053</text>
<text text-anchor="middle" x="240.05" y="-72.8" font-family="Unifont" font-size="14.00">9052</text>
<text text-anchor="middle" x="240.05" y="-57.8" font-family="Unifont" font-size="14.00">9050</text>
</g>
<!-- simon -->
<g id="node10" class="node">
<title>simon</title>
<ellipse fill="none" stroke="black" cx="327.05" cy="-18" rx="32.49" ry="18"/>
<text text-anchor="middle" x="327.05" y="-14.3" font-family="Unifont" font-size="14.00">simon</text>
</g>
<!-- dockerop&#45;&#45;simon -->
<g id="edge9" class="edge">
<title>dockerop&#45;&#45;simon</title>
<path fill="none" stroke="black" d="M240.48,-118.41C246.01,-112.38 252.36,-105.4 258.05,-99 277.65,-76.92 299.89,-50.97 313.69,-34.75"/>
</g>
<!-- ali -->
<g id="node11" class="node">
<title>ali</title>
<ellipse fill="none" stroke="black" cx="404.05" cy="-18" rx="27" ry="18"/>
<text text-anchor="middle" x="404.05" y="-14.3" font-family="Unifont" font-size="14.00">ali</text>
</g>
<!-- dockerop&#45;&#45;ali -->
<g id="edge10" class="edge">
<title>dockerop&#45;&#45;ali</title>
<path fill="none" stroke="black" d="M250.83,-121.56C263.13,-115.16 278.08,-107.04 291.05,-99 326.18,-77.21 365.12,-48.59 386.88,-32.15"/>
<text text-anchor="middle" x="381.05" y="-80.3" font-family="Unifont" font-size="14.00">993,143</text>
<text text-anchor="middle" x="381.05" y="-65.3" font-family="Unifont" font-size="14.00">587,25</text>
</g>
<!-- sophia -->
<g id="node17" class="node">
<title>sophia</title>
<ellipse fill="none" stroke="black" cx="884.05" cy="-429" rx="37.09" ry="18"/>
<text text-anchor="middle" x="884.05" y="-425.3" font-family="Unifont" font-size="14.00">sophia</text>
</g>
<!-- Nuremberg&#45;&#45;sophia -->
<g id="edge16" class="edge">
<title>Nuremberg&#45;&#45;sophia</title>
<path fill="none" stroke="black" d="M836.24,-543C846.78,-518.09 866.31,-471.92 876.85,-447"/>
<text text-anchor="middle" x="888.55" y="-498.8" font-family="Unifont" font-size="14.00">443,80</text>
<text text-anchor="middle" x="888.55" y="-483.8" font-family="Unifont" font-size="14.00">70</text>
</g>
<!-- redirectorkek -->
<g id="node18" class="node">
<title>redirectorkek</title>
<ellipse fill="none" stroke="black" cx="686.05" cy="-297" rx="54.69" ry="18"/>
<text text-anchor="middle" x="686.05" y="-293.3" font-family="Unifont" font-size="14.00">redirector</text>
</g>
<!-- sophia&#45;&#45;redirectorkek -->
<g id="edge21" class="edge">
<title>sophia&#45;&#45;redirectorkek</title>
<path fill="none" stroke="black" d="M853.5,-418.46C836.28,-412.42 814.73,-403.72 797.05,-393 759.53,-370.24 722.03,-334.86 701.65,-314.31"/>
<text text-anchor="middle" x="804.05" y="-359.3" font-family="Unifont" font-size="14.00">80</text>
</g>
<!-- dockersophia -->
<g id="node19" class="node">
<title>dockersophia</title>
<ellipse fill="none" stroke="black" cx="796.05" cy="-297" rx="37.09" ry="18"/>
<text text-anchor="middle" x="796.05" y="-293.3" font-family="Unifont" font-size="14.00">docker</text>
</g>
<!-- sophia&#45;&#45;dockersophia -->
<g id="edge18" class="edge">
<title>sophia&#45;&#45;dockersophia</title>
<path fill="none" stroke="black" d="M868.66,-412.57C863.13,-406.68 857.04,-399.75 852.05,-393 832.93,-367.14 814.78,-334.31 804.57,-314.79"/>
<text text-anchor="middle" x="866.05" y="-374.3" font-family="Unifont" font-size="14.00">9323</text>
<text text-anchor="middle" x="866.05" y="-359.3" font-family="Unifont" font-size="14.00">8942</text>
<text text-anchor="middle" x="866.05" y="-344.3" font-family="Unifont" font-size="14.00">70</text>
</g>
<!-- nginxsophia -->
<g id="node21" class="node">
<title>nginxsophia</title>
<ellipse fill="none" stroke="black" cx="884.05" cy="-297" rx="32.49" ry="18"/>
<text text-anchor="middle" x="884.05" y="-293.3" font-family="Unifont" font-size="14.00">nginx</text>
</g>
<!-- sophia&#45;&#45;nginxsophia -->
<g id="edge17" class="edge">
<title>sophia&#45;&#45;nginxsophia</title>
<path fill="none" stroke="black" d="M884.05,-410.74C884.05,-385.87 884.05,-340.24 884.05,-315.33"/>
<text text-anchor="middle" x="898.05" y="-366.8" font-family="Unifont" font-size="14.00">8169</text>
<text text-anchor="middle" x="898.05" y="-351.8" font-family="Unifont" font-size="14.00">443</text>
</g>
<!-- jasmin -->
<g id="node23" class="node">
<title>jasmin</title>
<ellipse fill="none" stroke="black" cx="972.05" cy="-297" rx="37.09" ry="18"/>
<text text-anchor="middle" x="972.05" y="-293.3" font-family="Unifont" font-size="14.00">jasmin</text>
</g>
<!-- sophia&#45;&#45;jasmin -->
<g id="edge22" class="edge">
<title>sophia&#45;&#45;jasmin</title>
<path fill="none" stroke="black" d="M899.43,-412.57C904.96,-406.68 911.05,-399.75 916.05,-393 935.17,-367.14 953.31,-334.31 963.52,-314.79"/>
<text text-anchor="middle" x="968.05" y="-359.3" font-family="Unifont" font-size="14.00">8099</text>
</g>
<!-- hanna -->
<g id="node24" class="node">
<title>hanna</title>
<ellipse fill="none" stroke="black" cx="1060.05" cy="-297" rx="32.49" ry="18"/>
<text text-anchor="middle" x="1060.05" y="-293.3" font-family="Unifont" font-size="14.00">hanna</text>
</g>
<!-- sophia&#45;&#45;hanna -->
<g id="edge23" class="edge">
<title>sophia&#45;&#45;hanna</title>
<path fill="none" stroke="black" d="M918.02,-421.54C939.04,-416.35 965.78,-407.46 986.05,-393 1015.66,-371.87 1039.2,-335.58 1051.25,-314.49"/>
<text text-anchor="middle" x="1054.05" y="-359.3" font-family="Unifont" font-size="14.00">8042</text>
</g>
<!-- deployment -->
<g id="node25" class="node">
<title>deployment</title>
<ellipse fill="none" stroke="black" cx="1165.05" cy="-297" rx="54.69" ry="18"/>
<text text-anchor="middle" x="1165.05" y="-293.3" font-family="Unifont" font-size="14.00">deployment</text>
</g>
<!-- sophia&#45;&#45;deployment -->
<g id="edge24" class="edge">
<title>sophia&#45;&#45;deployment</title>
<path fill="none" stroke="black" d="M921.19,-427.6C960.75,-425.74 1024.15,-418.55 1072.05,-393 1107.68,-373.99 1138.06,-336.58 1153.71,-314.8"/>
</g>
<!-- ludwigsophia -->
<g id="node20" class="node">
<title>ludwigsophia</title>
<ellipse fill="none" stroke="black" cx="796.05" cy="-135" rx="37.09" ry="18"/>
<text text-anchor="middle" x="796.05" y="-131.3" font-family="Unifont" font-size="14.00">ludwig</text>
</g>
<!-- dockersophia&#45;&#45;ludwigsophia -->
<g id="edge19" class="edge">
<title>dockersophia&#45;&#45;ludwigsophia</title>
<path fill="none" stroke="black" d="M796.05,-278.88C796.05,-248.24 796.05,-184.38 796.05,-153.48"/>
<text text-anchor="middle" x="803.05" y="-212.3" font-family="Unifont" font-size="14.00">70</text>
</g>
<!-- mediawiki -->
<g id="node22" class="node">
<title>mediawiki</title>
<ellipse fill="none" stroke="black" cx="901.05" cy="-135" rx="50.09" ry="18"/>
<text text-anchor="middle" x="901.05" y="-131.3" font-family="Unifont" font-size="14.00">mediawiki</text>
</g>
<!-- dockersophia&#45;&#45;mediawiki -->
<g id="edge20" class="edge">
<title>dockersophia&#45;&#45;mediawiki</title>
<path fill="none" stroke="black" d="M806.89,-279.48C827.01,-248.82 869.91,-183.44 890.11,-152.67"/>
<text text-anchor="middle" x="890.05" y="-212.3" font-family="Unifont" font-size="14.00">8942</text>
</g>
</g>
</svg>
